<?xml version="1.0" encoding="UTF-8"?>
<svg version="1.1" xmlns="http://www.w3.org/2000/svg" width="200" height="200">
<path d="M0 0 C66 0 132 0 200 0 C200 66 200 132 200 200 C134 200 68 200 0 200 C0 134 0 68 0 0 Z " fill="#FEFEFE" transform="translate(0,0)"/>
<path d="M0 0 C3 2 3 2 3.46875 4.03125 C3.62372426 16.27421631 -2.89988716 23.50681409 -11 32 C-12.15390845 33.30540628 -13.30031237 34.61750206 -14.4375 35.9375 C-18.07907891 40.1198238 -21.82132349 44.2079546 -25.55859375 48.3046875 C-28.31775481 51.35080131 -31.02979251 54.43434901 -33.72265625 57.5390625 C-34.45832299 58.38046727 -35.20969387 59.20969387 -36 60 C-35.93381063 61.46218333 -35.79468775 62.92118874 -35.625 64.375 C-35.08701742 69.16166552 -34.66318877 73.94848399 -34.28125 78.75 C-34.1227852 81.0317797 -34.1227852 81.0317797 -33 83 C-32.29875 82.319375 -31.5975 81.63875 -30.875 80.9375 C-28 79 -28 79 -24.8125 79.125 C-22 80 -22 80 -20 82 C-20.14216106 84.95447758 -20.93416561 85.93603237 -23.06640625 88.0078125 C-23.89011719 88.70648438 -24.71382812 89.40515625 -25.5625 90.125 C-28.93840319 93.34879879 -28.93840319 93.34879879 -30.6640625 97.5625 C-30.71030679 102.61854218 -29.65363962 107.24578609 -28 112 C-27.2575 111.46375 -26.515 110.9275 -25.75 110.375 C-23 109 -23 109 -20.875 109.625 C-19.05626013 110.95874257 -17.5159372 112.33246908 -16 114 C-17.38775272 117.22407197 -18.96467591 118.99474584 -21.625 121.25 C-24.43605286 124.0084552 -24.95129491 124.67529939 -25.5625 128.75 C-25.17454652 133.00097959 -24.25958982 137.20059396 -23.4609375 141.390625 C-22.56046034 146.48824145 -22.29238771 149.70677755 -24.8125 154.3125 C-27 157 -27 157 -30 159 C-32.3984375 159.10791016 -32.3984375 159.10791016 -35 158 C-36.92056908 155.62907039 -38.23974789 152.98241998 -39.625 150.2734375 C-40.05103516 149.47336273 -40.47707031 148.67328796 -40.91601562 147.84896851 C-42.29657419 145.24224108 -43.64988365 142.62260819 -45 140 C-45.91371721 138.24623933 -46.82777997 136.49265865 -47.7421875 134.73925781 C-50.52340695 129.38231986 -53.26365779 124.0049598 -56 118.625 C-56.94892855 116.76547688 -57.89814615 114.90610124 -58.84765625 113.046875 C-65.42878214 100.15346292 -65.42878214 100.15346292 -68 95 C-72.08816444 96.68924154 -75.15608135 99.55499536 -78.4375 102.4375 C-79.69505868 103.52763662 -80.95287693 104.61747387 -82.2109375 105.70703125 C-83.16178223 106.53388428 -83.16178223 106.53388428 -84.13183594 107.37744141 C-86.40198442 109.34913597 -88.67778156 111.31366918 -90.96826172 113.26171875 C-92.03595431 114.17473489 -93.09488854 115.09808825 -94.14501953 116.03125 C-96.87511568 118.41326938 -99.44942654 120.31504784 -102.703125 121.92578125 C-106.65637603 124.0356565 -109.9442105 125.87608246 -112 130 C-113.40274268 138.37091247 -112.69305662 146.94616046 -111.97924805 155.36132812 C-112 158 -112 158 -114 160 C-116.31640625 160.06640625 -116.31640625 160.06640625 -119 159 C-120.86093904 156.66129214 -122.39679583 154.47126468 -123.9375 151.9375 C-125.60599277 149.27908808 -127.29294154 146.63381995 -129 144 C-129.42579346 143.32565918 -129.85158691 142.65131836 -130.2902832 141.95654297 C-134.29729647 136.06675036 -139.25252958 132.8555738 -145.3125 129.25 C-147.12777304 128.16211005 -148.93674115 127.0636087 -150.73828125 125.953125 C-151.53274658 125.48036133 -152.32721191 125.00759766 -153.14575195 124.52050781 C-155 123 -155 123 -155.82885742 120.94042969 C-156 119 -156 119 -155 117 C-151.85418698 116.97051509 -148.70841037 116.95304084 -145.5625 116.9375 C-144.68400391 116.92912109 -143.80550781 116.92074219 -142.90039062 116.91210938 C-137.18216923 116.89100893 -131.67199185 117.26719943 -126 118 C-125.76539062 117.29230469 -125.53078125 116.58460938 -125.2890625 115.85546875 C-123.7608154 112.47016987 -121.79993145 110.12406913 -119.375 107.3125 C-118.46266745 106.24423557 -117.55121949 105.1752151 -116.640625 104.10546875 C-116.19009766 103.57872559 -115.73957031 103.05198242 -115.27539062 102.50927734 C-113.50939599 100.41942688 -111.81672778 98.27520022 -110.125 96.125 C-106.7339356 91.86016441 -103.23046266 87.70109733 -99.6875 83.5625 C-99.1713916 82.95873535 -98.6552832 82.3549707 -98.12353516 81.73291016 C-94.27792395 77.2608874 -94.27792395 77.2608874 -92.33520508 75.43725586 C-90.77312728 74.08274615 -90.77312728 74.08274615 -91 72 C-91.5669458 71.71914551 -92.1338916 71.43829102 -92.71801758 71.14892578 C-103.51684237 65.79243054 -114.27676084 60.38236607 -124.91723633 54.71704102 C-129.09103553 52.50328157 -133.28608278 50.34772954 -137.5234375 48.2578125 C-138.43786621 47.80672119 -139.35229492 47.35562988 -140.29443359 46.89086914 C-142.05768236 46.02515568 -143.82352455 45.1646984 -145.59228516 44.31030273 C-146.38683105 43.92044189 -147.18137695 43.53058105 -148 43.12890625 C-148.70125 42.78931885 -149.4025 42.44973145 -150.125 42.09985352 C-153.02933319 40.39620494 -154.73644402 38.97515711 -155.625 35.6875 C-154.77401423 32.02826117 -153.17031701 30.45674711 -150.24609375 28.16796875 C-143.71213615 24.7703108 -135.35973386 27.08984824 -128.5078125 28.5625 C-125.90751339 29.01613474 -123.63153645 29.23599227 -121 29 C-118.87197454 26.69433317 -118.87197454 26.69433317 -117 24 C-114.67046951 21.8207618 -113.55981788 21.06664499 -110.375 20.6875 C-108 21 -108 21 -106 23 C-105.58484248 26.15519714 -105.67005179 27.53009946 -107.51953125 30.1640625 C-108.00808594 30.76992188 -108.49664062 31.37578125 -109 32 C-107.12612523 32.3396019 -105.25083303 32.67138691 -103.375 33 C-102.33085938 33.185625 -101.28671875 33.37125 -100.2109375 33.5625 C-97.0271432 33.99630166 -94.20178568 34.31258716 -91 34 C-89.12803231 32.60129074 -89.12803231 32.60129074 -87.8125 30.625 C-85.89586289 28.05892387 -84.75278522 26.83519015 -82 25 C-79.10836622 24.63854578 -77.6069553 24.61559497 -75.125 26.1875 C-74 28 -74 28 -74.125 30.4375 C-75.04119384 33.12063909 -76.26250299 34.78821327 -78 37 C-67.60614605 39.98363897 -67.60614605 39.98363897 -57 40 C-53.98256482 38.04166459 -51.5717305 35.4997051 -49 33 C-46.83739582 31.09564925 -44.63657491 29.23701478 -42.4375 27.375 C-38.64401101 24.14404164 -34.87006442 20.89569249 -31.1484375 17.58203125 C-10.58585917 -0.6616162 -10.58585917 -0.6616162 0 0 Z " fill="#CB0202" transform="translate(176,20)"/>
</svg>
