<?xml version="1.0" encoding="UTF-8"?>
<svg version="1.1" xmlns="http://www.w3.org/2000/svg" width="1080" height="1080">
<path d="M0 0 C356.4 0 712.8 0 1080 0 C1080 356.4 1080 712.8 1080 1080 C723.6 1080 367.2 1080 0 1080 C0 723.6 0 367.2 0 0 Z " fill="#FEFEFE" transform="translate(0,0)"/>
<path d="M0 0 C95.37 0 190.74 0 289 0 C289 219.78 289 439.56 289 666 C297.25 666 305.5 666 314 666 C314 516.18 314 366.36 314 212 C409.37 212 504.74 212 603 212 C603 361.82 603 511.64 603 666 C623.13 666 643.26 666 664 666 C671.43478261 670.95652174 671.43478261 670.95652174 673 674 C673.54819106 679.02508472 673.0345498 681.9539336 670 686 C667.93532144 688.40879165 667.11005341 688.96331553 664 690 C662.32842147 690.09309221 660.65334305 690.12816917 658.97917527 690.12995183 C657.93330985 690.13348025 656.88744444 690.13700867 655.80988613 690.14064401 C654.65472746 690.13944624 653.4995688 690.13824846 652.30940533 690.13701439 C650.46827045 690.14099213 650.46827045 690.14099213 648.58994094 690.14505023 C645.16145987 690.15142104 641.73302877 690.1532795 638.30454521 690.153273 C634.58272155 690.15434042 630.86090769 690.16112853 627.13908941 690.1671797 C619.74770707 690.17826661 612.35632948 690.18390673 604.96494029 690.18788858 C596.11562947 690.19289306 587.26632789 690.20361976 578.41702251 690.21437032 C557.02692322 690.24001327 535.63682034 690.25503753 514.24671009 690.26788078 C507.16424122 690.27213392 500.0817726 690.2766996 492.99930406 690.2814641 C455.36238571 690.30672047 417.72546694 690.32877433 380.08854198 690.34119225 C371.36656378 690.3441137 362.64458559 690.34708119 353.92260742 690.35009766 C352.83898484 690.35046857 351.75536226 690.35083947 350.63890263 690.35122162 C315.4885523 690.36338287 280.33825198 690.39433619 245.18792515 690.43601918 C209.06855164 690.47877339 172.94920454 690.50542892 136.82980503 690.51066696 C131.73206494 690.51140745 126.6343249 690.51231814 121.53658485 690.51332474 C120.53326164 690.51351535 119.52993843 690.51370597 118.49621149 690.51390236 C102.32680486 690.51742066 86.15746072 690.53774018 69.98807706 690.56412137 C53.7464333 690.59022166 37.50486199 690.59801223 21.26320025 690.58702008 C11.6062532 690.58102851 1.94955134 690.58903219 -7.70735875 690.61685092 C-14.15195244 690.63404697 -20.59637811 690.63320148 -27.04097522 690.61748323 C-30.71699893 690.60903681 -34.39255332 690.60861 -38.06853435 690.63009469 C-42.02320449 690.65302336 -45.97718065 690.63751669 -49.9318819 690.61803246 C-51.65408465 690.63730629 -51.65408465 690.63730629 -53.41107938 690.65696949 C-61.99097293 690.56335992 -61.99097293 690.56335992 -65.69175738 687.58637297 C-69.32436327 683.51605835 -69.33881441 680.79262625 -69.28515625 675.48046875 C-68.88136394 671.96802881 -67.61222617 670.32197882 -65 668 C-45.61157275 658.30578638 -21.67692065 666 0 666 C0 446.22 0 226.44 0 0 Z " fill="#EA2435" transform="translate(238,195)"/>
<path d="M0 0 C1.89237648 -0.01902626 1.89237648 -0.01902626 3.82298279 -0.03843689 C5.19196741 -0.03638523 6.56095091 -0.03339703 7.92993164 -0.02954102 C9.34331004 -0.03410568 10.75668622 -0.0394121 12.1700592 -0.04542542 C15.12811313 -0.05434564 18.08589692 -0.05194622 21.04394531 -0.04199219 C24.82470563 -0.03050608 28.60453144 -0.05071265 32.38516903 -0.07990932 C35.30296194 -0.09830351 38.22053224 -0.09797253 41.13836861 -0.0922718 C42.53175733 -0.09211897 43.92516151 -0.09813221 45.3184948 -0.11056328 C57.54232192 -0.20426117 57.54232192 -0.20426117 61.36572266 2.12255859 C65.76237105 6.5088807 67.02802632 9.82698015 67.04077148 16.02685547 C67.04602844 16.67143707 67.0512854 17.31601868 67.05670166 17.98013306 C67.06984746 20.09955466 67.06118257 22.21821794 67.05102539 24.33764648 C67.05304795 25.81828454 67.05596091 27.29892162 67.0597229 28.77955627 C67.0641391 31.87885039 67.05773908 34.97788461 67.04370117 38.07714844 C67.02662438 42.03936977 67.03644491 46.00098072 67.05441856 49.96317959 C67.06528842 53.0199285 67.06179521 56.07653407 67.05403519 59.13328743 C67.05204123 60.59364965 67.05446407 62.05402511 67.06147385 63.51437187 C67.06913988 65.56054736 67.05741347 67.60575182 67.04077148 69.65185547 C67.0383847 70.81369858 67.03599792 71.97554169 67.03353882 73.17259216 C66.46335124 78.00927462 64.74863934 81.28275096 61.36352539 84.74584961 C56.0514352 87.88739958 49.23985317 86.97540076 43.27758789 86.93530273 C41.86563856 86.93800058 40.45369105 86.94188544 39.04174805 86.94689941 C36.08958157 86.95278084 33.13790081 86.94427619 30.18579102 86.92553711 C26.41286554 86.90274735 22.64107835 86.91587787 18.86819458 86.93982697 C15.95466629 86.95432228 13.04140525 86.9496621 10.12786865 86.9393158 C8.73728295 86.93665877 7.34667252 86.9398821 5.95611572 86.94923401 C-6.22447846 87.01318645 -6.22447846 87.01318645 -10.05834961 84.74584961 C-14.49619773 80.20576437 -15.72231487 75.91978326 -15.75146484 69.66772461 C-15.75832809 69.02299698 -15.76519135 68.37826935 -15.77226257 67.71400452 C-15.79044287 65.60004142 -15.78670662 63.4868266 -15.78100586 61.37280273 C-15.78557143 59.89359295 -15.79087812 58.41438528 -15.79689026 56.93518066 C-15.80580372 53.84187171 -15.80341801 50.7488212 -15.79345703 47.65551758 C-15.78196059 43.70104654 -15.80219706 39.7474676 -15.83137417 35.79311371 C-15.84976096 32.74064517 -15.84943901 29.68838956 -15.84373665 26.63587952 C-15.84358378 25.17829638 -15.84959945 23.72069849 -15.86202812 22.26316833 C-15.8769874 20.22167692 -15.86622891 18.18182271 -15.84912109 16.14038086 C-15.84895493 14.98155396 -15.84878876 13.82272705 -15.84861755 12.62878418 C-15.07642489 7.66053416 -12.91658747 4.63746679 -8.99412537 1.55430603 C-5.81835479 0.17412608 -3.46033475 0.01687753 0 0 Z " fill="#FEFAFB" transform="translate(613.347412109375,592.595947265625)"/>
<path d="M0 0 C1.38952714 -0.00015516 2.7790547 -0.00164691 4.1685791 -0.00440979 C7.07368215 -0.00579057 9.97828958 0.00670937 12.88330078 0.02954102 C16.59555272 0.05792541 20.30698191 0.05518438 24.01929474 0.0424509 C26.88648428 0.03547535 29.75348573 0.04330424 32.62065125 0.05570793 C33.98889951 0.06020426 35.35716809 0.06057521 36.72541809 0.05664253 C38.64184927 0.05371219 40.55827597 0.07246201 42.47460938 0.09204102 C43.56237671 0.097444 44.65014404 0.10284698 45.77087402 0.1084137 C50.76082116 0.7379552 53.94295796 2.43711659 57.18774414 6.25170898 C60.14620427 12.12392448 59.39555156 18.99850936 59.33984375 25.40625 C59.33999894 26.8616086 59.34149117 28.31696762 59.34425354 29.77232361 C59.34563332 32.81267718 59.33314957 35.85255658 59.31030273 38.89282227 C59.28189342 42.77878933 59.28466767 46.66397094 59.29739285 50.54999638 C59.30436556 53.55186101 59.29654312 56.55354583 59.28413582 59.5553875 C59.27963853 60.98783108 59.27926938 62.42029408 59.28320122 63.85273933 C59.28612943 65.85766935 59.26738931 67.86259516 59.24780273 69.86743164 C59.24239975 71.00547745 59.23699677 72.14352325 59.23143005 73.3160553 C58.64584051 78.11949375 56.91798778 81.39710817 53.5546875 84.83789062 C48.24259731 87.97944059 41.43101528 87.06744178 35.46875 87.02734375 C34.05680067 87.0300416 32.64485316 87.03392646 31.23291016 87.03894043 C28.28074368 87.04482186 25.32906292 87.0363172 22.37695312 87.01757812 C18.60402765 86.99478837 14.83224046 87.00791889 11.05935669 87.03186798 C8.1458284 87.0463633 5.23256736 87.04170312 2.31903076 87.03135681 C0.92844506 87.02869978 -0.46216537 87.03192311 -1.85272217 87.04127502 C-14.03331635 87.10522747 -14.03331635 87.10522747 -17.8671875 84.83789062 C-22.27646951 80.3270296 -23.53143241 76.06711489 -23.54443359 69.8515625 C-23.55389008 68.55001221 -23.56334656 67.24846191 -23.5730896 65.9074707 C-23.56771941 64.4995086 -23.56156634 63.09154929 -23.5546875 61.68359375 C-23.55671073 60.22680516 -23.55962425 58.77001756 -23.56338501 57.31323242 C-23.56779667 54.2669913 -23.56141498 51.22101492 -23.54736328 48.17480469 C-23.53027176 44.28098983 -23.54011921 40.38779542 -23.55808067 36.4940033 C-23.56895006 33.48786796 -23.5654578 30.48187838 -23.5576973 27.47573853 C-23.55570399 26.04049607 -23.55812387 24.60524014 -23.56513596 23.17001343 C-23.57280162 21.16022006 -23.55903557 19.15037994 -23.54443359 17.140625 C-23.54204681 15.99956299 -23.53966003 14.85850098 -23.53720093 13.68286133 C-22.96131307 8.86538845 -21.23401839 5.5931733 -17.85351562 2.15209961 C-12.59602544 -0.95773683 -5.89982741 -0.05362245 0 0 Z " fill="#FEFBFB" transform="translate(621.15625,715.50390625)"/>
<path d="M0 0 C1.24156357 -0.00945648 2.48312714 -0.01891296 3.76231384 -0.02865601 C5.10920533 -0.02328535 6.45609389 -0.01713217 7.80297852 -0.01025391 C9.19393567 -0.01227673 10.58489179 -0.01518991 11.97584534 -0.01895142 C14.88683194 -0.02336647 17.79754176 -0.01697146 20.70849609 -0.00292969 C24.42859454 0.01414617 28.14804282 0.00432661 31.86811733 -0.01364708 C34.73957663 -0.02452095 37.61088344 -0.02102191 40.48234749 -0.0132637 C41.85339498 -0.0112708 43.22445659 -0.01368885 44.59548759 -0.02070236 C46.51678047 -0.0283736 48.43812225 -0.01459634 50.359375 0 C51.99555031 0.00358017 51.99555031 0.00358017 53.66477966 0.00723267 C58.78464268 0.640566 61.75070684 2.2152279 65.08802795 6.15466309 C66.95461869 9.79859981 67.24550973 12.05169147 67.24609375 16.12451172 C67.25419823 17.09160316 67.25419823 17.09160316 67.26246643 18.07823181 C67.27489215 20.19244438 67.25850638 22.30527846 67.24047852 24.41943359 C67.24063365 25.89864167 67.24212502 27.37785016 67.24488831 28.85705566 C67.24626953 31.9504605 67.23376148 35.04340012 67.2109375 38.13671875 C67.18255318 42.09109177 67.18529365 46.04469244 67.19802761 49.99912262 C67.20500064 53.05160048 67.1971771 56.10390153 67.18477058 59.15635681 C67.18027182 60.6139203 67.17990545 62.07150287 67.18383598 63.52906799 C67.18676435 65.57038932 67.17016635 67.61066652 67.1484375 69.65185547 C67.14303452 70.81068237 67.13763153 71.96950928 67.13206482 73.16345215 C66.55050711 78.00086232 64.83874131 81.27632383 61.43945312 84.72998047 C56.19057319 87.83456401 49.51572323 86.9598054 43.62329102 86.91943359 C42.23615752 86.92213184 40.84902587 86.92601702 39.4618988 86.93103027 C36.56100375 86.93691183 33.66060298 86.92840802 30.75976562 86.90966797 C27.05643296 86.8868995 23.35426136 86.89999505 19.65097141 86.92395782 C16.78801359 86.93847111 13.92532714 86.93378444 11.06236076 86.92344666 C9.69772133 86.92079346 8.33305661 86.92399925 6.96844673 86.93336487 C-6.73994634 87.00680394 -6.73994634 87.00680394 -12.25561523 82.38818359 C-14.9052845 78.01043505 -15.63595256 74.73831355 -15.65966797 69.65185547 C-15.66653122 69.00712784 -15.67339447 68.36240021 -15.6804657 67.69813538 C-15.698646 65.58417228 -15.69490975 63.47095746 -15.68920898 61.35693359 C-15.69377456 59.87772381 -15.69908125 58.39851614 -15.70509338 56.91931152 C-15.71400684 53.82600257 -15.71162114 50.73295206 -15.70166016 47.63964844 C-15.69016371 43.6851774 -15.71040019 39.73159846 -15.73957729 35.77724457 C-15.75796408 32.72477603 -15.75764214 29.67252042 -15.75193977 26.62001038 C-15.75178691 25.16242724 -15.75780257 23.70482935 -15.77023125 22.24729919 C-15.78519052 20.20580778 -15.77443203 18.16595357 -15.75732422 16.12451172 C-15.75715805 14.96568481 -15.75699188 13.80685791 -15.75682068 12.61291504 C-14.98425894 7.64229039 -12.82384409 4.61851508 -8.89659119 1.53744507 C-5.74668768 0.16671591 -3.43230795 0.00751583 0 0 Z " fill="#FEFAFA" transform="translate(613.255615234375,469.61181640625)"/>
<path d="M0 0 C1.24171463 -0.01283524 2.48342926 -0.02567047 3.76277161 -0.03889465 C5.1200826 -0.0470626 6.47739812 -0.05450623 7.8347168 -0.0612793 C8.86193376 -0.06739259 8.86193376 -0.06739259 9.90990257 -0.07362938 C13.53482128 -0.09447057 17.15970235 -0.10878051 20.78466797 -0.11816406 C24.5205623 -0.12922301 28.25586012 -0.16362155 31.99154377 -0.20333576 C34.8715472 -0.22953328 37.75140914 -0.23785862 40.63152122 -0.24144554 C42.00819107 -0.24630368 43.38485492 -0.25789577 44.76140785 -0.27648354 C58.19651921 -0.44661986 58.19651921 -0.44661986 62.97143555 4.17700195 C66.2384358 7.64540615 66.36298138 10.25041512 66.40722656 14.94580078 C66.4173024 15.61789078 66.42737823 16.28998077 66.4377594 16.98243713 C66.46620747 19.19980606 66.47211452 21.41649325 66.4753418 23.6340332 C66.48498666 25.18096697 66.49507942 26.72789799 66.50559998 28.27482605 C66.52355447 31.51710346 66.52912189 34.75914123 66.52734375 38.00146484 C66.52703927 42.14452465 66.56795751 46.2860374 66.61966038 50.42873096 C66.65311833 53.62451651 66.65909844 56.81993215 66.65751457 60.01587486 C66.66104172 61.54245006 66.67423886 63.06903614 66.69751167 64.595438 C66.88285311 78.00934464 66.88285311 78.00934464 63.05322266 82.60546875 C59.3937198 86.04004556 56.86305341 86.31061409 51.87280273 86.35400391 C49.95005524 86.37325676 49.95005524 86.37325676 47.98846436 86.39289856 C46.58175035 86.401067 45.17503197 86.40851054 43.76831055 86.4152832 C43.06051704 86.41935873 42.35272354 86.42343426 41.62348175 86.42763329 C37.87537426 86.44849758 34.1273034 86.46279627 30.37915039 86.47216797 C26.51432037 86.48321816 22.65006839 86.51760005 18.78544235 86.55733967 C15.80850177 86.58353547 12.8316981 86.5918625 9.8546524 86.59544945 C8.43053545 86.6003098 7.0064244 86.61190822 5.58242035 86.63048744 C3.58430435 86.65493137 1.58590689 86.65148893 -0.41235352 86.64697266 C-1.54771545 86.6528389 -2.68307739 86.65870514 -3.85284424 86.66474915 C-8.40926124 85.96494581 -11.62744306 84.07060528 -14.38739014 80.34056091 C-15.27080082 77.35960697 -15.28317462 74.66969551 -15.28735352 71.56005859 C-15.29085815 70.90426315 -15.29436279 70.24846771 -15.29797363 69.57279968 C-15.30675643 67.41081063 -15.3009535 65.24915043 -15.29418945 63.0871582 C-15.29553726 61.58027585 -15.29747876 60.07339393 -15.29998779 58.56651306 C-15.30293451 55.41002254 -15.29865661 52.25364531 -15.28930664 49.09716797 C-15.27792211 45.05758913 -15.284468 41.01827636 -15.29645157 36.97870731 C-15.30369077 33.86712147 -15.30137262 30.75559832 -15.29619598 27.64401054 C-15.29486468 26.15491135 -15.29648899 24.66580642 -15.30115509 23.17671394 C-15.30625321 21.09210337 -15.29846403 19.00791882 -15.28735352 16.92333984 C-15.28576233 15.73849503 -15.28417114 14.55365021 -15.28253174 13.332901 C-14.93355854 8.99642047 -13.92506845 6.21810337 -11.09106445 2.92700195 C-7.56970156 -0.06082111 -4.44911808 0.04001907 0 0 Z " fill="#FEFDFD" transform="translate(729.028564453125,715.822998046875)"/>
<path d="M0 0 C1.82735939 -0.01902626 1.82735939 -0.01902626 3.69163513 -0.03843689 C4.99488235 -0.03550125 6.29812958 -0.03256561 7.64086914 -0.02954102 C9.00558226 -0.03410796 10.37029308 -0.03941505 11.73500061 -0.04542542 C14.58872854 -0.05433618 17.44217631 -0.05195705 20.29589844 -0.04199219 C23.93866147 -0.03050659 27.58045449 -0.0507165 31.22309017 -0.07990932 C34.0396989 -0.09832597 36.85607752 -0.09796811 39.6727314 -0.0922718 C41.66400919 -0.09204549 43.65526552 -0.10889252 45.64646912 -0.12608337 C52.48370401 -0.0735697 57.31564054 0.02479014 62.73852539 4.40405273 C65.10488633 7.91258632 65.00908299 11.12283356 65.04492188 15.28051758 C65.05324539 15.96396744 65.06156891 16.6474173 65.07014465 17.35157776 C65.09419743 19.6061069 65.1030107 21.86034648 65.10961914 24.11499023 C65.11858894 25.68673792 65.12771085 27.25848475 65.13697815 28.83023071 C65.15345774 32.12373935 65.16116639 35.41714645 65.1640625 38.71069336 C65.169446 42.9231261 65.20712781 47.13459973 65.25280666 51.3467617 C65.28260481 54.59308322 65.28978664 57.8391745 65.29078865 61.08562088 C65.29498537 62.63813292 65.3073978 64.190646 65.3283062 65.74302292 C65.35528141 67.91899141 65.3503799 70.09274637 65.33789062 72.26879883 C65.34296127 73.50471771 65.34803192 74.7406366 65.35325623 76.01400757 C64.52968623 80.55573432 63.00468399 82.17917412 59.73852539 85.40405273 C56.45684059 86.49794767 53.9822213 86.55759168 50.52636719 86.59692383 C49.24461105 86.61298676 47.96285492 86.62904968 46.64225769 86.64559937 C45.24075994 86.65708662 43.83925474 86.66769519 42.43774414 86.67749023 C41.73086771 86.68281391 41.02399128 86.68813759 40.29569435 86.69362259 C36.55407421 86.72032507 32.81248709 86.73970911 29.07080078 86.75415039 C25.97935385 86.76748821 22.88856724 86.79534024 19.79736328 86.83618164 C16.05908129 86.88556685 12.32139798 86.91027808 8.58280373 86.91737747 C7.16145094 86.92407836 5.74011091 86.93927047 4.31894493 86.96326828 C-8.18164582 87.16231041 -8.18164582 87.16231041 -12.05517578 84.18383789 C-15.78493981 79.48459111 -16.51296147 75.72698212 -16.55200195 69.78125 C-16.55871918 69.1366684 -16.5654364 68.49208679 -16.57235718 67.82797241 C-16.59127047 65.70872171 -16.59525766 63.5897887 -16.59741211 61.47045898 C-16.6038438 59.98982109 -16.61057243 58.50918446 -16.61758423 57.02854919 C-16.62953964 53.92932184 -16.63326676 50.83020581 -16.63208008 47.73095703 C-16.63187678 43.76865127 -16.65919713 39.80706187 -16.6936245 35.84492588 C-16.71590947 32.78819019 -16.71991717 29.73162663 -16.71886063 26.67481804 C-16.72121348 25.21443141 -16.73001931 23.7540398 -16.74552536 22.2937336 C-16.76522326 20.24740102 -16.75933517 18.20260981 -16.74731445 16.15625 C-16.75158951 14.41348534 -16.75158951 14.41348534 -16.75595093 12.63551331 C-16.13623667 8.58560818 -14.90469034 6.52171518 -12.26147461 3.40405273 C-8.11448284 0.72066606 -4.89508647 0.02478765 0 0 Z " fill="#FEFCFD" transform="translate(300.261474609375,362.595947265625)"/>
<path d="M0 0 C1.26150879 -0.00945648 2.52301758 -0.01891296 3.82275391 -0.02865601 C5.18652666 -0.02328579 6.55029652 -0.01713271 7.9140625 -0.01025391 C9.32601064 -0.01227729 10.73795776 -0.01519093 12.14990234 -0.01895142 C15.10198973 -0.02336237 18.05380388 -0.01698374 21.00585938 -0.00292969 C24.7786128 0.01416185 28.55072585 0.00431401 32.32345581 -0.01364708 C35.23694634 -0.02451842 38.15028653 -0.02102332 41.06378174 -0.0132637 C42.45436683 -0.01127093 43.84496584 -0.01368837 45.23553467 -0.02070236 C47.18306191 -0.02837127 49.13063738 -0.01459869 51.078125 0 C52.18365723 0.00238678 53.28918945 0.00477356 54.42822266 0.00723267 C58.04270488 0.44985923 60.43744968 1.5021151 63.5390625 3.38818359 C67.85135225 9.85576362 66.99368773 17.53172402 66.97265625 25.04443359 C66.97722403 26.47497809 66.98253137 27.9055204 66.98854065 29.33605957 C66.99744485 32.32504223 66.99507901 35.3137573 66.98510742 38.30273438 C66.9736111 42.11920692 66.99385184 45.93475507 67.02302456 49.75110626 C67.04143251 52.70239046 67.04108523 55.65345487 67.03538704 58.6047821 C67.03523444 60.01129962 67.04122805 61.41783262 67.05367851 62.82429504 C67.16093838 76.92338462 67.16093838 76.92338462 62.5390625 82.38818359 C58.27075997 84.94993316 55.10628096 85.76553105 50.15405273 85.77636719 C48.90933701 85.78582367 47.66462128 85.79528015 46.38218689 85.80502319 C45.03734007 85.79965356 43.69249619 85.79350062 42.34765625 85.78662109 C40.9557327 85.78864434 39.56381019 85.79155787 38.17189026 85.7953186 C35.26268363 85.79972873 32.35375434 85.79335266 29.44458008 85.77929688 C25.72329148 85.76218937 22.00265132 85.77206374 18.28138638 85.79001427 C15.40996954 85.80087426 12.53870554 85.79739597 9.66728401 85.78963089 C8.29541 85.78763582 6.92352192 85.79006376 5.55166435 85.79706955 C3.63267166 85.80472142 1.71363002 85.79098306 -0.20532227 85.77636719 C-1.84030418 85.77278702 -1.84030418 85.77278702 -3.50831604 85.76913452 C-7.75751715 85.22089726 -10.41043281 83.58876038 -13.2109375 80.38818359 C-15.57168242 76.61099172 -15.59616615 73.43847836 -15.62207031 69.08422852 C-15.63167786 67.78245163 -15.6412854 66.48067474 -15.65118408 65.13945007 C-15.65603247 63.71585261 -15.6603112 62.29225312 -15.6640625 60.86865234 C-15.66981672 59.4075775 -15.67557442 57.94650267 -15.68133545 56.48542786 C-15.69183825 53.42135263 -15.69768544 50.35730358 -15.70117188 47.29321289 C-15.70665115 43.37583258 -15.73066976 39.45880081 -15.75914383 35.54152966 C-15.77781191 32.52255763 -15.78297804 29.5036688 -15.78450775 26.48464394 C-15.78752607 25.04100962 -15.79552686 23.59737649 -15.80869293 22.15379906 C-15.82583666 20.12937731 -15.82201638 18.1048113 -15.81738281 16.08032227 C-15.82102844 14.93021164 -15.82467407 13.78010101 -15.82843018 12.59513855 C-15.39622884 8.82349815 -14.57388731 6.54638402 -12.4609375 3.38818359 C-8.28480283 0.61167852 -4.95805251 0.01070415 0 0 Z " fill="#FEFCFC" transform="translate(299.4609375,240.61181640625)"/>
<path d="M0 0 C1.89237648 -0.01902626 1.89237648 -0.01902626 3.82298279 -0.03843689 C5.19196741 -0.03638523 6.56095091 -0.03339703 7.92993164 -0.02954102 C9.34331004 -0.03410568 10.75668622 -0.0394121 12.1700592 -0.04542542 C15.12811313 -0.05434564 18.08589692 -0.05194622 21.04394531 -0.04199219 C24.82470563 -0.03050608 28.60453144 -0.05071265 32.38516903 -0.07990932 C35.30296194 -0.09830351 38.22053224 -0.09797253 41.13836861 -0.0922718 C42.53175733 -0.09211897 43.92516151 -0.09813221 45.3184948 -0.11056328 C58.892655 -0.21461173 58.892655 -0.21461173 63.65258789 4.40405273 C66.87919471 7.84485215 67.03136821 10.35217069 67.04077148 15.00512695 C67.04602844 15.6593161 67.0512854 16.31350525 67.05670166 16.98751831 C67.06987839 19.14483701 67.06117048 21.30141433 67.05102539 23.45874023 C67.0530473 24.96322775 67.05595971 26.46771432 67.0597229 27.97219849 C67.06414349 31.12454565 67.05772578 34.27663761 67.04370117 37.42895508 C67.02663859 41.45958299 67.03643312 45.48961028 67.05441856 49.52021599 C67.06528888 52.6275785 67.06179474 55.73480001 67.05403519 58.8421669 C67.05204061 60.32764889 67.05446629 61.81314388 67.06147385 63.29861069 C67.06913893 65.380812 67.05741399 67.46205876 67.04077148 69.54418945 C67.0383847 70.72681366 67.03599792 71.90943787 67.03353882 73.12789917 C66.46729724 77.9975405 64.76864954 81.26905874 61.34985352 84.74584961 C56.09233372 87.85560294 49.398362 86.97564916 43.49633789 86.93530273 C42.10680877 86.93800069 40.71728149 86.94188564 39.32775879 86.94689941 C36.42266781 86.95278035 33.51807047 86.94427784 30.61303711 86.92553711 C26.90063938 86.90274731 23.1893985 86.9158781 19.47704315 86.93982697 C16.60983663 86.95432366 13.74290162 86.94966149 10.87568665 86.9393158 C9.50742962 86.93665914 8.13914744 86.93988076 6.7709198 86.94923401 C-5.21667346 87.01320981 -5.21667346 87.01320981 -9.04467773 84.68334961 C-12.33600239 81.42552444 -14.17004554 78.8879472 -14.72836304 74.21691895 C-14.73074982 73.01732544 -14.7331366 71.81773193 -14.7355957 70.58178711 C-14.74085266 69.91609207 -14.74610962 69.25039703 -14.75152588 68.56452942 C-14.76467393 66.37537818 -14.75600692 64.18696071 -14.74584961 61.99780273 C-14.74787185 60.4699286 -14.75078455 58.94205541 -14.75454712 57.41418457 C-14.75896341 54.21654037 -14.75256203 51.01914806 -14.73852539 47.8215332 C-14.72143366 43.72918394 -14.73127861 39.63742498 -14.74924278 35.54509735 C-14.76009956 32.39145485 -14.75662565 29.23795158 -14.74885941 26.08430481 C-14.74686262 24.57566762 -14.74929832 23.06701766 -14.75629807 21.55839539 C-14.76394407 19.44736396 -14.75226585 17.33727952 -14.7355957 15.22631836 C-14.73320892 14.02672485 -14.73082214 12.82713135 -14.72836304 11.59118652 C-14.30042063 8.01090988 -13.57659981 6.22271196 -11.34741211 3.40405273 C-7.57659812 0.46210499 -4.72311446 0.02303665 0 0 Z " fill="#FEFCFD" transform="translate(414.347412109375,732.595947265625)"/>
<path d="M0 0 C1.26165985 -0.0127597 2.5233197 -0.02551941 3.82321167 -0.03866577 C5.19740648 -0.04172352 6.57160335 -0.04395123 7.94580078 -0.04541016 C9.36060724 -0.05184048 10.77541237 -0.05856901 12.19021606 -0.06558228 C15.15418581 -0.07754725 18.11803907 -0.08126393 21.08203125 -0.08007812 C24.87062446 -0.07987502 28.65846685 -0.10717114 32.44688225 -0.14162254 C35.3689412 -0.16391658 38.2908202 -0.16791491 41.21295547 -0.16685867 C42.60914827 -0.1692111 44.00534629 -0.17801453 45.40145493 -0.19352341 C47.35868334 -0.21322941 49.31613293 -0.20481104 51.2734375 -0.1953125 C52.94078445 -0.19958755 52.94078445 -0.19958755 54.64181519 -0.20394897 C59.54121838 0.57146962 62.56320264 2.7721663 65.61685181 6.62660217 C67.02573898 9.8923255 67.14698812 12.35799214 67.15429688 15.91333008 C67.15955383 16.55791168 67.16481079 17.20249329 67.17022705 17.86660767 C67.18337285 19.98602927 67.17470796 22.10469255 67.16455078 24.22412109 C67.16657334 25.70475915 67.1694863 27.18539623 67.17324829 28.66603088 C67.17766449 31.765325 67.17126447 34.86435922 67.15722656 37.96362305 C67.14014977 41.92584438 67.1499703 45.88745533 67.16794395 49.8496542 C67.17881381 52.90640311 67.1753206 55.96300868 67.16756058 59.01976204 C67.16556662 60.48012426 67.16798946 61.94049972 67.17499924 63.40084648 C67.18266527 65.44702197 67.17093886 67.49222643 67.15429688 69.53833008 C67.1519101 70.70017319 67.14952332 71.8620163 67.14706421 73.05906677 C66.57616006 77.90182761 64.86208955 81.17384814 61.46557617 84.63452148 C56.19946546 87.74951663 49.48410888 86.84020984 43.57470703 86.78662109 C42.18278427 86.78677624 40.79086107 86.78826772 39.39894104 86.79103088 C36.48964207 86.79241152 33.58083811 86.77991255 30.67163086 86.75708008 C26.95031324 86.72866919 23.22981573 86.73144406 19.50843716 86.74417019 C16.63699894 86.75113781 13.76574897 86.74332632 10.89433479 86.73091316 C9.52246893 86.726411 8.15058277 86.72605104 6.77871513 86.72997856 C4.85968554 86.73290174 2.94066019 86.71418444 1.02172852 86.69458008 C-0.06825943 86.68917709 -1.15824738 86.68377411 -2.28126526 86.6782074 C-6.52733391 86.12069735 -9.18410504 84.49027784 -11.98388672 81.29052734 C-14.37582207 77.46343078 -14.37417156 74.2163002 -14.41088867 69.80297852 C-14.41745987 69.14893539 -14.42403107 68.49489227 -14.43080139 67.82102966 C-14.45049687 65.65851724 -14.46218853 63.49607414 -14.47216797 61.33349609 C-14.4762435 60.59352198 -14.48031902 59.85354786 -14.48451805 59.09115028 C-14.50536282 55.17445786 -14.51967138 51.25780031 -14.52905273 47.34106445 C-14.5401139 43.30251962 -14.57451431 39.26452626 -14.61422443 35.22617626 C-14.6404096 32.11455788 -14.64874621 29.00307056 -14.65233421 25.8913517 C-14.65719532 24.40304146 -14.66879585 22.91473689 -14.68737221 21.42653465 C-14.71180611 19.33933561 -14.71079208 17.253559 -14.70385742 15.16625977 C-14.70972366 13.98061935 -14.7155899 12.79497894 -14.72163391 11.57341003 C-14.12314187 7.54513638 -12.81022548 5.41753636 -10.23388672 2.29052734 C-6.98815883 -0.07669609 -3.94352483 0.02708519 0 0 Z " fill="#FEFCFD" transform="translate(728.23388671875,592.70947265625)"/>
<path d="M0 0 C1.89237648 -0.01902626 1.89237648 -0.01902626 3.82298279 -0.03843689 C5.19196741 -0.03638523 6.56095091 -0.03339703 7.92993164 -0.02954102 C9.34331004 -0.03410568 10.75668622 -0.0394121 12.1700592 -0.04542542 C15.12811313 -0.05434564 18.08589692 -0.05194622 21.04394531 -0.04199219 C24.82470563 -0.03050608 28.60453144 -0.05071265 32.38516903 -0.07990932 C35.30296194 -0.09830351 38.22053224 -0.09797253 41.13836861 -0.0922718 C42.53175733 -0.09211897 43.92516151 -0.09813221 45.3184948 -0.11056328 C57.54232192 -0.20426117 57.54232192 -0.20426117 61.36572266 2.12255859 C65.76237105 6.5088807 67.02802632 9.82698015 67.04077148 16.02685547 C67.04602844 16.67143707 67.0512854 17.31601868 67.05670166 17.98013306 C67.06984746 20.09955466 67.06118257 22.21821794 67.05102539 24.33764648 C67.05304795 25.81828454 67.05596091 27.29892162 67.0597229 28.77955627 C67.0641391 31.87885039 67.05773908 34.97788461 67.04370117 38.07714844 C67.02662438 42.03936977 67.03644491 46.00098072 67.05441856 49.96317959 C67.06528842 53.0199285 67.06179521 56.07653407 67.05403519 59.13328743 C67.05204123 60.59364965 67.05446407 62.05402511 67.06147385 63.51437187 C67.06913988 65.56054736 67.05741347 67.60575182 67.04077148 69.65185547 C67.0383847 70.81369858 67.03599792 71.97554169 67.03353882 73.17259216 C66.46257679 78.01584397 64.75016671 81.2878551 61.34985352 84.74584961 C56.09233372 87.85560294 49.398362 86.97564916 43.49633789 86.93530273 C42.10680877 86.93800069 40.71728149 86.94188564 39.32775879 86.94689941 C36.42266781 86.95278035 33.51807047 86.94427784 30.61303711 86.92553711 C26.90063938 86.90274731 23.1893985 86.9158781 19.47704315 86.93982697 C16.60983663 86.95432366 13.74290162 86.94966149 10.87568665 86.9393158 C9.50742962 86.93665914 8.13914744 86.93988076 6.7709198 86.94923401 C-5.21140159 87.01318168 -5.21140159 87.01318168 -9.04467773 84.74584961 C-13.54018241 80.17408531 -14.72283077 75.8688166 -14.7355957 69.56005859 C-14.74085266 68.9039711 -14.74610962 68.24788361 -14.75152588 67.57191467 C-14.76464309 65.42066065 -14.75601907 63.27015696 -14.74584961 61.11889648 C-14.7478725 59.61487182 -14.75078573 58.11084811 -14.75454712 56.60682678 C-14.75895902 53.46223568 -14.75257536 50.31790103 -14.73852539 47.17333984 C-14.72141913 43.14939728 -14.73129055 39.12605443 -14.74924278 35.10213375 C-14.76009889 31.99910487 -14.75662622 28.89621749 -14.74885941 25.79318428 C-14.7468632 24.30966686 -14.74929627 22.82613644 -14.75629807 21.3426342 C-14.76394467 19.26762869 -14.75226582 17.19358638 -14.7355957 15.11865234 C-14.73320892 13.93983994 -14.73082214 12.76102753 -14.72836304 11.54649353 C-14.29757712 7.99296694 -13.55700883 6.20625517 -11.34741211 3.40405273 C-7.57659812 0.46210499 -4.72311446 0.02303665 0 0 Z " fill="#FEFDFD" transform="translate(728.347412109375,469.595947265625)"/>
<path d="M0 0 C1.30508011 -0.00960754 2.61016022 -0.01921509 3.95478821 -0.02911377 C5.38676784 -0.033962 6.8187495 -0.03824076 8.25073242 -0.04199219 C9.71563214 -0.04774413 11.18053184 -0.05350186 12.64543152 -0.05926514 C15.71967927 -0.06977689 18.79390086 -0.07561813 21.86816406 -0.07910156 C25.80248606 -0.08458098 29.73646104 -0.10859607 33.67067432 -0.13707352 C36.69818623 -0.15572386 39.72561505 -0.1609068 42.75317955 -0.16243744 C44.20322246 -0.16546006 45.65326404 -0.17347545 47.1032505 -0.18662262 C49.13516998 -0.20372818 51.16723257 -0.19995154 53.19921875 -0.1953125 C54.35456619 -0.19895813 55.50991364 -0.20260376 56.70027161 -0.20635986 C61.05331701 0.31077242 63.50207761 1.88326377 66.5819397 4.93032837 C68.24928009 7.99983539 68.17494452 10.36815362 68.18188477 13.85400391 C68.18714172 14.51794662 68.19239868 15.18188934 68.19781494 15.86595154 C68.21099316 18.05573216 68.20228321 20.24478257 68.19213867 22.43457031 C68.19416053 23.96147806 68.1970729 25.48838486 68.20083618 27.01528931 C68.20525697 30.21471352 68.19883838 33.41388629 68.18481445 36.61328125 C68.16775145 40.70444024 68.17754658 44.79500752 68.19553185 48.88614464 C68.20640124 52.03982963 68.20290845 55.19337567 68.19514847 58.34706497 C68.19315366 59.85487565 68.19558038 61.36269913 68.20258713 62.87049484 C68.21025071 64.98382429 68.19852925 67.09621283 68.18188477 69.20947266 C68.17949799 70.40986176 68.17711121 71.61025085 68.1746521 72.84701538 C67.64528059 77.45233127 66.23590724 80.66779159 63.0072937 84.01087952 C60.02223181 85.56201291 57.73610778 85.549338 54.3762207 85.56518555 C53.07451935 85.57786972 51.77281799 85.59055389 50.43167114 85.60362244 C49.0132837 85.60157065 47.59489735 85.59858233 46.17651367 85.59472656 C44.71686561 85.59928956 43.2572197 85.60459548 41.7975769 85.61061096 C38.73939281 85.61954094 35.68146984 85.61712132 32.62329102 85.60717773 C28.71359774 85.59570134 24.80480945 85.61587848 20.89523506 85.64509487 C17.88050656 85.66348807 14.86599355 85.66315807 11.85122299 85.65745735 C10.41038623 85.65730444 8.96953457 85.66332354 7.52875137 85.67574883 C5.50920864 85.69070901 3.4895169 85.67732588 1.4699707 85.6628418 C0.32287628 85.66267563 -0.82421814 85.66250946 -2.006073 85.66233826 C-6.56725162 84.94798631 -9.79038753 83.06797686 -12.56214905 79.33517456 C-13.4602742 76.30395164 -13.48504474 73.53805246 -13.51269531 70.37646484 C-13.52101883 69.70276855 -13.52934235 69.02907227 -13.53791809 68.33496094 C-13.56196825 66.11289654 -13.57078381 63.89112596 -13.57739258 61.66894531 C-13.58636259 60.11961786 -13.5954845 58.57029128 -13.60475159 57.02096558 C-13.62123047 53.77453509 -13.6289397 50.5282076 -13.63183594 47.28173828 C-13.63721932 43.12983371 -13.67490083 38.97890227 -13.7205801 34.82727242 C-13.75038063 31.62727355 -13.75756012 28.42750821 -13.75856209 25.22738266 C-13.76275835 23.69719866 -13.77516898 22.16701358 -13.79607964 20.63696671 C-13.82305997 18.49212118 -13.81815202 16.34952067 -13.80566406 14.20458984 C-13.81073471 12.98643585 -13.81580536 11.76828186 -13.82102966 10.51321411 C-12.99885235 6.02994266 -11.38540671 4.38292826 -8.20629883 1.16113281 C-5.41895988 -0.23253666 -3.11858158 0.0184687 0 0 Z " fill="#FEFDFD" transform="translate(413.206298828125,363.8388671875)"/>
<path d="M0 0 C1.95255203 -0.01902626 1.95255203 -0.01902626 3.94454956 -0.03843689 C5.362937 -0.0363851 6.78132335 -0.03339679 8.19970703 -0.02954102 C9.65935509 -0.03410401 11.119001 -0.03940994 12.5786438 -0.04542542 C15.6368279 -0.05435539 18.69475086 -0.05193577 21.75292969 -0.04199219 C25.66262296 -0.03051579 29.57141125 -0.05069293 33.48098564 -0.07990932 C36.49571414 -0.09830252 39.51022715 -0.09797252 42.52499771 -0.0922718 C43.96583448 -0.0921189 45.40668613 -0.09813799 46.84746933 -0.11056328 C48.86701206 -0.12552347 50.8867038 -0.11214033 52.90625 -0.09765625 C54.05334442 -0.09749008 55.20043884 -0.09732391 56.3822937 -0.09715271 C60.94696148 0.61774569 64.17580898 2.49805975 66.93936157 6.24247742 C67.82214405 9.20940146 67.85301005 11.89311811 67.87304688 14.98925781 C67.8797641 15.64184067 67.88648132 16.29442352 67.8934021 16.96678162 C67.91236243 19.11912707 67.91630549 21.27116026 67.91845703 23.42358398 C67.92488727 24.92567572 67.9316158 26.42776622 67.93862915 27.92985535 C67.95059765 31.07794089 67.95431052 34.22591675 67.953125 37.37402344 C67.95292205 41.39566923 67.9802009 45.41660649 68.01466942 49.4380846 C68.03697885 52.54118539 68.04096129 55.6441169 68.03990555 58.74728966 C68.04225632 60.22917811 68.05105031 61.71107159 68.06657028 63.19288063 C68.20724894 78.01446804 68.20724894 78.01446804 63.58251953 83.40405273 C59.71804973 85.38294217 56.45138202 85.66972394 52.14331055 85.71044922 C50.86170547 85.72643661 49.5801004 85.74242401 48.25965881 85.75889587 C46.8685852 85.76527231 45.47750679 85.77066513 44.08642578 85.77514648 C42.65062876 85.7841204 41.21483266 85.79324238 39.77903748 85.80250549 C36.77397393 85.81896444 33.7690214 85.82669019 30.76391602 85.82958984 C26.9225252 85.83497735 23.0821841 85.87268382 19.24108982 85.91833401 C16.27699511 85.94814356 13.31315237 85.95531419 10.34892082 85.95631599 C8.9331677 85.96050894 7.5174132 85.97290627 6.10180855 85.99383354 C-6.33354739 86.16307546 -6.33354739 86.16307546 -10.26928711 83.05664062 C-13.55503264 78.99940399 -13.54932988 75.99114811 -13.57861328 70.91650391 C-13.58357819 70.26246078 -13.58854309 69.60841766 -13.59365845 68.93455505 C-13.60825596 66.77203312 -13.61507843 64.60958458 -13.62060547 62.44702148 C-13.62635944 60.94110615 -13.63211714 59.43519082 -13.63787842 57.92927551 C-13.64838191 54.77104349 -13.65422866 51.61283687 -13.65771484 48.45458984 C-13.66319455 44.41614582 -13.68721384 40.3780398 -13.7156868 36.33970165 C-13.73435152 33.22808363 -13.73952084 30.11654635 -13.74105072 27.00487709 C-13.74406975 25.51658597 -13.75207293 24.02829602 -13.7652359 22.54006004 C-13.78237545 20.45304366 -13.78039738 18.36684421 -13.77392578 16.27978516 C-13.77757141 15.09414474 -13.78121704 13.90850433 -13.78497314 12.68693542 C-13.2707448 8.09323485 -11.84930078 4.88663996 -8.631073 1.55430603 C-5.6460111 0.00317264 -3.35988708 0.01584755 0 0 Z " fill="#FEFEFE" transform="translate(413.41748046875,486.595947265625)"/>
<path d="M0 0 C1.28505936 -0.00960754 2.57011871 -0.01921509 3.89411926 -0.02911377 C5.30400414 -0.03396202 6.71389107 -0.03824079 8.1237793 -0.04199219 C9.56625877 -0.04774422 11.00873822 -0.05350195 12.45121765 -0.05926514 C15.47838701 -0.06977667 18.5055298 -0.07561805 21.53271484 -0.07910156 C25.40650507 -0.08458076 29.27994281 -0.10859544 33.15362263 -0.13707352 C36.13481155 -0.15572534 39.1159161 -0.16090688 42.09715843 -0.16243744 C43.52487295 -0.16545976 44.95258613 -0.17347413 46.3802433 -0.18662262 C48.38102865 -0.20373114 50.38195938 -0.19995111 52.3828125 -0.1953125 C53.52039505 -0.19895813 54.6579776 -0.20260376 55.83003235 -0.20635986 C60.15355997 0.31364752 62.60444218 1.90054074 65.67175293 4.91885376 C67.36025496 8.0382012 67.28127992 10.49846009 67.30541992 14.03759766 C67.31388947 14.72104752 67.32235901 15.40449738 67.33108521 16.10865784 C67.354444 18.36331908 67.3554776 20.61729731 67.35424805 22.87207031 C67.36135112 24.4438199 67.36905033 26.0155669 67.37731934 27.58731079 C67.39076209 30.88087165 67.39233427 34.17419283 67.38647461 37.46777344 C67.38058317 41.68025541 67.41114646 45.89158297 67.45159149 50.10384178 C67.4774947 53.35019076 67.48034351 56.59626289 67.47669983 59.84270096 C67.47838912 61.39519778 67.4880134 62.94770765 67.50584412 64.500103 C67.52808496 66.67613714 67.51830973 68.8498499 67.50073242 71.02587891 C67.50278687 72.26179779 67.50484131 73.49771667 67.50695801 74.77108765 C66.6750764 79.3089765 65.14960162 80.93707659 61.88549805 84.16113281 C58.59083557 85.25935364 56.12718937 85.30135497 52.6574707 85.32226562 C51.37248688 85.33187317 50.08750305 85.34148071 48.76358032 85.35137939 C47.35890887 85.35622729 45.95423535 85.36050614 44.54956055 85.36425781 C43.10851032 85.37001159 41.66746011 85.3757693 40.22640991 85.38153076 C37.20521692 85.39203209 34.18405047 85.39788048 31.1628418 85.40136719 C27.29692736 85.40685119 23.43136526 85.43088048 19.56556129 85.45933914 C16.58866357 85.47798847 13.61185034 85.48317232 10.63489914 85.48470306 C9.20997567 85.48772478 7.78505352 85.49573714 6.36018753 85.50888824 C4.36430105 85.52599531 2.36826886 85.52221695 0.37231445 85.51757812 C-0.76225189 85.52122375 -1.89681824 85.52486938 -3.06576538 85.52862549 C-6.60174218 85.1024012 -8.35134279 84.40442829 -11.11450195 82.16113281 C-13.90376654 77.84624665 -14.50073281 74.43506712 -14.55029297 69.34887695 C-14.5603688 68.69600204 -14.57044464 68.04312714 -14.58082581 67.37046814 C-14.60914223 65.2288973 -14.61517334 63.08803502 -14.6184082 60.94628906 C-14.62805921 59.44705422 -14.63815242 57.94782217 -14.64866638 56.44859314 C-14.66658575 53.31242322 -14.67219163 50.17650067 -14.67041016 47.0402832 C-14.67010518 43.03402377 -14.71109002 39.02935826 -14.76272678 35.0234766 C-14.79618291 31.92891746 -14.80216501 28.83474028 -14.80058098 25.74001884 C-14.80410584 24.26368137 -14.81729 22.78733239 -14.84057808 21.31117439 C-15.02582107 8.35939158 -15.02582107 8.35939158 -11.19628906 3.7644043 C-7.52983141 0.29144684 -5.02275883 0.03021101 0 0 Z " fill="#FEFDFD" transform="translate(298.114501953125,486.8388671875)"/>
<path d="M0 0 C1.89248978 -0.01429802 1.89248978 -0.01429802 3.82321167 -0.02888489 C5.19740832 -0.02862342 6.57160499 -0.02768618 7.94580078 -0.02612305 C9.36060715 -0.03001225 10.77541236 -0.03434738 12.19021606 -0.03910828 C15.15419297 -0.04656399 18.11805075 -0.04628433 21.08203125 -0.04101562 C24.87050519 -0.0352272 28.65848925 -0.05213943 32.44688225 -0.0753603 C35.36893541 -0.09013203 38.29087159 -0.0909646 41.21295547 -0.08785057 C42.60913181 -0.08836224 44.00531497 -0.09357087 45.40145493 -0.10366249 C47.35874413 -0.11607247 49.31613257 -0.10727138 51.2734375 -0.09765625 C52.38500214 -0.09828568 53.49656677 -0.0989151 54.64181519 -0.0995636 C59.37618848 0.4675096 62.57516291 1.81388353 65.61585999 5.54348755 C67.01253913 8.85977372 67.15363362 11.37561302 67.17016602 14.97338867 C67.17702927 15.62611755 67.18389252 16.27884644 67.19096375 16.95135498 C67.20918986 19.0984097 67.20539996 21.24473059 67.19970703 23.3918457 C67.20427156 24.89250932 67.20957794 26.39317084 67.21559143 27.89382935 C67.22451479 31.03599549 67.22210922 34.17790739 67.2121582 37.32006836 C67.20068147 41.33387874 67.22086304 45.34680763 67.25007534 49.36050224 C67.26848236 52.4593355 67.2681358 55.5579594 67.26243782 58.65683365 C67.26228509 60.13591878 67.26828948 61.61501854 67.28072929 63.09405136 C67.38646421 77.72861039 67.38646421 77.72861039 62.76611328 83.2746582 C59.35297789 85.52833165 56.38032839 85.54360701 52.34863281 85.58105469 C50.39608078 85.60503578 50.39608078 85.60503578 48.40408325 85.62950134 C46.98570142 85.63587822 45.56731487 85.64127091 44.14892578 85.64575195 C42.68927927 85.65472288 41.22963368 85.66384481 39.76998901 85.67311096 C36.71187102 85.68958682 33.65386232 85.6972985 30.59570312 85.70019531 C26.68590933 85.70557819 22.7771492 85.7432584 18.86764717 85.78893948 C15.85293875 85.81875023 12.83847808 85.82591972 9.8236351 85.82692146 C8.38276306 85.83111578 6.94188975 85.84351863 5.50116348 85.86443901 C-7.16525327 86.03372816 -7.16525327 86.03372816 -11.1015625 82.92724609 C-14.40746502 78.81473969 -14.36952391 75.72157418 -14.41088867 70.58764648 C-14.41745987 69.91248993 -14.42403107 69.23733337 -14.43080139 68.54171753 C-14.45049753 66.30946741 -14.46218763 64.0772844 -14.47216797 61.8449707 C-14.4762435 61.08168331 -14.48031902 60.31839592 -14.48451805 59.53197861 C-14.50536137 55.49324567 -14.51967154 51.45454654 -14.52905273 47.41577148 C-14.54012396 43.2471001 -14.57453644 39.0789615 -14.61422443 34.91047859 C-14.6403785 31.70196547 -14.64874337 28.49357968 -14.65233421 25.28496933 C-14.65720201 23.74838531 -14.66882161 22.21180705 -14.68737221 20.6753273 C-14.71174346 18.52327518 -14.71080354 16.3726071 -14.70385742 14.22045898 C-14.70972366 12.99706818 -14.7155899 11.77367737 -14.72163391 10.51321411 C-14.13437571 6.61392253 -13.01951798 5.02298335 -10.23388672 2.2746582 C-6.92390047 -0.02999594 -3.97080694 0.01648243 0 0 Z " fill="#FEFDFD" transform="translate(414.23388671875,609.725341796875)"/>
<path d="M0 0 C1.92240761 -0.01891296 1.92240761 -0.01891296 3.88365173 -0.03820801 C5.27473502 -0.03104719 6.66581328 -0.02284295 8.05688477 -0.01367188 C9.49268354 -0.0163688 10.92848053 -0.02025288 12.36427307 -0.02526855 C15.36949092 -0.03115623 18.37423222 -0.02262629 21.37939453 -0.00390625 C25.22072341 0.0188632 29.06093305 0.00576973 32.90222073 -0.01819611 C35.86636189 -0.03269202 38.83024038 -0.0280306 41.79438972 -0.01768494 C43.21009518 -0.01502701 44.62582491 -0.01825445 46.041502 -0.02760315 C48.02505882 -0.03782698 50.00869984 -0.019466 51.9921875 0 C53.68165749 0.00477356 53.68165749 0.00477356 55.40525818 0.00964355 C59.31431936 0.63887083 61.47964121 2.07129465 64.56079102 4.51757812 C66.99127794 8.16330851 66.8297929 9.93455044 66.8671875 14.28051758 C66.87551102 14.96382141 66.88383453 15.64712524 66.89241028 16.35113525 C66.91651363 18.61110123 66.92528333 20.87077847 66.93188477 23.13085938 C66.94085207 24.70403632 66.94997393 26.27721238 66.95924377 27.85038757 C66.97573806 31.14987256 66.98343445 34.44925603 66.98632812 37.7487793 C66.99170729 41.96908782 67.02936483 46.18843703 67.07507229 50.40847492 C67.10487407 53.65908759 67.11205237 56.90947035 67.11305428 60.16020775 C67.11725176 61.7155108 67.12966728 63.27081483 67.15057182 64.82598305 C67.17754904 67.0068486 67.17264443 69.18550569 67.16015625 71.36645508 C67.1652269 72.60539017 67.17029755 73.84432526 67.17552185 75.12080383 C66.35745657 79.64112874 64.76726545 81.27638739 61.56079102 84.51757812 C58.75528727 85.92033 56.40095579 85.67597545 53.26269531 85.71044922 C52.29407059 85.72271545 52.29407059 85.72271545 51.30587769 85.73522949 C49.16559781 85.76007238 47.02538422 85.77659693 44.88500977 85.79101562 C44.15390299 85.7963393 43.42279621 85.80166298 42.66953468 85.80714798 C38.79939446 85.83387543 34.92928645 85.85325111 31.05908203 85.86767578 C27.0639985 85.88431858 23.06974074 85.92909292 19.07496929 85.98004723 C16.00113492 86.01372427 12.92749641 86.02525359 9.85349464 86.03090286 C8.38107813 86.03761474 6.90867449 86.0528355 5.43643761 86.07679367 C3.37263348 86.10846092 1.31105418 86.10848174 -0.75292969 86.10107422 C-2.51259819 86.1132045 -2.51259819 86.1132045 -4.30781555 86.12557983 C-8.38898556 85.33316636 -9.81643188 83.66788438 -12.43920898 80.51757812 C-14.82164261 76.94392768 -14.69708982 75.36583881 -14.71386719 71.12182617 C-14.71897812 70.47753662 -14.72408905 69.83324707 -14.72935486 69.16943359 C-14.7432551 67.0392935 -14.74229334 64.90947695 -14.73999023 62.77929688 C-14.74387797 61.29580058 -14.7482128 59.81230539 -14.75297546 58.32881165 C-14.76043934 55.21762487 -14.76014598 52.10655156 -14.75488281 48.99536133 C-14.74909885 45.01741795 -14.76599191 41.0399418 -14.78922749 37.06207561 C-14.80399702 33.99676315 -14.80483198 30.93156222 -14.80171776 27.86622047 C-14.80222972 26.40026743 -14.80744389 24.93430794 -14.81752968 23.46838951 C-14.82993489 21.41246079 -14.82307836 19.35742919 -14.81152344 17.30151367 C-14.81215286 16.13363815 -14.81278229 14.96576263 -14.81343079 13.76249695 C-14.24307725 8.81689807 -12.61755316 5.72562621 -9.15415955 2.17492676 C-5.85274505 0.15956969 -3.85185959 0.01089104 0 0 Z " fill="#FEFDFD" transform="translate(298.439208984375,609.482421875)"/>
<path d="M0 0 C1.30508011 -0.00960754 2.61016022 -0.01921509 3.95478821 -0.02911377 C5.38676784 -0.033962 6.8187495 -0.03824076 8.25073242 -0.04199219 C9.71563214 -0.04774413 11.18053184 -0.05350186 12.64543152 -0.05926514 C15.71967927 -0.06977689 18.79390086 -0.07561813 21.86816406 -0.07910156 C25.80248606 -0.08458098 29.73646104 -0.10859607 33.67067432 -0.13707352 C36.69818623 -0.15572386 39.72561505 -0.1609068 42.75317955 -0.16243744 C44.20322246 -0.16546006 45.65326404 -0.17347545 47.1032505 -0.18662262 C49.13516998 -0.20372818 51.16723257 -0.19995154 53.19921875 -0.1953125 C54.35456619 -0.19895813 55.50991364 -0.20260376 56.70027161 -0.20635986 C60.2625811 0.21683472 62.01458628 0.89821087 64.79370117 3.16113281 C67.58296576 7.47601898 68.17993203 10.88719851 68.22949219 15.97338867 C68.23956802 16.62626358 68.24964386 17.27913849 68.26002502 17.95179749 C68.28834144 20.09336833 68.29437256 22.2342306 68.29760742 24.37597656 C68.30725843 25.8752114 68.31735164 27.37444345 68.3278656 28.87367249 C68.34578497 32.00984241 68.35139084 35.14576495 68.34960938 38.28198242 C68.3493044 42.28824185 68.39028924 46.29290736 68.441926 50.29878902 C68.47538213 53.39334816 68.48136423 56.48752535 68.4797802 59.58224678 C68.48330506 61.05858426 68.49648922 62.53493323 68.5197773 64.01109123 C68.70497405 76.9596412 68.70497405 76.9596412 64.93798828 81.55786133 C61.22225282 85.156656 57.68714292 85.29375679 52.67333984 85.33813477 C50.78073677 85.35738762 50.78073677 85.35738762 48.84989929 85.37702942 C47.4704935 85.38519732 46.09108326 85.39264095 44.71166992 85.39941406 C44.01582605 85.40348959 43.31998219 85.40756512 42.60305214 85.41176414 C38.91977869 85.43260609 35.23654228 85.44691575 31.55322266 85.45629883 C27.75679848 85.46735825 23.96096124 85.50175719 20.16474438 85.54147053 C17.23841797 85.56766541 14.31223083 85.57599316 11.3857975 85.57958031 C9.98679962 85.58443907 8.58780766 85.59603296 7.18892479 85.6146183 C5.22684316 85.63906553 3.26447482 85.63561946 1.30224609 85.63110352 C-0.36962517 85.63990288 -0.36962517 85.63990288 -2.07527161 85.64888 C-6.59991545 84.9440371 -9.815355 83.03435252 -12.56214905 79.33517456 C-13.4602742 76.30395164 -13.48504474 73.53805246 -13.51269531 70.37646484 C-13.52101883 69.70276855 -13.52934235 69.02907227 -13.53791809 68.33496094 C-13.56196825 66.11289654 -13.57078381 63.89112596 -13.57739258 61.66894531 C-13.58636259 60.11961786 -13.5954845 58.57029128 -13.60475159 57.02096558 C-13.62123047 53.77453509 -13.6289397 50.5282076 -13.63183594 47.28173828 C-13.63721932 43.12983371 -13.67490083 38.97890227 -13.7205801 34.82727242 C-13.75038063 31.62727355 -13.75756012 28.42750821 -13.75856209 25.22738266 C-13.76275835 23.69719866 -13.77516898 22.16701358 -13.79607964 20.63696671 C-13.82305997 18.49212118 -13.81815202 16.34952067 -13.80566406 14.20458984 C-13.81073471 12.98643585 -13.81580536 11.76828186 -13.82102966 10.51321411 C-12.99885235 6.02994266 -11.38540671 4.38292826 -8.20629883 1.16113281 C-5.41895988 -0.23253666 -3.11858158 0.0184687 0 0 Z " fill="#FEFDFD" transform="translate(413.206298828125,240.8388671875)"/>
<path d="M0 0 C1.89237648 -0.01902626 1.89237648 -0.01902626 3.82298279 -0.03843689 C5.19196741 -0.03638523 6.56095091 -0.03339703 7.92993164 -0.02954102 C9.34331004 -0.03410568 10.75668622 -0.0394121 12.1700592 -0.04542542 C15.12811313 -0.05434564 18.08589692 -0.05194622 21.04394531 -0.04199219 C24.82470563 -0.03050608 28.60453144 -0.05071265 32.38516903 -0.07990932 C35.30296194 -0.09830351 38.22053224 -0.09797253 41.13836861 -0.0922718 C42.53175733 -0.09211897 43.92516151 -0.09813221 45.3184948 -0.11056328 C58.88859285 -0.21458059 58.88859285 -0.21458059 63.65258789 4.40405273 C66.08307482 8.04978312 65.92158978 9.82102504 65.95898438 14.16699219 C65.96730789 14.85029602 65.97563141 15.53359985 65.98420715 16.23760986 C66.0083105 18.49757584 66.01708021 20.75725308 66.02368164 23.01733398 C66.03264894 24.59051093 66.04177081 26.16368699 66.05104065 27.73686218 C66.06753493 31.03634716 66.07523133 34.33573064 66.078125 37.63525391 C66.08350416 41.85556242 66.12116171 46.07491164 66.16686916 50.29494953 C66.19667094 53.5455622 66.20384925 56.79594496 66.20485115 60.04668236 C66.20904863 61.60198541 66.22146416 63.15728944 66.2423687 64.71245766 C66.26934591 66.89332321 66.2644413 69.0719803 66.25195312 71.25292969 C66.25702377 72.49186478 66.26209442 73.73079987 66.26731873 75.00727844 C65.44438425 79.55450873 63.92284796 81.17634843 60.65258789 84.40405273 C57.34071382 85.50801076 54.82194517 85.55792952 51.33276367 85.59692383 C49.37525681 85.62101822 49.37525681 85.62101822 47.37820435 85.64559937 C45.95144299 85.65708533 44.52467435 85.66769413 43.09790039 85.67749023 C42.01916468 85.68547575 42.01916468 85.68547575 40.91863632 85.69362259 C37.11333025 85.72032228 33.30805665 85.73970875 29.50268555 85.75415039 C26.35590606 85.76749869 23.20977367 85.79537047 20.06323242 85.83618164 C16.26011815 85.88550444 12.45759144 85.91027021 8.65417099 85.91737747 C7.20687314 85.9240874 5.75958828 85.93930314 4.3124733 85.96326828 C2.28561362 85.99492415 0.25830325 85.99195459 -1.76879883 85.98754883 C-3.49729568 85.99967911 -3.49729568 85.99967911 -5.26071167 86.01205444 C-9.95696892 85.08701086 -12.03005438 82.34360908 -14.64175415 78.49838257 C-15.62457304 75.58146384 -15.6177769 72.97133564 -15.63793945 69.89477539 C-15.64465668 69.25033981 -15.6513739 68.60590424 -15.65829468 67.94194031 C-15.67725029 65.81725293 -15.6811976 63.69288185 -15.68334961 61.56811523 C-15.6897794 60.08604809 -15.69650789 58.60398222 -15.70352173 57.12191772 C-15.71548848 54.01671405 -15.7192032 50.91162158 -15.71801758 47.80639648 C-15.71781445 43.836215 -15.74511169 39.86674987 -15.779562 35.89673805 C-15.80184985 32.83571121 -15.80585455 29.77485623 -15.80479813 26.71375656 C-15.80715144 25.25057889 -15.81595986 23.78739629 -15.83146286 22.32429886 C-15.85116229 20.27306882 -15.84527157 18.22337639 -15.83325195 16.17211914 C-15.83610199 15.00725983 -15.83895203 13.84240051 -15.84188843 12.64224243 C-15.08139272 7.66196476 -12.92396994 4.64326962 -8.99412537 1.55430603 C-5.81835479 0.17412608 -3.46033475 0.01687753 0 0 Z " fill="#FEFDFD" transform="translate(299.347412109375,732.595947265625)"/>
<path d="M0 0 C10.89 0 21.78 0 33 0 C33 12.21 33 24.42 33 37 C22.11 37 11.22 37 0 37 C0 24.79 0 12.58 0 0 Z " fill="#EA2C3C" transform="translate(738,617)"/>
<path d="M0 0 C10.89 0 21.78 0 33 0 C33 12.21 33 24.42 33 37 C22.11 37 11.22 37 0 37 C0 24.79 0 12.58 0 0 Z " fill="#EA2B3B" transform="translate(424,511)"/>
<path d="M0 0 C10.89 0 21.78 0 33 0 C33 12.21 33 24.42 33 37 C22.11 37 11.22 37 0 37 C0 24.79 0 12.58 0 0 Z " fill="#EA2B3B" transform="translate(738,494)"/>
<path d="M0 0 C10.89 0 21.78 0 33 0 C33 11.88 33 23.76 33 36 C22.11 36 11.22 36 0 36 C0 24.12 0 12.24 0 0 Z " fill="#EA293A" transform="translate(738,741)"/>
<path d="M0 0 C10.56 0 21.12 0 32 0 C32 12.21 32 24.42 32 37 C21.44 37 10.88 37 0 37 C0 24.79 0 12.58 0 0 Z " fill="#EA2637" transform="translate(424,757)"/>
<path d="M0 0 C10.56 0 21.12 0 32 0 C32 12.21 32 24.42 32 37 C21.44 37 10.88 37 0 37 C0 24.79 0 12.58 0 0 Z " fill="#EA2637" transform="translate(309,757)"/>
<path d="M0 0 C10.56 0 21.12 0 32 0 C32 12.21 32 24.42 32 37 C21.44 37 10.88 37 0 37 C0 24.79 0 12.58 0 0 Z " fill="#EA2738" transform="translate(424,634)"/>
<path d="M0 0 C10.56 0 21.12 0 32 0 C32 12.21 32 24.42 32 37 C21.44 37 10.88 37 0 37 C0 24.79 0 12.58 0 0 Z " fill="#EA2839" transform="translate(424,388)"/>
<path d="M0 0 C10.56 0 21.12 0 32 0 C32 12.21 32 24.42 32 37 C21.44 37 10.88 37 0 37 C0 24.79 0 12.58 0 0 Z " fill="#EA2637" transform="translate(309,388)"/>
<path d="M0 0 C10.56 0 21.12 0 32 0 C32 12.21 32 24.42 32 37 C21.44 37 10.88 37 0 37 C0 24.79 0 12.58 0 0 Z " fill="#EA2838" transform="translate(424,265)"/>
<path d="M0 0 C10.23 0 20.46 0 31 0 C32.55977064 3.11954128 32.12104126 6.42959384 32.09765625 9.8515625 C32.0962413 10.62559418 32.09482635 11.39962585 32.09336853 12.19711304 C32.08776403 14.67311442 32.07521083 17.14902588 32.0625 19.625 C32.05748558 21.30208203 32.05292257 22.97916547 32.04882812 24.65625 C32.03864336 28.77089597 32.01906894 32.88534715 32 37 C21.44 37 10.88 37 0 37 C0 24.79 0 12.58 0 0 Z " fill="#EA2536" transform="translate(309,511)"/>
<path d="M0 0 C7.363125 -0.061875 7.363125 -0.061875 14.875 -0.125 C16.42300293 -0.14320801 17.97100586 -0.16141602 19.56591797 -0.18017578 C20.77908691 -0.1851709 21.99225586 -0.19016602 23.2421875 -0.1953125 C25.11173096 -0.21102295 25.11173096 -0.21102295 27.01904297 -0.22705078 C30 0 30 0 32 2 C32.17510386 4.65291757 32.23155483 7.19986174 32.1953125 9.8515625 C32.1924826 10.62559418 32.18965271 11.39962585 32.18673706 12.19711304 C32.17552754 14.67323157 32.15042203 17.1489905 32.125 19.625 C32.11497118 21.30207812 32.10584516 22.97916189 32.09765625 24.65625 C32.07728579 28.77108387 32.03813981 32.88513866 32 37 C21.44 37 10.88 37 0 37 C0 24.79 0 12.58 0 0 Z " fill="#EA2435" transform="translate(309,634)"/>
<path d="M0 0 C10.56 0 21.12 0 32 0 C32.04586336 4.9481472 32.0857022 9.89555974 32.10986328 14.84375 C32.11993317 16.52769466 32.13358988 18.21162179 32.15087891 19.89550781 C32.17508426 22.31319501 32.18647296 24.73065143 32.1953125 27.1484375 C32.20563507 27.9036972 32.21595764 28.65895691 32.22659302 29.43710327 C32.22699318 31.2929398 32.12222716 33.1481928 32 35 C30 37 30 37 27.01904297 37.22705078 C25.77268066 37.21657715 24.52631836 37.20610352 23.2421875 37.1953125 C22.02901855 37.19031738 20.81584961 37.18532227 19.56591797 37.18017578 C18.01791504 37.16196777 16.46991211 37.14375977 14.875 37.125 C9.96625 37.08375 5.0575 37.0425 0 37 C0 24.79 0 12.58 0 0 Z " fill="#EA2435" transform="translate(309,265)"/>
<path d="M0 0 C10.56 0 21.12 0 32 0 C32 11.88 32 23.76 32 36 C21.44 36 10.88 36 0 36 C0 24.12 0 12.24 0 0 Z " fill="#EA2535" transform="translate(623,741)"/>
<path d="M0 0 C10.56 0 21.12 0 32 0 C32 11.88 32 23.76 32 36 C21.44 36 10.88 36 0 36 C0 24.12 0 12.24 0 0 Z " fill="#EA2435" transform="translate(623,618)"/>
<path d="M0 0 C10.56 0 21.12 0 32 0 C32 11.88 32 23.76 32 36 C21.44 36 10.88 36 0 36 C0 24.12 0 12.24 0 0 Z " fill="#EA2435" transform="translate(623,495)"/>
</svg>
