<?xml version="1.0" encoding="UTF-8"?>
<svg version="1.1" xmlns="http://www.w3.org/2000/svg" width="180" height="180">
<path d="M0 0 C59.4 0 118.8 0 180 0 C180 59.4 180 118.8 180 180 C120.6 180 61.2 180 0 180 C0 120.6 0 61.2 0 0 Z " fill="#F70709" transform="translate(0,0)"/>
<path d="M0 0 C1.65 1.32 3.3 2.64 5 4 C8.07986897 4.63458244 8.07986897 4.63458244 11.39453125 4.609375 C13.19760742 4.65771484 13.19760742 4.65771484 15.03710938 4.70703125 C16.28298828 4.72121094 17.52886719 4.73539063 18.8125 4.75 C20.07771484 4.77964844 21.34292969 4.80929688 22.64648438 4.83984375 C25.76438676 4.91043777 28.88154575 4.9631891 32 5 C32.1858667 5.96486328 32.3717334 6.92972656 32.56323242 7.92382812 C37.16797865 31.8915725 37.16797865 31.8915725 42.08251953 55.79711914 C43.36122945 61.82970065 44.56115692 67.87371185 45.72265625 73.9296875 C46.18380393 76.31171208 46.64575815 78.69357902 47.10791016 81.07540894 C47.40692566 82.62912129 47.70212003 84.18357475 47.99316406 85.73880005 C50.13009304 100.80286766 50.13009304 100.80286766 58.8125 112.4375 C59.43769531 112.88996094 60.06289063 113.34242187 60.70703125 113.80859375 C66.18205756 116.65336892 71.70186234 117.29854777 77.78027344 117.29052734 C78.52440491 117.29724457 79.26853638 117.30396179 80.03521729 117.31088257 C82.47667258 117.32976077 84.91785141 117.3337818 87.359375 117.3359375 C89.0717988 117.34237333 90.78422151 117.34910227 92.49664307 117.35610962 C96.08079576 117.36805757 99.66485225 117.37179309 103.24902344 117.37060547 C107.81608257 117.37040261 112.38251712 117.397681 116.94942856 117.43214989 C120.48588835 117.45451489 124.02220022 117.45844006 127.55872345 117.45738602 C129.24105222 117.45972846 130.92338593 117.46847452 132.60564423 117.48405075 C148.62992602 117.64533121 148.62992602 117.64533121 162.4375 110.25 C171.14946464 98.34667599 171.64116658 76.58656945 174.25 62.5 C174.71309688 60.01944817 175.17663519 57.53897871 175.640625 55.05859375 C176.76550425 49.04000202 177.88494326 43.02041885 179 37 C179.33 37 179.66 37 180 37 C180 80.89 180 124.78 180 170 C120.6 170 61.2 170 0 170 C0 113.9 0 57.8 0 0 Z " fill="#FEFDFD" transform="translate(0,10)"/>
<path d="M0 0 C35.97 0 71.94 0 109 0 C108.34756102 7.17682874 107.59620916 14.01661576 106.2578125 21.05078125 C106.08877411 21.95322067 105.91973572 22.8556601 105.74557495 23.78544617 C105.39021437 25.67233504 105.03212758 27.55871242 104.67138672 29.44458008 C104.12333863 32.32122033 103.59061892 35.20043685 103.05859375 38.08007812 C102.70925932 39.92465477 102.35903024 41.76906227 102.0078125 43.61328125 C101.85144318 44.46650467 101.69507385 45.31972809 101.53396606 46.19880676 C100.6220386 50.88271261 99.50631421 54.86184754 97 59 C93.94133843 60.52933078 90.74155376 60.1560998 87.38500977 60.16113281 C86.20674118 60.16858017 86.20674118 60.16858017 85.00466919 60.17617798 C82.40023938 60.19081059 79.79587045 60.19760287 77.19140625 60.203125 C75.38541156 60.20887488 73.57941689 60.21463263 71.77342224 60.22039795 C67.98460607 60.2309106 64.19581113 60.23675176 60.40698242 60.24023438 C55.5465444 60.24572433 50.68638578 60.26976185 45.8260355 60.29820633 C42.09518099 60.31680649 38.3643942 60.32203687 34.63349724 60.32357025 C32.84129239 60.32660248 31.04908889 60.33465014 29.2569294 60.34775543 C26.75252979 60.36476391 24.2488183 60.36294884 21.74438477 60.35644531 C21.00090286 60.3656601 20.25742096 60.37487488 19.4914093 60.3843689 C14.48305955 60.34351788 14.48305955 60.34351788 12.05999756 58.6204071 C10.63809471 56.44675919 10.26883043 54.56266835 9.82421875 52.00390625 C9.63883545 50.98304932 9.45345215 49.96219238 9.26245117 48.91040039 C8.97785034 47.2531897 8.97785034 47.2531897 8.6875 45.5625 C8.26333492 43.21822011 7.83613878 40.87448705 7.40625 38.53125 C7.18195312 37.30535156 6.95765625 36.07945313 6.7265625 34.81640625 C5.26626239 27.14590513 3.56257346 19.52690805 1.87963867 11.90258789 C1.6344751 10.78102295 1.38931152 9.65945801 1.13671875 8.50390625 C0.91717529 7.51205322 0.69763184 6.5202002 0.47143555 5.49829102 C0 3 0 3 0 0 Z " fill="#FEFDFD" transform="translate(54,52)"/>
<path d="M0 0 C46.2 0 92.4 0 140 0 C140 13.86 140 27.72 140 42 C137.69 40.68 135.38 39.36 133 38 C130.25844234 37.412685 130.25844234 37.412685 127.52662659 37.48101807 C126.49047714 37.46710526 125.4543277 37.45319244 124.38677979 37.43885803 C122.71334503 37.44640358 122.71334503 37.44640358 121.00610352 37.45410156 C119.81514572 37.44376389 118.62418793 37.43342621 117.3971405 37.42277527 C114.14957012 37.39842339 110.90253653 37.39150798 107.65489316 37.39249516 C104.25421275 37.38935604 100.85370178 37.36371722 97.45310974 37.34051514 C91.02180539 37.30002762 84.59060224 37.27963159 78.15919012 37.26654124 C70.83380458 37.25064651 63.50859066 37.21222059 56.18330491 37.17194796 C41.1222602 37.08964839 26.06123323 37.03549431 11 37 C10.78851318 36.0255896 10.78851318 36.0255896 10.57275391 35.03149414 C9.92372898 32.04178023 9.27436653 29.05213973 8.625 26.0625 C8.40328125 25.04091797 8.1815625 24.01933594 7.953125 22.96679688 C7.51210274 20.93679736 7.06714446 18.90764877 6.61816406 16.87939453 C6.22823244 15.06310167 5.86222054 13.24135362 5.53027344 11.41357422 C5.38364258 10.63643066 5.23701172 9.85928711 5.0859375 9.05859375 C4.97040527 8.39013428 4.85487305 7.7216748 4.73583984 7.03295898 C3.86188839 4.27790081 3.86188839 4.27790081 0 0 Z " fill="#FEFEFE" transform="translate(40,0)"/>
<path d="M0 0 C4.004793 2.0023965 6.6587028 4.17998877 9 8 C10.56840852 12.70522555 10.54895539 16.52648816 8.8125 21.1875 C6.47953993 24.80761046 3.84455245 27.07772378 0 29 C-4.55897843 29.5972791 -9.07410452 30.04461115 -13.2109375 27.80078125 C-16.30884305 25.20612196 -18.45477999 22.76918153 -20 19 C-20.45304906 13.38219162 -20.21244804 9.81867206 -17 5 C-12.08036286 -0.65758271 -7.31113855 -1.18588408 0 0 Z " fill="#F90203" transform="translate(155,143)"/>
<path d="M0 0 C3.23058788 2.42294091 4.23864118 4.02084806 5.5 7.875 C6.19487416 13.81038344 6.07524901 18.86965138 2.5 23.875 C-1.15250412 27.34487891 -4.0965683 28.17513186 -9 28.375 C-13.90028768 28.18191801 -16.81228553 27.28613589 -20.5 23.875 C-24.10057274 19.91436999 -24.00330882 15.66004341 -23.8515625 10.53515625 C-23.21571586 5.7239167 -20.91661708 3.16283371 -17.4375 0 C-11.71441685 -2.19181908 -5.77816573 -1.85726755 0 0 Z " fill="#F80303" transform="translate(76.5,144.125)"/>
<path d="M0 0 C35.97 0 71.94 0 109 0 C108.67 3.63 108.34 7.26 108 11 C107.67 11 107.34 11 107 11 C106.505 7.04 106.505 7.04 106 3 C71.68 2.67 37.36 2.34 2 2 C2.99 6.95 3.98 11.9 5 17 C5 18.65 5 20.3 5 22 C2.8612937 18.36419928 2.14844006 14.52962932 1.375 10.4375 C1.2409375 9.76525391 1.106875 9.09300781 0.96875 8.40039062 C0.41360143 5.54817325 0 2.91296494 0 0 Z " fill="#F2B6B6" transform="translate(54,52)"/>
<path d="M0 0 C0.33 0 0.66 0 1 0 C1.22245393 1.60226955 1.42746669 3.20696767 1.625 4.8125 C1.74101562 5.70582031 1.85703125 6.59914063 1.9765625 7.51953125 C2 10 2 10 0 13 C-0.45394552 15.27912938 -0.45394552 15.27912938 -0.625 17.6875 C-0.69976562 18.49574219 -0.77453125 19.30398437 -0.8515625 20.13671875 C-0.92503906 21.05904297 -0.92503906 21.05904297 -1 22 C-1.66 22 -2.32 22 -3 22 C-2.94779297 22.87398437 -2.94779297 22.87398437 -2.89453125 23.765625 C-2.69022985 29.95303895 -3.61091828 35.20407188 -5.34375 41.140625 C-6.04173742 44.1818559 -6.11040026 46.89039271 -6 50 C-5.34 50 -4.68 50 -4 50 C-4.33 51.32 -4.66 52.64 -5 54 C-5.99 54 -6.98 54 -8 54 C-9.485 54.495 -9.485 54.495 -11 55 C-13.60124803 55.09104385 -16.17511226 55.12605024 -18.77612305 55.11352539 C-19.96183899 55.11374443 -19.96183899 55.11374443 -21.17150879 55.1139679 C-23.78494 55.11327109 -26.39829999 55.10548955 -29.01171875 55.09765625 C-30.82347067 55.09579124 -32.6352231 55.09436773 -34.44697571 55.09336853 C-39.21617016 55.08954985 -43.98533418 55.07972508 -48.7545166 55.06866455 C-53.62084542 55.05843649 -58.48717916 55.05386792 -63.35351562 55.04882812 C-72.90235713 55.03810226 -82.45117603 55.0210336 -92 55 C-92 54.67 -92 54.34 -92 54 C-91.01694382 53.99413376 -90.03388763 53.98826752 -89.02104187 53.98222351 C-79.76536012 53.92505831 -70.50991473 53.85232947 -61.25447369 53.76428509 C-56.49591953 53.71952064 -51.7374522 53.68027806 -46.97875977 53.65356445 C-42.38799704 53.62759188 -37.79756734 53.5872328 -33.20701027 53.53681374 C-31.45393828 53.52010397 -29.70080863 53.50861535 -27.94766808 53.50238609 C-25.49559836 53.49278941 -23.04438858 53.4647848 -20.5925293 53.43237305 C-19.86460678 53.43380814 -19.13668427 53.43524323 -18.38670349 53.4367218 C-14.47286774 53.3661963 -14.47286774 53.3661963 -11.07048035 51.60617065 C-9.69891989 49.54825323 -9.26599407 47.79869915 -8.7890625 45.37109375 C-8.50325317 43.95957031 -8.50325317 43.95957031 -8.21166992 42.51953125 C-8.01806885 41.50246094 -7.82446777 40.48539063 -7.625 39.4375 C-7.41657471 38.39078125 -7.20814941 37.3440625 -6.9934082 36.265625 C-6.31632976 32.84608801 -5.65709806 29.42342895 -5 26 C-4.52242346 23.54291275 -4.04455725 21.08588178 -3.56640625 18.62890625 C-2.36306677 12.42200902 -1.17574722 6.21217951 0 0 Z " fill="#EC4E50" transform="translate(162,58)"/>
<path d="M0 0 C4 4 4 4 4 14 C66.865 13.505 66.865 13.505 131 13 C131.33 15.31 131.66 17.62 132 20 C131.09237411 19.35125916 130.18474823 18.70251831 129.24961853 18.03411865 C124.06330628 15.09554999 118.83185395 15.42783315 113.00610352 15.45410156 C111.81514572 15.44376389 110.62418793 15.43342621 109.3971405 15.42277527 C106.14957012 15.39842339 102.90253653 15.39150798 99.65489316 15.39249516 C96.25421275 15.38935604 92.85370178 15.36371722 89.45310974 15.34051514 C83.02180539 15.30002762 76.59060224 15.27963159 70.15919012 15.26654124 C62.83380458 15.25064651 55.50859066 15.21222059 48.18330491 15.17194796 C33.1222564 15.08964837 18.06123473 15.03629346 3 15 C2.01 10.05 1.02 5.1 0 0 Z " fill="#FEF6EE" transform="translate(48,22)"/>
<path d="M0 0 C25.74 0 51.48 0 78 0 C75 3 75 3 71.82991028 3.32279968 C70.52197006 3.29837296 69.21402985 3.27394623 67.86645508 3.2487793 C67.14425278 3.23946381 66.42205048 3.23014832 65.67796326 3.22055054 C63.29134191 3.18618094 60.90573327 3.13028883 58.51953125 3.07421875 C56.86474258 3.0461858 55.20993066 3.01949537 53.55509949 2.99409485 C49.1998807 2.92363192 44.84521689 2.83491519 40.49041748 2.74243164 C36.04653706 2.65127512 31.60237421 2.57733211 27.15820312 2.50195312 C18.43843258 2.35151 9.71917312 2.18178757 1 2 C0.67 1.34 0.34 0.68 0 0 Z " fill="#E00C0D" transform="translate(71,113)"/>
<path d="M0 0 C0.804375 1.11375 0.804375 1.11375 1.625 2.25 C5.25822625 6.45689355 8.24616613 8.77167607 13.84992981 9.50120544 C15.31623188 9.5217456 16.78294355 9.5206171 18.24926758 9.50170898 C19.05498703 9.50711197 19.86070648 9.51251495 20.69084167 9.51808167 C23.34245054 9.53054208 25.99296751 9.51409188 28.64453125 9.49609375 C30.4976965 9.49624885 32.35086207 9.49773959 34.20402527 9.50050354 C38.08513763 9.50188649 41.96588 9.48935051 45.84692383 9.46655273 C50.80313008 9.43822808 55.7587191 9.44089069 60.71497059 9.45364285 C64.54218238 9.46062574 68.36925355 9.45278004 72.19644737 9.44038582 C74.02274726 9.43589244 75.84906236 9.4355159 77.67536354 9.43945122 C80.23806866 9.44238761 82.79994847 9.42573989 85.36254883 9.40405273 C86.10622711 9.40855438 86.8499054 9.41305603 87.61611938 9.41769409 C92.49319505 9.34970489 96.48208245 8.37615207 101.04194164 6.64204502 C103 6 103 6 106 6 C106.33 4.68 106.66 3.36 107 2 C107.99 2.66 108.98 3.32 110 4 C108.87720538 4.98169476 107.75168527 5.96027298 106.625 6.9375 C105.99851562 7.48277344 105.37203125 8.02804688 104.7265625 8.58984375 C100.94538766 11.67808836 97.12472054 11.17634141 92.45458984 11.20874023 C91.12743454 11.22341591 91.12743454 11.22341591 89.77346802 11.23838806 C86.8359732 11.26837871 83.89852418 11.28974102 80.9609375 11.30859375 C79.95776112 11.31516558 78.95458473 11.3217374 77.92100906 11.32850838 C72.60799825 11.36112264 67.29500764 11.38556498 61.98193359 11.4050293 C57.58775544 11.42282443 53.19422118 11.4576132 48.80029297 11.50756836 C43.49406714 11.56782741 38.18843724 11.59851363 32.88188553 11.60820198 C30.86209816 11.61675059 28.84232644 11.63555401 26.82273483 11.6649456 C23.98838156 11.70396362 21.15633657 11.70488118 18.32177734 11.69702148 C17.4934137 11.71702209 16.66505005 11.73702271 15.81158447 11.75762939 C10.19418826 11.68801855 7.0035907 10.16002744 2.61759377 6.67862034 C0.90502076 4.90143751 -0.02461709 3.25442502 -1 1 C-0.67 0.67 -0.34 0.34 0 0 Z " fill="#E60D10" transform="translate(54,115)"/>
<path d="M0 0 C0.99 0 1.98 0 3 0 C3.33 0.66 3.66 1.32 4 2 C40.3 1.67 76.6 1.34 114 1 C114 3.64 114 6.28 114 9 C113.67 9 113.34 9 113 9 C113 7.02 113 5.04 113 3 C77.03 3 41.06 3 4 3 C4.33 5.31 4.66 7.62 5 10 C4.34 9.67 3.68 9.34 3 9 C3 7.68 3 6.36 3 5 C2.34 5 1.68 5 1 5 C0.67 3.35 0.34 1.7 0 0 Z " fill="#DA1110" transform="translate(50,49)"/>
<path d="M0 0 C2.00611877 1.1966095 2.00611877 1.1966095 4 3 C4.25743103 5.23051453 4.25743103 5.23051453 3.90209961 7.85424805 C3.77374725 8.83670502 3.6453949 9.81916199 3.51315308 10.83139038 C2.61922631 16.35119547 1.64022884 21.8442417 0.56640625 27.33203125 C0.32840805 28.56741135 0.09040985 29.80279144 -0.15480042 31.0756073 C-0.78292256 34.32741172 -1.41612639 37.57817487 -2.05126953 40.82861328 C-2.56719406 43.47867823 -3.07605501 46.13007917 -3.58488369 48.78151417 C-4.19697193 51.9658249 -4.81549586 55.14888246 -5.43359375 58.33203125 C-5.77432167 60.10402641 -5.77432167 60.10402641 -6.12193298 61.91181946 C-6.44720726 63.56965706 -6.44720726 63.56965706 -6.77905273 65.26098633 C-6.96700912 66.22708328 -7.15496552 67.19318024 -7.34861755 68.18855286 C-8.04723847 71.20388706 -8.97874442 74.07969997 -10 77 C-11.11585216 73.60308276 -10.87971758 71.11142209 -10.2578125 67.61328125 C-10.07863281 66.59298828 -9.89945313 65.57269531 -9.71484375 64.52148438 C-9.52019531 63.46251953 -9.32554687 62.40355469 -9.125 61.3125 C-8.93808594 60.24193359 -8.75117188 59.17136719 -8.55859375 58.06835938 C-7.14102317 50.14102317 -7.14102317 50.14102317 -6 49 C-4.25221525 42.07491618 -3.34759806 34.94122263 -2.375 27.875 C-2.2409375 26.91851562 -2.106875 25.96203125 -1.96875 24.9765625 C-1.64322612 22.65139193 -1.32034731 20.32588839 -1 18 C-0.34 18 0.32 18 1 18 C1.02707139 15.75006641 1.04642829 13.50003905 1.0625 11.25 C1.07410156 9.99703125 1.08570313 8.7440625 1.09765625 7.453125 C1.02021027 4.71463499 0.82780815 2.58119707 0 0 Z " fill="#DB1A1F" transform="translate(176,39)"/>
<path d="M0 0 C3.23058788 2.42294091 4.23864118 4.02084806 5.5 7.875 C6.03679112 13.19178828 6.06994251 18.0563578 3.5 22.875 C3.17 22.875 2.84 22.875 2.5 22.875 C2.5 20.895 2.5 18.915 2.5 16.875 C3.16 16.875 3.82 16.875 4.5 16.875 C4.18991116 15.27036551 3.87683713 13.66630769 3.5625 12.0625 C3.38847656 11.16917969 3.21445313 10.27585938 3.03515625 9.35546875 C2.52258847 6.76102829 2.52258847 6.76102829 1.5 3.875 C0.18 3.875 -1.14 3.875 -2.5 3.875 C-2.5 2.885 -2.5 1.895 -2.5 0.875 C-4.5839403 0.98943603 -6.66716493 1.11695547 -8.75 1.25 C-10.49023438 1.35441406 -10.49023438 1.35441406 -12.265625 1.4609375 C-15.24801396 1.84274092 -17.09446805 2.09948832 -19.5 3.875 C-20.26994499 5.70142271 -20.26994499 5.70142271 -20.5 7.875 C-20.67660156 8.72578125 -20.85320313 9.5765625 -21.03515625 10.453125 C-21.20917969 11.33484375 -21.38320313 12.2165625 -21.5625 13.125 C-21.73910156 14.01703125 -21.91570313 14.9090625 -22.09765625 15.828125 C-22.23042969 16.50359375 -22.36320312 17.1790625 -22.5 17.875 C-21.84 17.875 -21.18 17.875 -20.5 17.875 C-19.84 20.185 -19.18 22.495 -18.5 24.875 C-22.48414752 21.01937337 -23.66827938 19.18128906 -23.8125 13.625 C-23.75942496 8.55633379 -23.03995551 5.70197893 -19.5 1.875 C-14.24300791 -2.90408372 -6.35458462 -2.04254506 0 0 Z " fill="#D62429" transform="translate(76.5,144.125)"/>
<path d="M0 0 C4.75880624 2.5723277 7.27599472 4.82798417 9 10 C9.39614654 15.24894167 8.86557317 18.55342094 6 23 C0.78478352 27.70641487 -2.46789261 28.32786215 -9.35546875 28.30078125 C-12 28 -12 28 -14.6875 26 C-15.120625 25.34 -15.55375 24.68 -16 24 C-14.02 24.33 -12.04 24.66 -10 25 C-10 25.33 -10 25.66 -10 26 C-8.35 26.33 -6.7 26.66 -5 27 C-5 26.34 -5 25.68 -5 25 C-4.36191406 24.82984375 -3.72382813 24.6596875 -3.06640625 24.484375 C-2.24011719 24.24203125 -1.41382813 23.9996875 -0.5625 23.75 C0.26121094 23.51796875 1.08492187 23.2859375 1.93359375 23.046875 C4.19995468 22.19229321 4.19995468 22.19229321 4.78515625 19.890625 C4.85605469 19.26671875 4.92695313 18.6428125 5 18 C5.66 18 6.32 18 7 18 C6.91266424 16.39482903 6.80447776 14.79078338 6.6875 13.1875 C6.62949219 12.29417969 6.57148438 11.40085938 6.51171875 10.48046875 C5.92578275 7.64024462 5.29075874 6.72487059 3 5 C2.01 4.67 1.02 4.34 0 4 C0 2.68 0 1.36 0 0 Z " fill="#DC1A21" transform="translate(156,144)"/>
<path d="M0 0 C0.66 0 1.32 0 2 0 C2 1.65 2 3.3 2 5 C2.66 5 3.32 5 4 5 C4.06058594 5.78246094 4.12117188 6.56492187 4.18359375 7.37109375 C4.30927734 8.88896484 4.30927734 8.88896484 4.4375 10.4375 C4.51871094 11.44683594 4.59992187 12.45617187 4.68359375 13.49609375 C4.73211468 15.93640779 4.73211468 15.93640779 6 17 C6.85932218 20.74020611 7.46506545 24.53266796 8.125 28.3125 C8.41697266 29.90094727 8.41697266 29.90094727 8.71484375 31.52148438 C8.89402344 32.54177734 9.07320312 33.56207031 9.2578125 34.61328125 C9.4242627 35.54954346 9.59071289 36.48580566 9.76220703 37.45043945 C9.99562785 39.95312288 9.77825305 41.63081412 9 44 C6.19842814 34.51534889 4.11509316 24.96026256 2.25 15.25 C2.02739502 14.09516113 1.80479004 12.94032227 1.57543945 11.75048828 C0 3.40294601 0 3.40294601 0 0 Z " fill="#DA1F22" transform="translate(43,72)"/>
<path d="M0 0 C0.33 1.65 0.66 3.3 1 5 C2.32 4.67 3.64 4.34 5 4 C7.30844801 10.34823202 7.19818283 16.29481414 7 23 C6.34 23.33 5.68 23.66 5 24 C5.02320312 23.20335937 5.04640625 22.40671875 5.0703125 21.5859375 C5.40263043 13.53443308 5.40263043 13.53443308 3 6 C1.0480428 5.0950739 1.0480428 5.0950739 -1 5 C-1.66 4.67 -2.32 4.34 -3 4 C-4.70363822 3.77377919 -6.41328701 3.59111527 -8.125 3.4375 C-9.03507812 3.35371094 -9.94515625 3.26992187 -10.8828125 3.18359375 C-11.58148438 3.12300781 -12.28015625 3.06242188 -13 3 C-13.33 2.01 -13.66 1.02 -14 0 C-9.20699867 -1.39151652 -4.84864218 -0.68662689 0 0 Z " fill="#FBEAE5" transform="translate(76,140)"/>
<path d="M0 0 C3.63090629 -0.20171702 5.93195325 -0.00197798 9 2 C10.45160248 4.85276317 11.17207892 7.91411232 12 11 C12.268125 11.886875 12.53625 12.77375 12.8125 13.6875 C13.06535948 16.80610021 12.07495306 19.09130348 11 22 C11 22.99 11 23.98 11 25 C8.69 25.66 6.38 26.32 4 27 C4.639375 26.071875 5.27875 25.14375 5.9375 24.1875 C8.9132035 19.5886855 9.3679529 16.42730522 9 11 C7.15996169 5.78655812 4.67593282 3.80555969 0 1 C0 0.67 0 0.34 0 0 Z " fill="#FDDCD6" transform="translate(155,143)"/>
<path d="M0 0 C0 0.33 0 0.66 0 1 C-3.3 1.33 -6.6 1.66 -10 2 C-10.226875 2.763125 -10.45375 3.52625 -10.6875 4.3125 C-12 7 -12 7 -14.625 8.25 C-17.19918855 9.72401332 -17.19918855 9.72401332 -17.359375 12.078125 C-17.38264607 15.68514154 -17.1467998 18.5596006 -16 22 C-16.66 22.33 -17.32 22.66 -18 23 C-20.49683175 19.25475237 -20.52892388 15.34053409 -20 11 C-18.53644389 6.85325769 -16.44357693 3.66900909 -12.9609375 0.90234375 C-8.90624204 -0.96346233 -4.35322408 -0.34856776 0 0 Z " fill="#D62128" transform="translate(155,143)"/>
<path d="M0 0 C3.29183352 0.88968473 4.72220353 1.59873843 6.6875 4.4375 C8.90689884 10.46158257 10 16.58330044 10 23 C9.34 23 8.68 23 8 23 C6.81749643 20.63499286 6.72094845 18.81915392 6.5 16.1875 C6.18489016 12.73129524 5.79016183 9.38640783 5 6 C4.34 6 3.68 6 3 6 C3 5.01 3 4.02 3 3 C2.34 3 1.68 3 1 3 C0.67 2.01 0.34 1.02 0 0 Z " fill="#DF1F27" transform="translate(38,0)"/>
<path d="M0 0 C0.33 0 0.66 0 1 0 C1.83963669 4.08206348 2.67061559 8.1658422 3.5 12.25 C3.85771484 13.98830078 3.85771484 13.98830078 4.22265625 15.76171875 C4.44824219 16.87675781 4.67382812 17.99179687 4.90625 19.140625 C5.11572266 20.16704102 5.32519531 21.19345703 5.54101562 22.25097656 C6 25 6 25 6 29 C5.34 29 4.68 29 4 29 C3.855625 27.865625 3.71125 26.73125 3.5625 25.5625 C3.38828522 22.19222799 3.38828522 22.19222799 2 21 C1.85884839 18.32941149 1.95752893 15.67567762 2 13 C1.34 13 0.68 13 0 13 C0 8.71 0 4.42 0 0 Z " fill="#FCD2CC" transform="translate(35,35)"/>
<path d="M0 0 C-1.2065625 1.175625 -1.2065625 1.175625 -2.4375 2.375 C-5.91557644 5.93790758 -6.15494783 7.51821606 -6.1875 12.375 C-6.20167969 13.33148438 -6.21585938 14.28796875 -6.23046875 15.2734375 C-5.99745572 18.03010017 -5.40920164 19.64947395 -4 22 C-4.99 22 -5.98 22 -7 22 C-9.87287007 17.51114051 -9.46824393 13.21434063 -8.39453125 8.13671875 C-6.97816904 2.59349406 -6.97816904 2.59349406 -6 0 C-3.50907189 -1.24546405 -2.58919267 -0.7767578 0 0 Z " fill="#FCDAD1" transform="translate(60,145)"/>
<path d="M0 0 C0.66 0 1.32 0 2 0 C2 0.99 2 1.98 2 3 C2.66 3 3.32 3 4 3 C4 5.64 4 8.28 4 11 C2.02 10.34 0.04 9.68 -2 9 C-2.125 6.625 -2.125 6.625 -2 4 C-1.34 3.34 -0.68 2.68 0 2 C0 1.34 0 0.68 0 0 Z " fill="#ED0708" transform="translate(140,158)"/>
<path d="M0 0 C4.75880624 2.5723277 7.27599472 4.82798417 9 10 C9.23164058 14.24674388 9.33214424 17.35602463 7 21 C5.36790602 17.73581205 6.09533031 14.2178511 6.2578125 10.62890625 C6.22567334 7.98566683 6.22567334 7.98566683 4.6796875 6.21484375 C2.90070912 4.80038436 2.90070912 4.80038436 0 4 C0 2.68 0 1.36 0 0 Z " fill="#D02126" transform="translate(156,144)"/>
<path d="M0 0 C2.64 0 5.28 0 8 0 C8 0.66 8 1.32 8 2 C7.01 2 6.02 2 5 2 C5 2.66 5 3.32 5 4 C5.66 4 6.32 4 7 4 C8.09506492 7.28519475 8.09960608 9.73663415 8.0625 13.1875 C8.05347656 14.27417969 8.04445313 15.36085938 8.03515625 16.48046875 C8.02355469 17.31191406 8.01195312 18.14335937 8 19 C7.67 19 7.34 19 7 19 C6.82984375 18.04738281 6.6596875 17.09476563 6.484375 16.11328125 C6.24203125 14.85902344 5.9996875 13.60476562 5.75 12.3125 C5.51796875 11.07113281 5.2859375 9.82976563 5.046875 8.55078125 C3.95387728 4.84356137 2.60200918 2.81167521 0 0 Z " fill="#FEE0DD" transform="translate(40,0)"/>
<path d="M0 0 C1.32 0 2.64 0 4 0 C4 0.66 4 1.32 4 2 C5.32 1.67 6.64 1.34 8 1 C10.30844801 7.34823202 10.19818283 13.29481414 10 20 C9.34 20.33 8.68 20.66 8 21 C8.02320312 20.20335937 8.04640625 19.40671875 8.0703125 18.5859375 C8.40263043 10.53443308 8.40263043 10.53443308 6 3 C4.03871245 2.1762044 4.03871245 2.1762044 2 2 C1.34 1.34 0.68 0.68 0 0 Z " fill="#FCD3CF" transform="translate(73,143)"/>
<path d="M0 0 C2.875 -0.1875 2.875 -0.1875 6 0 C6.66 0.99 7.32 1.98 8 3 C6 5 6 5 3.8359375 5.1953125 C2.61777344 5.16050781 2.61777344 5.16050781 1.375 5.125 C0.55773437 5.10695312 -0.25953125 5.08890625 -1.1015625 5.0703125 C-1.72804687 5.04710937 -2.35453125 5.02390625 -3 5 C-3 4.01 -3 3.02 -3 2 C-2.01 2 -1.02 2 0 2 C0 1.34 0 0.68 0 0 Z " fill="#FAE9E5" transform="translate(148,138)"/>
<path d="M0 0 C0.66 0.66 1.32 1.32 2 2 C1.7578125 4.05859375 1.7578125 4.05859375 1.125 6.4375 C0.42018849 9.14522523 0 11.17645985 0 14 C-2.31 14.66 -4.62 15.32 -7 16 C-6.0409375 14.6078125 -6.0409375 14.6078125 -5.0625 13.1875 C-2.91377907 10.15780057 -2.91377907 10.15780057 -2 7 C-1.34 7 -0.68 7 0 7 C0 4.69 0 2.38 0 0 Z " fill="#FDE9E5" transform="translate(166,154)"/>
<path d="M0 0 C0.99 0.33 1.98 0.66 3 1 C3 1.66 3 2.32 3 3 C3.66 3 4.32 3 5 3 C4.67 4.32 4.34 5.64 4 7 C3.01 7 2.02 7 1 7 C-1.33564933 7.31669821 -3.6693782 7.64820803 -6 8 C-5.195625 7.236875 -4.39125 6.47375 -3.5625 5.6875 C-0.83200976 3.20569102 -0.83200976 3.20569102 0 0 Z " fill="#E61616" transform="translate(153,105)"/>
<path d="M0 0 C0.33 0 0.66 0 1 0 C2.23121528 8.0296649 2.41228224 13.04731284 -2 20 C-3.31052767 15.69577494 -2.45785552 12.0629466 -1.5625 7.75 C-1.41490234 7.00492187 -1.26730469 6.25984375 -1.11523438 5.4921875 C-0.7511306 3.65992335 -0.37658591 1.82973947 0 0 Z " fill="#FCD2CC" transform="translate(172,84)"/>
<path d="M0 0 C0.33 0 0.66 0 1 0 C0.88553728 2.56336254 0.75880499 5.12513445 0.625 7.6875 C0.5940625 8.40873047 0.563125 9.12996094 0.53125 9.87304688 C0.30664413 13.97210394 -0.17740909 17.24368459 -2 21 C-2.33 21 -2.66 21 -3 21 C-2.48462048 13.86606248 -1.55994099 6.98187183 0 0 Z " fill="#D4242C" transform="translate(157,84)"/>
<path d="M0 0 C6.6 0 13.2 0 20 0 C19.67 3.3 19.34 6.6 19 10 C18.67 10 18.34 10 18 10 C17.67 7.36 17.34 4.72 17 2 C11.39 1.67 5.78 1.34 0 1 C0 0.67 0 0.34 0 0 Z " fill="#FEE1DC" transform="translate(143,53)"/>
<path d="M0 0 C0.33 0 0.66 0 1 0 C1.53132389 2.58157368 2.05034379 5.16461756 2.5625 7.75 C2.78969727 8.84441406 2.78969727 8.84441406 3.02148438 9.9609375 C3.74557178 13.66557073 4.09817231 16.39322322 3 20 C0.64641749 17.64641749 0.72128096 17.07031606 0.5859375 13.8671875 C0.54726563 13.06152344 0.50859375 12.25585938 0.46875 11.42578125 C0.4378125 10.58402344 0.406875 9.74226563 0.375 8.875 C0.33632813 8.02550781 0.29765625 7.17601563 0.2578125 6.30078125 C0.16343506 4.20088316 0.08062414 2.10047109 0 0 Z " fill="#D62D2C" transform="translate(60,83)"/>
<path d="M0 0 C3 0 3 0 6 1 C1.27236684 5.08876382 -2.3349916 5.44213694 -8.51171875 5.43359375 C-11.34301988 4.9402273 -12.24269163 4.21573665 -14 2 C-13.43796875 2.16371094 -12.8759375 2.32742187 -12.296875 2.49609375 C-9.86940944 3.02864997 -7.73110319 3.09898681 -5.25 3.0625 C-4.05117187 3.04896484 -4.05117187 3.04896484 -2.828125 3.03515625 C-1.92320313 3.01775391 -1.92320313 3.01775391 -1 3 C-0.67 2.01 -0.34 1.02 0 0 Z " fill="#D6272D" transform="translate(73,167)"/>
<path d="M0 0 C4.5 4.5 4.5 4.5 4.75 9.75 C4.80671875 10.73484375 4.8634375 11.7196875 4.921875 12.734375 C4.94765625 13.48203125 4.9734375 14.2296875 5 15 C4.34 15 3.68 15 3 15 C2.01 10.05 1.02 5.1 0 0 Z " fill="#FEE5DA" transform="translate(48,22)"/>
<path d="M0 0 C0.33 0 0.66 0 1 0 C1.31369549 9.25401683 1.31369549 9.25401683 -1 13 C-3.625 14.3125 -3.625 14.3125 -6 15 C-5.38125 14.01 -4.7625 13.02 -4.125 12 C-1.87738041 8.10253199 -0.92382899 4.3881877 0 0 Z " fill="#FDD9CF" transform="translate(168,106)"/>
<path d="M0 0 C1.32 0.66 2.64 1.32 4 2 C-3.11389522 8.70387244 -3.11389522 8.70387244 -8 9 C-7 7 -7 7 -4 6 C-3.67 5.34 -3.34 4.68 -3 4 C-2.01 4 -1.02 4 0 4 C0 2.68 0 1.36 0 0 Z " fill="#D82227" transform="translate(160,117)"/>
<path d="M0 0 C1.98 0 3.96 0 6 0 C4.625 2.5 4.625 2.5 3 5 C2.34 5 1.68 5 1 5 C1.33 5.99 1.66 6.98 2 8 C1.34 8.66 0.68 9.32 0 10 C0 6.7 0 3.4 0 0 Z " fill="#ED7271" transform="translate(0,0)"/>
<path d="M0 0 C1.14926266 0.95421808 2.29430541 1.91352045 3.4375 2.875 C4.07558594 3.40867188 4.71367187 3.94234375 5.37109375 4.4921875 C7 6 7 6 8 8 C6.68 8.33 5.36 8.66 4 9 C0 4.5 0 4.5 0 0 Z " fill="#FCE3DA" transform="translate(136,164)"/>
<path d="M0 0 C0.66 0.33 1.32 0.66 2 1 C1.67 1.61875 1.34 2.2375 1 2.875 C-0.40387684 7.26211512 -0.15967523 11.43151427 0 16 C-0.66 15.67 -1.32 15.34 -2 15 C-2.51953125 12.3828125 -2.51953125 12.3828125 -2.8125 9.125 C-2.92207031 8.05507812 -3.03164062 6.98515625 -3.14453125 5.8828125 C-3 3 -3 3 -1.51171875 1.1171875 C-1.01285156 0.74851563 -0.51398438 0.37984375 0 0 Z " fill="#FEE4DE" transform="translate(136,148)"/>
<path d="M0 0 C0.99773437 0.02320313 1.99546875 0.04640625 3.0234375 0.0703125 C4.52777344 0.09738281 4.52777344 0.09738281 6.0625 0.125 C6.83335937 0.14820313 7.60421875 0.17140625 8.3984375 0.1953125 C8.3984375 0.5253125 8.3984375 0.8553125 8.3984375 1.1953125 C5.0984375 1.5253125 1.7984375 1.8553125 -1.6015625 2.1953125 C-1.8903125 2.9996875 -2.1790625 3.8040625 -2.4765625 4.6328125 C-3.6015625 7.1953125 -3.6015625 7.1953125 -5.6015625 8.1953125 C-4.57743275 0.34365111 -4.57743275 0.34365111 0 0 Z " fill="#DC1A22" transform="translate(146.6015625,142.8046875)"/>
<path d="M0 0 C0.804375 0.474375 1.60875 0.94875 2.4375 1.4375 C6.66939929 3.29359618 10.43172078 3.70559978 15 4 C15 4.33 15 4.66 15 5 C13.06318839 5.08107583 11.1254066 5.13922475 9.1875 5.1875 C8.10855469 5.22230469 7.02960937 5.25710937 5.91796875 5.29296875 C3 5 3 5 1.11328125 3.61328125 C0 2 0 2 0 0 Z " fill="#FBD3CA" transform="translate(56,168)"/>
<path d="M0 0 C0.33 0 0.66 0 1 0 C1.05429959 1.74965358 1.09292823 3.49979787 1.125 5.25 C1.14820312 6.22453125 1.17140625 7.1990625 1.1953125 8.203125 C0.99660912 11.04855741 0.57242336 12.64136496 -1 15 C-3.125 15.75 -3.125 15.75 -5 16 C-4.360625 15.21625 -3.72125 14.4325 -3.0625 13.625 C-0.21991345 9.44649822 -0.19460806 4.92358402 0 0 Z " fill="#FDF1E8" transform="translate(83,153)"/>
<path d="M0 0 C0.33 0 0.66 0 1 0 C1 4.29 1 8.58 1 13 C0.34 13 -0.32 13 -1 13 C-1.33 13.66 -1.66 14.32 -2 15 C-1.47462276 9.9697924 -0.89405214 4.98114761 0 0 Z " fill="#FDCCC5" transform="translate(179,47)"/>
<path d="M0 0 C0.66 0.33 1.32 0.66 2 1 C1.2884375 2.051875 1.2884375 2.051875 0.5625 3.125 C-1.08739857 6.16081337 -1.60368464 8.59168786 -2 12 C-2.66 11.67 -3.32 11.34 -4 11 C-4 8.69 -4 6.38 -4 4 C-3.34 4 -2.68 4 -2 4 C-1.34 2.68 -0.68 1.36 0 0 Z " fill="#E60F10" transform="translate(5,1)"/>
<path d="M0 0 C0.33 0 0.66 0 1 0 C1 1.65 1 3.3 1 5 C1.66 5.33 2.32 5.66 3 6 C2.67 6.61875 2.34 7.2375 2 7.875 C0.85806765 9.91018344 0.85806765 9.91018344 1 12 C0.34 12 -0.32 12 -1 12 C-1.02698189 10.37509046 -1.04638757 8.75005367 -1.0625 7.125 C-1.07410156 6.22007813 -1.08570313 5.31515625 -1.09765625 4.3828125 C-1 2 -1 2 0 0 Z " fill="#FBF9F2" transform="translate(170,102)"/>
<path d="M0 0 C1.13732426 3.40401948 0.83989957 5.77456664 0.0625 9.25 C-0.13214844 10.14203125 -0.32679688 11.0340625 -0.52734375 11.953125 C-0.68332031 12.62859375 -0.83929688 13.3040625 -1 14 C-1.33 14 -1.66 14 -2 14 C-2.05389087 12.04196493 -2.09274217 10.08351091 -2.125 8.125 C-2.14820313 7.03445312 -2.17140625 5.94390625 -2.1953125 4.8203125 C-2 2 -2 2 0 0 Z " fill="#FEDBD3" transform="translate(157,80)"/>
<path d="M0 0 C0.33 0 0.66 0 1 0 C1.33 5.28 1.66 10.56 2 16 C1.01 15.34 0.02 14.68 -1 14 C-0.67 9.38 -0.34 4.76 0 0 Z " fill="#E50E0A" transform="translate(59,80)"/>
<path d="M0 0 C0.66 0 1.32 0 2 0 C2 1.65 2 3.3 2 5 C2.66 5 3.32 5 4 5 C4 7.64 4 10.28 4 13 C3.67 13 3.34 13 3 13 C3 11.35 3 9.7 3 8 C2.34 8 1.68 8 1 8 C0.67 5.36 0.34 2.72 0 0 Z " fill="#DF1413" transform="translate(43,72)"/>
<path d="M0 0 C1.33333333 0 2.66666667 0 4 0 C4.33 3.3 4.66 6.6 5 10 C4.34 9.67 3.68 9.34 3 9 C3 7.68 3 6.36 3 5 C2.34 5 1.68 5 1 5 C0.67 3.35 0.34 1.7 0 0 Z " fill="#E80F17" transform="translate(50,49)"/>
<path d="M0 0 C2 2 2 2 3 5 C0.03 4.67 -2.94 4.34 -6 4 C-4.03617993 2.49440461 -2.21736634 1.10868317 0 0 Z " fill="#FDECE8" transform="translate(77,169)"/>
<path d="M0 0 C0.33 2.31 0.66 4.62 1 7 C-2.465 5.02 -2.465 5.02 -6 3 C-2.25 0 -2.25 0 0 0 Z " fill="#FDD8D3" transform="translate(179,35)"/>
<path d="M0 0 C0.66 0.33 1.32 0.66 2 1 C2 1.66 2 2.32 2 3 C-0.35438733 4.42944945 -1.48032433 5.08661261 -4.25 4.625 C-4.8275 4.41875 -5.405 4.2125 -6 4 C-4.02 2.68 -2.04 1.36 0 0 Z " fill="#FDF0E6" transform="translate(165,119)"/>
</svg>
