<?xml version="1.0" encoding="UTF-8"?>
<svg version="1.1" xmlns="http://www.w3.org/2000/svg" width="250" height="250">
<path d="M0 0 C1.19012192 -0.00852997 2.38024384 -0.01705994 3.60643005 -0.02584839 C5.55232025 -0.02448883 5.55232025 -0.02448883 7.53752136 -0.02310181 C8.92427939 -0.02908944 10.31103409 -0.03589553 11.69778442 -0.04345703 C15.45825403 -0.06110158 19.21863257 -0.06581179 22.97913957 -0.0670886 C25.3309074 -0.06851177 27.68265219 -0.07278453 30.03441429 -0.07808304 C38.24575135 -0.09657903 46.45702354 -0.1047543 54.66838074 -0.10317993 C62.31138488 -0.10197902 69.9541064 -0.12307241 77.59703904 -0.15466726 C84.16792461 -0.18085823 90.73871803 -0.19154603 97.30965537 -0.19026911 C101.23015673 -0.18976025 105.15040692 -0.1954008 109.07085609 -0.21662521 C112.76049191 -0.23605513 116.44963821 -0.23610013 120.13929176 -0.22159195 C122.12967436 -0.21851929 124.12005725 -0.23514747 126.11036682 -0.25247192 C133.22053826 -0.20270721 138.07627402 0.30006031 144.06169128 4.26742554 C149.36407668 10.68874342 148.46237825 18.34272785 148.06169128 26.26742554 C148.66642273 26.25171509 149.27115417 26.23600464 149.89421082 26.21981812 C152.65827424 26.15710674 155.42218749 26.11832142 158.18669128 26.07992554 C159.13801941 26.05478882 160.08934753 26.0296521 161.06950378 26.00375366 C167.31376008 25.93870933 171.88775457 26.37243338 176.70622253 30.76742554 C180.73059253 35.93584721 181.20866372 39.6003205 181.19540405 45.95953369 C181.19766961 46.75077829 181.19993517 47.5420229 181.20226938 48.35724461 C181.20861605 51.01726103 181.20777958 53.67722659 181.20695496 56.33724976 C181.20994603 58.24088609 181.21334844 60.14452182 181.21713257 62.04815674 C181.22598207 67.22583887 181.22831108 72.40350448 181.22894835 77.58119345 C181.22989681 81.90037496 181.23357439 86.21955262 181.23712045 90.53873265 C181.24526865 100.72743304 181.24770435 110.9161246 181.24699402 121.10482788 C181.24639314 131.62202176 181.25694606 142.13916435 181.27273768 152.65634525 C181.28580461 161.67976622 181.29117827 170.70317041 181.29053861 179.72660077 C181.29028337 185.11857283 181.29314888 190.51049935 181.30371666 195.90246201 C181.31338336 200.97329912 181.31348663 206.04404701 181.30620003 211.11488724 C181.3051524 212.97690714 181.30752759 214.83893256 181.31356049 216.70094299 C181.32125827 219.24118426 181.31665031 221.78111568 181.30892944 224.3213501 C181.31407301 225.0595835 181.31921657 225.7978169 181.324516 226.55842102 C181.29754767 230.56886298 180.83670753 233.6555994 179.06169128 237.26742554 C178.40169128 237.26742554 177.74169128 237.26742554 177.06169128 237.26742554 C176.85544128 237.86555054 176.64919128 238.46367554 176.43669128 239.07992554 C174.5037398 242.15507563 172.38164988 242.86843743 169.06169128 244.26742554 C166.12808418 244.64774227 166.12808418 244.64774227 163.00312805 244.65510559 C161.81163147 244.66501022 160.62013489 244.67491486 159.39253235 244.68511963 C158.09886749 244.68061798 156.80520264 244.67611633 155.47233582 244.67147827 C154.08542838 244.67718544 152.69852563 244.68415104 151.31163025 244.692276 C147.55530184 244.71018619 143.79920731 244.70904291 140.04284906 244.70333362 C136.90183015 244.7002381 133.76085591 244.70633838 130.61984336 244.71237236 C123.20637839 244.72640947 115.79302867 244.72486362 108.37956238 244.71347046 C100.7439073 244.70199477 93.10860368 244.71605732 85.47299492 244.74286693 C78.90632382 244.76505597 72.33976278 244.77165398 65.77305686 244.76579052 C61.85593936 244.76242679 57.93904702 244.76479665 54.02196121 244.78204155 C50.33639372 244.79755954 46.65134479 244.7935021 42.96579742 244.7747364 C40.97782575 244.76931977 38.98983054 244.78352838 37.00190735 244.7984314 C29.89830346 244.74007729 25.04256755 244.22878334 19.06169128 240.26742554 C13.75911577 233.84639653 14.66101598 226.19189269 15.06169128 218.26742554 C14.42666687 218.2883728 13.79164246 218.30932007 13.13737488 218.3309021 C10.23731052 218.41447134 7.33750013 218.46621328 4.43669128 218.51742554 C3.43766785 218.55094116 2.43864441 218.58445679 1.40934753 218.61898804 C-4.74628733 218.70051962 -8.26271224 218.38765421 -12.93830872 214.26742554 C-17.56098595 209.14499942 -18.08714381 205.28010785 -18.08547974 198.58877563 C-18.09099477 197.40402543 -18.09099477 197.40402543 -18.09662122 196.19534087 C-18.10766328 193.54000058 -18.11150277 190.88469942 -18.11531067 188.2293396 C-18.1215749 186.32894771 -18.12822167 184.42855704 -18.13522339 182.52816772 C-18.15263618 177.35862301 -18.16318583 172.18908754 -18.17142892 167.01952076 C-18.1765783 163.79036358 -18.18265405 160.56120928 -18.18894005 157.33205414 C-18.20799259 147.23051764 -18.22222381 137.12898846 -18.23055202 127.02743745 C-18.2403268 115.36360734 -18.26665241 103.69996689 -18.30705291 92.03620362 C-18.33720233 83.0229432 -18.35201976 74.00973718 -18.35533303 64.9964273 C-18.35768476 59.61214904 -18.36666137 54.22807339 -18.3917942 48.84384918 C-18.41505945 43.7778603 -18.41931432 38.71220764 -18.40903282 33.6461792 C-18.40853698 31.78821444 -18.41487154 29.93023322 -18.42858887 28.07231903 C-18.44628972 25.53248005 -18.43921102 22.99385008 -18.42605591 20.45401001 C-18.43702515 19.72160229 -18.4479944 18.98919457 -18.45929605 18.23459268 C-18.38205933 12.04310309 -16.29406867 8.23773156 -12.50080872 3.45492554 C-8.62838142 0.51188079 -4.75221467 0.0154317 0 0 Z M-6.93830872 13.26742554 C-7.3395506 15.94518924 -7.47872345 18.21694455 -7.44624329 20.89706421 C-7.45248325 21.68155284 -7.45872321 22.46604147 -7.46515226 23.27430248 C-7.48114904 25.91163586 -7.46845236 28.54805352 -7.45588684 31.18539429 C-7.461305 33.0725763 -7.46842594 34.95975409 -7.47712708 36.84692383 C-7.49539973 41.97912035 -7.48827664 47.11099609 -7.47561073 52.24319839 C-7.46550346 57.60699598 -7.47487007 62.97076558 -7.4811554 68.33456421 C-7.48843844 77.34315944 -7.47882686 86.35162363 -7.45979309 95.36019897 C-7.43802313 105.78435995 -7.44507404 116.20820802 -7.46709871 126.63236141 C-7.485234 135.57254947 -7.4878202 144.51264317 -7.47734404 153.45284367 C-7.47109881 158.7967193 -7.47030171 164.14044772 -7.48348999 169.48431396 C-7.49502065 174.50766059 -7.48707381 179.53060269 -7.46391296 184.55390549 C-7.45861095 186.40063174 -7.46016502 188.24739187 -7.46896362 190.09410477 C-7.47984417 192.60912951 -7.46624757 195.1228462 -7.44624329 197.63778687 C-7.45516617 198.37406405 -7.46408906 199.11034124 -7.47328234 199.86892986 C-7.42488899 202.99093278 -7.33070186 204.81219738 -5.25484371 207.22046852 C-2.45001888 208.48810792 -0.44499127 208.64484192 2.63418579 208.64837646 C4.33546127 208.66106567 4.33546127 208.66106567 6.07110596 208.67401123 C7.31121933 208.66793854 8.5513327 208.66186584 9.82902527 208.65560913 C11.13830994 208.66086609 12.4475946 208.66612305 13.79655457 208.67153931 C17.38546669 208.68521395 20.97412004 208.67991343 24.56303668 208.67040205 C28.32033149 208.66280458 32.07760421 208.66985145 35.8348999 208.67456055 C42.14564489 208.68001853 48.45628455 208.67282612 54.76701355 208.65853882 C62.05954545 208.64221923 69.35182564 208.6474955 76.64435142 208.66401803 C82.90774991 208.67764018 89.17107269 208.67954881 95.4344812 208.67170203 C99.17431358 208.66702858 102.91402772 208.66639141 106.65385246 208.67631149 C110.8243737 208.68660116 114.99446242 208.67233188 119.16496277 208.65560913 C120.40305191 208.66168182 121.64114105 208.66775452 122.91674805 208.67401123 C124.05375153 208.66555176 125.190755 208.65709229 126.36221313 208.64837646 C127.34794532 208.64724539 128.3336775 208.64611431 129.34928036 208.64494896 C132.55993728 208.19807781 134.45219198 207.16124714 137.06169128 205.26742554 C138.55778316 202.27524178 138.21332959 199.20536223 138.21559143 195.9233551 C138.21997368 195.15746624 138.22435594 194.39157737 138.22887099 193.60247976 C138.24228301 191.02228673 138.2484432 188.44212787 138.25456238 185.86190796 C138.26246139 184.01753077 138.27073022 182.17315513 138.27934265 180.32878113 C138.30558383 174.26016724 138.32087139 168.19154638 138.33512878 162.12289429 C138.34048741 160.03597827 138.34586492 157.9490623 138.35126114 155.86214638 C138.37289205 147.18335538 138.39163009 138.50456626 138.40288353 129.82575512 C138.41913131 117.37599345 138.45232685 104.92654347 138.50928438 92.47689933 C138.54794372 83.72950709 138.56751141 74.98219836 138.57280409 66.23472291 C138.57646277 61.00693336 138.5885389 55.77947609 138.62090683 50.55177879 C138.65091729 45.63431452 138.65732442 40.71738479 138.64552307 35.79984856 C138.64530175 33.99425009 138.65365479 32.18862732 138.67117691 30.38311386 C138.69379122 27.91891075 138.68561121 25.45665874 138.66969299 22.9924469 C138.68357508 22.27687707 138.69745717 21.56130723 138.71175992 20.82405347 C138.65235736 17.09535722 138.1221014 15.34902823 135.8822813 12.32345295 C132.67723383 9.98718096 131.24110143 9.64315541 127.32424927 9.64596558 C126.17883163 9.63475677 125.033414 9.62354797 123.85328674 9.61199951 C121.98212692 9.63189438 121.98212692 9.63189438 120.07316589 9.65219116 C118.73902684 9.64868818 117.40489197 9.6430276 116.07077026 9.63537598 C112.45493232 9.62114454 108.83985634 9.63817155 105.22409129 9.66166115 C101.43831735 9.68178621 97.65257454 9.67588981 93.86676025 9.67355347 C87.51062978 9.67360701 81.15479681 9.69335076 74.79875183 9.72543335 C67.45106255 9.76234112 60.10376271 9.77110653 52.75599283 9.76413584 C45.6850286 9.7578305 38.61419786 9.76858462 31.54326057 9.7881012 C28.5349646 9.79627421 25.52673686 9.79898494 22.51843071 9.79740906 C18.31902781 9.79636685 14.1201385 9.82053986 9.92082214 9.84750366 C8.67135803 9.84457306 7.42189392 9.84164246 6.13456726 9.83862305 C4.99196945 9.84997284 3.84937164 9.86132263 2.67214966 9.87301636 C1.67942016 9.87674507 0.68669065 9.88047379 -0.33612156 9.88431549 C-3.52372698 10.35361443 -4.82335813 10.81139708 -6.93830872 13.26742554 Z M148.06169128 36.26742554 C148.05930293 37.13802927 148.05691458 38.008633 148.05445385 38.90561867 C147.99532157 60.08792356 147.91978281 81.2701145 147.82597637 102.4522953 C147.78100806 112.69583737 147.74159575 122.93934458 147.71525574 133.18295288 C147.69228408 142.11113184 147.65889532 151.03920061 147.61298972 159.96729219 C147.58904632 164.69479088 147.57032485 169.42218037 147.56407738 174.14973831 C147.5580316 178.60013118 147.53805005 183.05024461 147.50741577 187.50053406 C147.49862743 189.13312719 147.49491462 190.76575682 147.49668312 192.39837265 C147.49833707 194.62991793 147.48162744 196.86061254 147.4604187 199.09204102 C147.45580974 200.34014872 147.45120077 201.58825642 147.44645214 202.87418556 C147.0242388 206.59772234 145.85679507 209.01020163 144.06169128 212.26742554 C144.06169128 212.92742554 144.06169128 213.58742554 144.06169128 214.26742554 C139.74824074 216.0161217 136.16645279 217.38863081 131.48693848 217.42564392 C130.07979584 217.44032715 130.07979584 217.44032715 128.64422607 217.45530701 C127.61707993 217.46106247 126.58993378 217.46681793 125.53166199 217.4727478 C123.90703537 217.4875972 123.90703537 217.4875972 122.24958801 217.50274658 C118.66223858 217.53438609 115.07487589 217.5591288 111.48747253 217.58383179 C109.00310925 217.60439919 106.51874948 217.6253956 104.03439331 217.64680481 C98.15900804 217.69639822 92.28360183 217.74165784 86.40816611 217.78482717 C79.06281983 217.83906137 71.71753299 217.90000766 64.37223816 217.96078491 C51.26876219 218.0683934 38.16524686 218.17001897 25.06169128 218.26742554 C24.45340459 225.60010482 24.45340459 225.60010482 26.75090027 232.41448975 C32.0088786 235.35719927 37.10683145 234.96255198 43.03434753 234.91439819 C44.3535318 234.92315979 45.67271606 234.93192139 47.03187561 234.94094849 C50.64360467 234.96371306 54.2546184 234.95491797 57.86635971 234.93905306 C61.6490189 234.926379 65.43161754 234.93813833 69.21427917 234.94598389 C75.56619748 234.95507613 81.91782496 234.94310396 88.2696991 234.91928101 C95.6095501 234.89207021 102.94870666 234.9008847 110.28854084 234.92841303 C116.59446048 234.95111548 122.90017127 234.95429874 129.20611858 234.94121969 C132.97060209 234.93343128 136.73475936 234.93236637 140.4992218 234.94890213 C144.69624341 234.96605074 148.89207112 234.94227307 153.08903503 234.91439819 C154.33490387 234.92451935 155.58077271 234.9346405 156.86439514 234.94506836 C158.00836761 234.93096924 159.15234009 234.91687012 160.33097839 234.90234375 C161.3227861 234.90045862 162.31459381 234.89857349 163.3364563 234.89663124 C167.24213523 233.99488314 168.68999223 232.46577009 171.06169128 229.26742554 C171.55525418 226.49265901 171.73987908 224.33065182 171.6966095 221.56259155 C171.70440945 220.79413941 171.7122094 220.02568727 171.72024572 219.23394871 C171.74016739 216.66258668 171.72440151 214.09270442 171.70866394 211.52133179 C171.71544002 209.67650489 171.72434309 207.83168475 171.73521423 205.98687744 C171.75801532 200.97856448 171.74916784 195.97076631 171.73331881 190.96244431 C171.72066406 185.72237506 171.73239874 180.48235002 171.74024963 175.24227905 C171.74934742 166.44231244 171.73735484 157.64255561 171.71354675 148.84262085 C171.68633529 138.66719406 171.69514936 128.49226817 171.72267878 118.31685352 C171.74536511 109.58209602 171.74857224 100.84748935 171.73548543 92.11271191 C171.72768833 86.89508541 171.72665654 81.6776944 171.74316788 76.46008301 C171.75760638 71.55480617 171.74760216 66.65017542 171.71869659 61.74496841 C171.71208248 59.94423623 171.71398903 58.14344971 171.72500992 56.34273911 C171.73866476 53.88517745 171.72155293 51.42968885 171.6966095 48.97225952 C171.70776311 48.25873605 171.71891671 47.54521257 171.73040831 46.81006718 C171.6600227 43.23781256 171.08469456 41.3022306 169.10404015 38.30540466 C164.8973501 35.48746797 161.68568706 35.701672 156.74919128 35.95492554 C155.49525574 35.98876343 155.49525574 35.98876343 154.21598816 36.02328491 C152.16377979 36.08191944 150.11249927 36.17159339 148.06169128 36.26742554 Z " fill="#BE2C31" transform="translate(42.93830871582031,2.732574462890625)"/>
<path d="M0 0 C0.86222672 -0.0071553 1.72445343 -0.01431061 2.61280823 -0.02168274 C5.46181281 -0.03858618 8.30924746 -0.01915794 11.15820312 0.00219727 C13.13830699 0.00136872 15.11841079 -0.00109013 17.09851074 -0.00511169 C21.24801338 -0.00797082 25.39697659 0.00674284 29.54638672 0.03417969 C34.86646371 0.06826253 40.185576 0.06224528 45.50569916 0.04351711 C49.59438116 0.03295074 53.68283852 0.04188167 57.77149963 0.05690193 C59.73311191 0.06208686 61.69474761 0.06159818 63.65635681 0.05535698 C66.39772014 0.04990919 69.13770048 0.07026548 71.87890625 0.09765625 C72.6904567 0.09113037 73.50200714 0.08460449 74.33815002 0.07788086 C77.92785369 0.13889928 80.02412902 0.3216449 82.94313049 2.49659729 C84.88117723 5.26122354 84.94176712 6.9898381 84.93554688 10.34985352 C84.93619141 11.4468457 84.93683594 12.54383789 84.9375 13.67407227 C84.91751953 14.81489258 84.89753906 15.95571289 84.87695312 17.13110352 C84.88404297 18.27192383 84.89113281 19.41274414 84.8984375 20.58813477 C84.83588786 28.77732669 84.83588786 28.77732669 83.44787598 31.76660156 C80.33590411 34.65557368 76.93112473 34.18826285 72.90063477 34.14868164 C71.59288338 34.15919556 71.59288338 34.15919556 70.25871277 34.16992188 C67.3720225 34.18755052 64.48630991 34.17586094 61.59960938 34.16235352 C59.59565543 34.16504728 57.59170276 34.16892872 55.5877533 34.1739502 C51.38528006 34.17985205 47.18314666 34.17126103 42.98071289 34.15258789 C37.59225653 34.12981275 32.20459769 34.14290813 26.81617069 34.16687775 C22.67689502 34.18132965 18.5378085 34.17673224 14.39852715 34.16636658 C12.41178735 34.16369685 10.42503041 34.16697766 8.43831062 34.17628479 C5.66096635 34.18643867 2.88491401 34.17096507 0.10766602 34.14868164 C-0.71480621 34.15677856 -1.53727844 34.16487549 -2.38467407 34.17321777 C-6.00288324 34.11940862 -8.12739557 33.95409764 -11.06996155 31.75987244 C-12.9547174 29.06817166 -13.07630858 27.43677944 -13.09179688 24.16625977 C-13.09695312 23.11889648 -13.10210937 22.0715332 -13.10742188 20.99243164 C-13.09195313 19.90381836 -13.07648437 18.81520508 -13.06054688 17.69360352 C-13.07601562 16.60885742 -13.09148438 15.52411133 -13.10742188 14.40649414 C-13.10226563 13.3578418 -13.09710938 12.30918945 -13.09179688 11.22875977 C-13.08728516 10.27493408 -13.08277344 9.3211084 -13.078125 8.33837891 C-11.62571613 0.74132139 -6.8803569 -0.09912693 0 0 Z M-2.56054688 10.63110352 C-2.56054688 14.92110352 -2.56054688 19.21110352 -2.56054688 23.63110352 C22.84945312 23.63110352 48.25945312 23.63110352 74.43945312 23.63110352 C74.43945312 19.34110352 74.43945312 15.05110352 74.43945312 10.63110352 C49.02945313 10.63110352 23.61945313 10.63110352 -2.56054688 10.63110352 Z " fill="#BF3034" transform="translate(70.560546875,41.368896484375)"/>
<path d="M0 0 C33 0 66 0 100 0 C101 6 101 6 100 9 C96.60667633 10.69666184 92.74159987 10.15642099 89.00805664 10.16113281 C87.61033272 10.16858017 87.61033272 10.16858017 86.18437195 10.17617798 C83.09295929 10.19081809 80.00159792 10.19760412 76.91015625 10.203125 C74.76785785 10.20887423 72.62555947 10.21463199 70.48326111 10.22039795 C65.98826863 10.23091273 61.49329407 10.2367525 56.99829102 10.24023438 C51.22985989 10.24572492 45.46166412 10.269763 39.69330692 10.29820633 C35.26760661 10.31679954 30.84196342 10.3220365 26.41622734 10.32357025 C24.28909453 10.32660402 22.16196289 10.33465676 20.03486824 10.34775543 C17.06350738 10.36474917 14.09272719 10.3629522 11.12133789 10.35644531 C10.23759491 10.3656601 9.35385193 10.37487488 8.44332886 10.3843689 C7.6343364 10.37879974 6.82534393 10.37323059 5.99183655 10.36749268 C5.28926255 10.36895924 4.58668856 10.3704258 3.86282444 10.3719368 C2 10 2 10 0.18801022 8.91453171 C-1 7 -1 7 0 0 Z " fill="#C13539" transform="translate(58,92)"/>
<path d="M0 0 C0.72821646 0.00184359 1.45643291 0.00368717 2.20671654 0.00558662 C3.46034241 0.00146263 3.46034241 0.00146263 4.73929405 -0.00274467 C6.1170929 0.00804115 6.1170929 0.00804115 7.52272606 0.01904488 C8.4886216 0.01875282 9.45451714 0.01846077 10.44968224 0.01815987 C13.65299421 0.01955694 16.85607565 0.03513591 20.05934715 0.05078316 C22.27609187 0.05451194 24.49283824 0.05735955 26.70958519 0.0593586 C32.55235382 0.06700562 38.39502347 0.08666329 44.23775291 0.10876656 C50.19649987 0.12920198 56.15526278 0.13835538 62.11403465 0.14843941 C73.81199487 0.16990817 85.50988154 0.20405699 97.20778465 0.24609566 C98.33278465 5.87109566 98.33278465 5.87109566 97.20778465 9.24609566 C93.81446098 10.94275749 89.94938453 10.40251665 86.21584129 10.40722847 C84.81811737 10.41467583 84.81811737 10.41467583 83.3921566 10.42227364 C80.30074394 10.43691374 77.20938257 10.44369978 74.1179409 10.44922066 C71.9756425 10.45496989 69.83334412 10.46072765 67.69104576 10.46649361 C63.19605328 10.47700838 58.70107872 10.48284816 54.20607567 10.48633003 C48.43764454 10.49182058 42.66944878 10.51585866 36.90109158 10.54430199 C32.47539127 10.56289519 28.04974807 10.56813216 23.62401199 10.56966591 C21.49687918 10.57269968 19.36974754 10.58075242 17.24265289 10.59385109 C14.27129203 10.61084482 11.30051184 10.60904786 8.32912254 10.60254097 C7.44537956 10.61175575 6.56163658 10.62097054 5.65111351 10.63046455 C4.84212105 10.6248954 4.03312859 10.61932625 3.1996212 10.61358833 C2.4970472 10.61505489 1.79447321 10.61652145 1.07060909 10.61803246 C-1.38103209 10.12853084 -2.27663092 9.19980869 -3.79221535 7.24609566 C-4.10471535 4.68359566 -4.10471535 4.68359566 -3.79221535 2.24609566 C-1.79221535 0.24609566 -1.79221535 0.24609566 0 0 Z " fill="#C23A3E" transform="translate(60.79221534729004,137.75390434265137)"/>
<path d="M0 0 C1.2304454 -0.00618599 1.2304454 -0.00618599 2.48574829 -0.01249695 C3.3819841 -0.00171112 4.27821991 0.00907471 5.20161438 0.02018738 C6.1481488 0.0197493 7.09468323 0.01931122 8.06990051 0.01885986 C11.2029625 0.02095226 14.33549141 0.04430482 17.46846008 0.0677948 C19.63893339 0.07338914 21.80941047 0.07766 23.97988892 0.08065796 C29.69611547 0.09211942 35.41211381 0.12159794 41.12825012 0.1547699 C46.95972099 0.18544267 52.79122869 0.19915733 58.62275696 0.21427917 C70.06751876 0.24646627 81.51211108 0.29767844 92.95674133 0.36076355 C94.99580383 4.02482605 94.99580383 4.02482605 94.64424133 7.04826355 C93.95674133 9.36076355 93.95674133 9.36076355 92.95674133 10.36076355 C89.92345075 10.46673758 86.91280437 10.50753875 83.87886047 10.50602722 C82.44968544 10.51106514 82.44968544 10.51106514 80.99163818 10.51620483 C77.82504492 10.52574593 74.65850435 10.52765951 71.49189758 10.5287323 C69.30093361 10.53194264 67.10996986 10.53530653 64.91900635 10.53881836 C60.31968183 10.54481751 55.72037613 10.54665745 51.12104797 10.54606628 C45.21465977 10.54596461 39.30839162 10.55961921 33.4020319 10.57683849 C28.8751469 10.58793268 24.34829117 10.58998629 19.82139397 10.58945656 C17.64320397 10.59064049 15.46501332 10.59508521 13.28683662 10.60278893 C10.24581002 10.61253706 7.20504716 10.60973136 4.16401672 10.60368347 C3.25640594 10.60930298 2.34879517 10.61492249 1.41368103 10.62071228 C-4.81494351 10.5890787 -4.81494351 10.5890787 -7.04325867 8.36076355 C-7.35575867 5.92326355 -7.35575867 5.92326355 -7.04325867 3.36076355 C-4.8916353 0.57939313 -3.47295997 -0.0134785 0 0 Z " fill="#C03236" transform="translate(64.04325866699219,113.63923645019531)"/>
<path d="M0 0 C1.21348869 -0.00835373 1.21348869 -0.00835373 2.45149231 -0.01687622 C3.33523529 -0.00766144 4.21897827 0.00155334 5.12950134 0.01104736 C6.06306961 0.00900299 6.99663788 0.00695862 7.95849609 0.00485229 C11.04946878 0.00184008 14.13991028 0.02033382 17.2308197 0.03936768 C19.37408313 0.04242445 21.51734854 0.04430119 23.66061401 0.04504395 C28.15390109 0.04964969 32.64700921 0.06408688 37.14024353 0.08624268 C42.90978844 0.11454222 48.67919237 0.12545558 54.44880009 0.12992477 C58.87446513 0.13407468 63.30010146 0.1438883 67.72575188 0.15579987 C69.85369575 0.16151057 71.98164239 0.16626662 74.10959053 0.17006683 C77.07851679 0.17691556 80.0473298 0.19054101 83.01622009 0.20635986 C83.9019873 0.20747772 84.78775452 0.20859558 85.70036316 0.20974731 C91.77877993 0.25280092 91.77877993 0.25280092 94.00816345 1.36749268 C94.75816345 4.24249268 94.75816345 4.24249268 95.00816345 7.36749268 C94.34816345 8.35749268 93.68816345 9.34749268 93.00816345 10.36749268 C89.87917726 10.66411888 86.9480724 10.76622424 83.8167572 10.73980713 C82.86382782 10.74345779 81.91089844 10.74710846 80.92909241 10.75086975 C77.76777016 10.75899973 74.60695657 10.74534473 71.44566345 10.73077393 C69.25612895 10.73025561 67.06659398 10.73077219 64.87705994 10.73228455 C60.28364636 10.73219471 55.6904079 10.72174258 51.09703064 10.70367432 C45.19849289 10.68098685 39.30021121 10.68044188 33.40164185 10.68719196 C28.87903045 10.69052774 24.35647783 10.68390924 19.83387756 10.67406273 C17.65848599 10.67020368 15.4830879 10.66906542 13.30769348 10.67064857 C10.27152471 10.67101795 7.23568867 10.65843477 4.1995697 10.64215088 C3.29352997 10.6446283 2.38749023 10.64710571 1.45399475 10.6496582 C-4.76309708 10.59623215 -4.76309708 10.59623215 -6.99183655 8.36749268 C-7.30433655 5.92999268 -7.30433655 5.92999268 -6.99183655 3.36749268 C-4.85289937 0.61022664 -3.44950007 -0.00720052 0 0 Z " fill="#C03236" transform="translate(63.99183654785156,159.63250732421875)"/>
<path d="M0 0 C1.2016832 -0.00274933 2.40336639 -0.00549866 3.64146423 -0.0083313 C5.60620697 0.00245453 5.60620697 0.00245453 7.61064148 0.01345825 C9.01037589 0.01402268 10.4101109 0.01370518 11.80984497 0.01257324 C15.60286841 0.01199997 19.39576508 0.02375015 23.18875909 0.03772116 C27.15524161 0.05023274 31.12172711 0.05139935 35.08822632 0.05377197 C42.59627287 0.05998548 50.1042611 0.07639456 57.61228198 0.09647095 C66.16119926 0.11883396 74.71011934 0.12982439 83.25905859 0.13986182 C100.84202554 0.1607609 118.42493574 0.19593437 136.00785828 0.24050903 C136.00785828 0.57050903 136.00785828 0.90050903 136.00785828 1.24050903 C134.93248794 1.24409156 134.93248794 1.24409156 133.83539295 1.24774647 C116.39206826 1.30688001 98.94889194 1.38241947 81.50571918 1.47622395 C73.07032838 1.52119138 64.63497989 1.56060384 56.19950867 1.58694458 C48.84723064 1.60991701 41.49508641 1.64330652 34.14291447 1.68921059 C30.24990203 1.7131531 26.35702216 1.7318751 22.46393776 1.73812294 C18.79900315 1.74416922 15.13440781 1.76415213 11.46959877 1.79478455 C9.48461986 1.80775966 7.49956172 1.80599358 5.51454163 1.80378723 C4.32968674 1.81632538 3.14483185 1.82886353 1.92407227 1.84178162 C0.89627309 1.84639058 -0.13152609 1.85099955 -1.1904707 1.85574818 C-4.53929587 2.31565115 -6.24513008 3.28041403 -8.99214172 5.24050903 C-10.07024644 5.96142479 -11.14835115 6.68234055 -12.25912571 7.42510223 C-15.17385727 10.42770266 -15.69645799 11.89013131 -15.77129167 16.01870871 C-15.75449674 16.76725071 -15.73770182 17.51579272 -15.72039795 18.28701782 C-15.72623006 19.09222193 -15.73206218 19.89742604 -15.73807102 20.72703028 C-15.75028829 23.42307132 -15.71964882 26.11690354 -15.68916321 28.81277466 C-15.68910782 30.74626322 -15.69168051 32.67975339 -15.69668579 34.61323547 C-15.70268292 39.86342805 -15.67149037 45.11281832 -15.63343692 50.3628521 C-15.5996504 55.85512154 -15.59905838 61.3473949 -15.59469604 66.8397522 C-15.58273401 76.06348603 -15.54891165 85.28692122 -15.49971008 94.51052856 C-15.43036233 107.51942815 -15.40097148 120.52819374 -15.37930954 133.53724766 C-15.36100552 143.63627119 -15.3315862 153.73526723 -15.30073547 163.83425903 C-15.29756404 164.91794832 -15.2943926 166.00163761 -15.29112506 167.11816597 C-15.2722985 173.34727028 -15.24791967 179.57630677 -15.21500969 185.80535316 C-15.20569375 187.69316683 -15.19801872 189.5809894 -15.19209671 191.46881676 C-15.18363344 194.04392668 -15.16904202 196.61892948 -15.152771 199.19400024 C-15.15100118 200.31681326 -15.15100118 200.31681326 -15.14919561 201.46230936 C-15.11869367 205.1769499 -14.87848253 208.62775948 -13.99214172 212.24050903 C-16.23993922 210.18817219 -16.99436593 209.23383643 -17.99214172 206.24050903 C-18.09415356 203.67209922 -18.13995155 201.13054577 -18.13931274 198.56185913 C-18.14482778 197.37710892 -18.14482778 197.37710892 -18.15045422 196.16842437 C-18.16149629 193.51308408 -18.16533578 190.85778292 -18.16914368 188.2024231 C-18.17540791 186.3020312 -18.18205467 184.40164054 -18.1890564 182.50125122 C-18.20646919 177.3317065 -18.21701884 172.16217103 -18.22526193 166.99260426 C-18.23041131 163.76344708 -18.23648706 160.53429278 -18.24277306 157.30513763 C-18.2618256 147.20360114 -18.27605682 137.10207196 -18.28438503 127.00052094 C-18.2941598 115.33669084 -18.32048542 103.67305039 -18.36088592 92.00928712 C-18.39103534 82.99602669 -18.40585277 73.98282067 -18.40916604 64.96951079 C-18.41151777 59.58523254 -18.42049437 54.20115688 -18.44562721 48.81693268 C-18.46889246 43.7509438 -18.47314733 38.68529114 -18.46286583 33.6192627 C-18.46236999 31.76129794 -18.46870455 29.90331671 -18.48242188 28.04540253 C-18.50012273 25.50556355 -18.49304403 22.96693358 -18.47988892 20.42709351 C-18.49085816 19.69468579 -18.50182741 18.96227807 -18.51312906 18.20767617 C-18.43589234 12.01618659 -16.34790168 8.21081506 -12.55464172 3.42800903 C-8.65756152 0.46622808 -4.78135354 -0.00845509 0 0 Z " fill="#C84D51" transform="translate(42.99214172363281,2.759490966796875)"/>
<path d="M0 0 C2.09375 0.4375 2.09375 0.4375 4 1 C3.43410156 1.47050781 2.86820313 1.94101563 2.28515625 2.42578125 C1.18494141 3.35970703 1.18494141 3.35970703 0.0625 4.3125 C-1.03384766 5.23482422 -1.03384766 5.23482422 -2.15234375 6.17578125 C-4.23820366 7.95975519 -4.23820366 7.95975519 -5 11 C-5.66 10.67 -6.32 10.34 -7 10 C-2.40594059 1.6039604 -2.40594059 1.6039604 0 0 Z " fill="#D77D80" transform="translate(32,5)"/>
</svg>
