<?xml version="1.0" encoding="UTF-8"?>
<svg version="1.1" xmlns="http://www.w3.org/2000/svg" width="178" height="163">
<path d="M0 0 C58.74 0 117.48 0 178 0 C178 53.79 178 107.58 178 163 C119.26 163 60.52 163 0 163 C0 109.21 0 55.42 0 0 Z " fill="#FEFDFD" transform="translate(0,0)"/>
<path d="M0 0 C3.14020265 1.04673422 4.20821268 1.54080074 6.1875 4.0625 C6.54826355 5.94181824 6.54826355 5.94181824 6.52807617 8.07495117 C6.52784958 8.87555466 6.52762299 9.67615814 6.52738953 10.50102234 C6.51190567 11.36048965 6.49642181 12.21995697 6.48046875 13.10546875 C6.47622391 13.9890657 6.47197906 14.87266266 6.46760559 15.78303528 C6.45081043 18.60566661 6.41315697 21.42758441 6.375 24.25 C6.35995423 26.16340115 6.34626564 28.07681349 6.33398438 29.99023438 C6.30090419 34.68126459 6.2491163 39.37176131 6.1875 44.0625 C6.80109375 44.34996094 7.4146875 44.63742188 8.046875 44.93359375 C11.10963101 46.54880632 12.40847837 48.07628512 14.1875 51.0625 C15.07229968 55.77848228 14.66340035 59.76778468 12.375 64 C10.1875 67.0625 10.1875 67.0625 7.1875 69.0625 C6.88657172 71.99044054 6.77058539 74.71790903 6.78125 77.6484375 C6.76499573 78.92843124 6.76499573 78.92843124 6.74841309 80.23428345 C6.71405833 82.96876568 6.69854238 85.70283004 6.6875 88.4375 C6.67294138 92.02904878 6.63925254 95.61966234 6.59375 99.2109375 C6.59677124 100.03709564 6.59979248 100.86325378 6.60290527 101.71444702 C6.55768449 105.1763145 6.49233429 107.47991778 4.86865234 110.58300781 C3.1875 112.0625 3.1875 112.0625 -0.1171875 112.5859375 C-4.61025963 111.94949811 -6.46531734 110.57358533 -9.9375 107.6875 C-11.0741449 106.76813785 -12.21086583 105.84886971 -13.34765625 104.9296875 C-14.50272486 103.9741042 -15.65767366 103.01837606 -16.8125 102.0625 C-29.67406862 91.58493517 -41.76544792 84.05746844 -58.75 83.4375 C-59.62462891 83.39882812 -60.49925781 83.36015625 -61.40039062 83.3203125 C-63.53744631 83.2268893 -65.67494294 83.14364602 -67.8125 83.0625 C-67.78618019 92.69554942 -66.82838168 98.95270412 -62.0625 107.46484375 C-60.83919336 110.00702785 -60.41002091 111.35598987 -60.6875 114.125 C-61.96882579 117.470684 -62.78485099 118.26246191 -65.8125 120.0625 C-69.62358888 120.67797152 -73.4569783 120.52614719 -77.3125 120.5 C-78.35792969 120.51998047 -79.40335938 120.53996094 -80.48046875 120.56054688 C-81.99060547 120.55958008 -81.99060547 120.55958008 -83.53125 120.55859375 C-84.44841797 120.56044678 -85.36558594 120.5622998 -86.31054688 120.56420898 C-89.5705181 119.91049696 -90.73440829 118.60238987 -92.8125 116.0625 C-94.04296875 113.40625 -94.04296875 113.40625 -95 110.5625 C-95.32355469 109.6240625 -95.64710937 108.685625 -95.98046875 107.71875 C-97.18931052 103.85953684 -97.93759553 100.57663794 -97.91015625 96.515625 C-97.90693359 95.67128906 -97.90371094 94.82695313 -97.90039062 93.95703125 C-97.89201172 93.08433594 -97.88363281 92.21164063 -97.875 91.3125 C-97.87048828 90.42433594 -97.86597656 89.53617187 -97.86132812 88.62109375 C-97.849574 86.43482671 -97.83314249 84.24869821 -97.8125 82.0625 C-98.74191406 82.13210937 -99.67132813 82.20171875 -100.62890625 82.2734375 C-111.98908098 82.7709634 -111.98908098 82.7709634 -116.0625 79.375 C-121.98865862 73.46411498 -121.21743642 65.60330057 -121.23803711 57.82519531 C-121.24993006 55.69999722 -121.29915292 53.57771101 -121.34960938 51.453125 C-121.4897473 40.08638244 -121.4897473 40.08638244 -118.66015625 35.7734375 C-112.02044616 29.45250635 -105.92829112 29.63381596 -97.1796875 29.65625 C-95.33735031 29.63999573 -95.33735031 29.63999573 -93.45779419 29.62341309 C-89.53430942 29.58918896 -85.61111427 29.57357549 -81.6875 29.5625 C-76.53878739 29.54784764 -71.39071262 29.51396226 -66.2421875 29.46875 C-65.07613983 29.47177124 -63.91009216 29.47479248 -62.70870972 29.47790527 C-43.40348165 29.30376397 -30.18959238 21.74826802 -15.890625 9.5 C-13.14052945 7.16349239 -10.37325555 4.85806972 -7.53515625 2.62890625 C-6.59941772 1.88942749 -6.59941772 1.88942749 -5.64477539 1.13500977 C-3.8125 0.0625 -3.8125 0.0625 0 0 Z " fill="#F80A07" transform="translate(138.8125,18.9375)"/>
<path d="M0 0 C0.66 0 1.32 0 2 0 C2 21.78 2 43.56 2 66 C-1.43193075 64.28403462 -3.98515473 62.56497047 -7 60.25 C-20.32854516 50.50515639 -34.55014305 45.80243205 -51 45 C-51 37.41 -51 29.82 -51 22 C-48.31875 21.608125 -45.6375 21.21625 -42.875 20.8125 C-28.35807646 18.47573213 -15.777624 13.7084368 -4.4375 4.0625 C-2 2 -2 2 0 2 C0 1.34 0 0.68 0 0 Z " fill="#FEF9F9" transform="translate(129,42)"/>
</svg>
