<?xml version="1.0" encoding="UTF-8"?>
<svg version="1.1" xmlns="http://www.w3.org/2000/svg" width="171" height="295">
<path d="M0 0 C56.43 0 112.86 0 171 0 C171 97.35 171 194.7 171 295 C114.57 295 58.14 295 0 295 C0 197.65 0 100.3 0 0 Z " fill="#D03330" transform="translate(0,0)"/>
<path d="M0 0 C56.43 0 112.86 0 171 0 C171 97.35 171 194.7 171 295 C151.53 295 132.06 295 112 295 C113.32 294.34 114.64 293.68 116 293 C121.69585192 289.79608329 124.5536798 286.42770449 126.5955801 280.17671585 C127.12681308 277.31745187 127.14163641 274.5814979 127.15821838 271.67254639 C127.1680072 270.37126801 127.17779602 269.06998962 127.18788147 267.72927856 C127.19378531 266.28924597 127.19959578 264.849213 127.20532227 263.40917969 C127.21490343 261.8913649 127.22491365 260.37355276 127.23532104 258.85574341 C127.26235034 254.73629394 127.2833706 250.61683303 127.30332303 246.49734402 C127.32519476 242.19183203 127.35257765 237.8863552 127.37937927 233.58087158 C127.42929009 225.42826836 127.47423491 217.27564561 127.51740164 209.1230042 C127.56678776 199.8413236 127.6217008 190.55967829 127.67708123 181.27803183 C127.79087656 162.18538731 127.89772094 143.0927095 128 124 C130.97 124 133.94 124 137 124 C137.00546844 125.11967163 137.00546844 125.11967163 137.01104736 126.26196289 C137.04903711 133.32349076 137.10601322 140.38455707 137.18390274 147.44573975 C137.22328102 151.0753348 137.25551619 154.70469077 137.27099609 158.33447266 C137.28622717 161.84259227 137.32078433 165.35005417 137.36830902 168.85787964 C137.39019599 170.83622203 137.39246818 172.81475033 137.39434814 174.79321289 C137.52373201 182.80258965 138.03028488 189.15057928 144.0625 195 C149.86859262 196.97654217 156.32465039 197.01376802 162 194.5625 C162.99 194.046875 163.98 193.53125 165 193 C165.99 192.67 166.98 192.34 168 192 C169.53130372 187.89968821 169.17102607 183.45695127 169.19287109 179.13574219 C169.20104858 178.24092636 169.20922607 177.34611053 169.21765137 176.42417908 C169.24244838 173.46508444 169.25900669 170.5060376 169.2734375 167.546875 C169.28142302 166.0283128 169.28142302 166.0283128 169.28956985 164.47907257 C169.31627649 159.12065895 169.33565949 153.76226844 169.35009766 148.40380859 C169.36343704 143.97488758 169.39129361 139.54642727 169.43212891 135.11767578 C169.48149036 129.76378067 169.50622292 124.41030344 169.51332474 119.05619049 C169.52002916 117.01968066 169.53523007 114.98317985 169.55921555 112.94680023 C169.59093052 110.09132071 169.59089434 107.23744625 169.58349609 104.38183594 C169.59990143 103.54726364 169.61630676 102.71269135 169.63320923 101.85282898 C169.56877074 95.75071481 167.79418099 91.76771104 164 87 C160.17460553 83.51214034 156.84280474 82.87555694 151.76449585 82.85955811 C150.67953827 82.85384796 149.59458069 82.84813782 148.47674561 82.84225464 C146.69073944 82.84057785 146.69073944 82.84057785 144.86865234 82.83886719 C143.61470673 82.83390228 142.36076111 82.82893738 141.06881714 82.82382202 C137.62633595 82.81170949 134.18391555 82.80425362 130.74142027 82.79981136 C128.58832888 82.79687826 126.4352428 82.79277289 124.28215408 82.78830719 C117.5390686 82.77463062 110.79599525 82.76496609 104.05289686 82.7611053 C96.28195058 82.75663116 88.51118078 82.73911403 80.74028814 82.7101047 C74.72654501 82.68843868 68.71285134 82.67839832 62.69906962 82.67706418 C59.11109227 82.67601919 55.52328077 82.6701777 51.9353447 82.65224457 C47.92602723 82.63259606 43.91707527 82.63707237 39.90771484 82.64355469 C38.72918945 82.6343399 37.55066406 82.62512512 36.33642578 82.6156311 C26.12797793 82.66722709 17.38280261 84.55502642 10 92 C4.57642031 99.39579049 1.70254 106.40111868 1.69360352 115.62255859 C1.68528 116.36160934 1.67695648 117.1006601 1.66838074 117.86210632 C1.64440169 120.29093789 1.63552407 122.71950034 1.62890625 125.1484375 C1.61993147 126.84705684 1.61080948 128.54567541 1.60154724 130.24429321 C1.58508811 133.7999259 1.57736262 137.35546477 1.57446289 140.91113281 C1.56907893 145.45285597 1.53138569 149.99368983 1.48571873 154.53516197 C1.45588471 158.04233982 1.44873798 161.54930498 1.44773674 165.05659866 C1.44354785 166.73026228 1.43116727 168.4039273 1.41021919 170.07746506 C1.14960061 182.42397034 1.14960061 182.42397034 7 193 C10.23498916 196.04469568 13.1393929 196.24556829 17.4375 196.4375 C22.40614281 196.28389948 25.26068485 195.46570672 29 192 C34.43764884 186.19825641 33.60468814 179.41662395 33.609375 171.8515625 C33.62436909 170.47006299 33.64109883 169.08858133 33.65948486 167.7071228 C33.70303375 164.08712913 33.72312935 160.46737721 33.73822021 156.84716797 C33.7578367 153.14666523 33.7998014 149.44642186 33.83984375 145.74609375 C33.91501047 138.49746578 33.9653833 131.24894713 34 124 C36.97 124 39.94 124 43 124 C43.00054477 124.78961058 43.00108953 125.57922115 43.00165081 126.39275932 C43.01663745 145.63207933 43.05916036 164.87115965 43.13209057 184.11034966 C43.16669999 193.41441325 43.19209077 202.71832931 43.19555664 212.02246094 C43.19860217 220.13476448 43.21917168 228.246805 43.26052457 236.359007 C43.28180295 240.65188857 43.29448189 244.94439669 43.28615379 249.23733139 C43.27858073 253.28408498 43.29456717 257.33008393 43.32806015 261.37669945 C43.33625447 262.85602915 43.33608959 264.33543445 43.32659721 265.81475639 C43.27699159 274.40049807 43.60383295 281.95887535 49 289 C51.08255059 290.63884758 53.07710321 291.94023291 55.42578125 293.16015625 C55.94527344 293.43730469 56.46476562 293.71445312 57 294 C57 294.33 57 294.66 57 295 C38.19 295 19.38 295 0 295 C0 197.65 0 100.3 0 0 Z " fill="#FEFDFD" transform="translate(0,0)"/>
<path d="M0 0 C2.97 0 5.94 0 9 0 C9.00054477 0.78961058 9.00108953 1.57922115 9.00165081 2.39275932 C9.01663745 21.63207933 9.05916036 40.87115965 9.13209057 60.11034966 C9.16669999 69.41441325 9.19209077 78.71832931 9.19555664 88.02246094 C9.19860217 96.13476448 9.21917168 104.246805 9.26052457 112.359007 C9.28180295 116.65188857 9.29448189 120.94439669 9.28615379 125.23733139 C9.27858073 129.28408498 9.29456717 133.33008393 9.32806015 137.37669945 C9.33625447 138.85602915 9.33608959 140.33543445 9.32659721 141.81475639 C9.27699159 150.40049807 9.60383295 157.95887535 15 165 C17.08255059 166.63884758 19.07710321 167.94023291 21.42578125 169.16015625 C21.94527344 169.43730469 22.46476562 169.71445312 23 170 C23 170.33 23 170.66 23 171 C4.19 171 -14.62 171 -34 171 C-34 135.03 -34 99.06 -34 62 C-31 63 -31 63 -29.125 65.875 C-26.81748217 69.26840857 -25.80699306 70.54200266 -22 72 C-16.709147 72.65528913 -12.42588044 72.67405257 -7.5625 70.375 C-2.37149067 65.56382062 -0.78402172 62.73839466 -0.45410156 55.62744141 C-0.41288179 53.0336062 -0.39223185 50.44518221 -0.390625 47.8515625 C-0.37563091 46.47006299 -0.35890117 45.08858133 -0.34051514 43.7071228 C-0.29696625 40.08712913 -0.27687065 36.46737721 -0.26177979 32.84716797 C-0.2421633 29.14666523 -0.2001986 25.44642186 -0.16015625 21.74609375 C-0.08498953 14.49746578 -0.0346167 7.24894713 0 0 Z " fill="#FEFEFE" transform="translate(34,124)"/>
<path d="M0 0 C2.97 0 5.94 0 9 0 C9.00364563 0.74644775 9.00729126 1.49289551 9.01104736 2.26196289 C9.04903711 9.32349076 9.10601322 16.38455707 9.18390274 23.44573975 C9.22328102 27.0753348 9.25551619 30.70469077 9.27099609 34.33447266 C9.28622717 37.84259227 9.32078433 41.35005417 9.36830902 44.85787964 C9.39019599 46.83622203 9.39246818 48.81475033 9.39434814 50.79321289 C9.52373201 58.80258965 10.03028488 65.15057928 16.0625 71 C21.86859262 72.97654217 28.32465039 73.01376802 34 70.5625 C34.99 70.046875 35.98 69.53125 37 69 C37.99 68.67 38.98 68.34 40 68 C40.73323796 65.98491642 40.73323796 65.98491642 41 64 C41.66 64 42.32 64 43 64 C43 99.31 43 134.62 43 171 C23.53 171 4.06 171 -16 171 C-14.02 170.01 -14.02 170.01 -12 169 C-6.30414808 165.79608329 -3.4463202 162.42770449 -1.4044199 156.17671585 C-0.87318692 153.31745187 -0.85836359 150.5814979 -0.84178162 147.67254639 C-0.8319928 146.37126801 -0.82220398 145.06998962 -0.81211853 143.72927856 C-0.80621469 142.28924597 -0.80040422 140.849213 -0.79467773 139.40917969 C-0.78509657 137.8913649 -0.77508635 136.37355276 -0.76467896 134.85574341 C-0.73764966 130.73629394 -0.7166294 126.61683303 -0.69667697 122.49734402 C-0.67480524 118.19183203 -0.64742235 113.8863552 -0.62062073 109.58087158 C-0.57070991 101.42826836 -0.52576509 93.27564561 -0.48259836 85.1230042 C-0.43321224 75.8413236 -0.3782992 66.55967829 -0.32291877 57.27803183 C-0.20912344 38.18538731 -0.10227906 19.0927095 0 0 Z " fill="#FEFEFE" transform="translate(128,124)"/>
<path d="M0 0 C8.19244998 5.88354217 13.76701228 13.8189002 15.98828125 23.67578125 C17.74294816 35.11244948 16.12274291 44.81521157 9.23828125 54.27734375 C3.18800429 61.49113551 -4.1763398 67.50464924 -13.74291992 68.82714844 C-15.98793365 68.96376893 -18.20035226 68.99591742 -20.44921875 68.96484375 C-21.24005859 68.95509521 -22.03089844 68.94534668 -22.84570312 68.93530273 C-33.34597727 68.61714529 -39.81555285 65.16569332 -47.37890625 57.875 C-54.75957032 49.98215462 -57.50080893 40.76715473 -58.07421875 30.02734375 C-57.70739239 19.82957095 -52.85341816 11.83358619 -45.90234375 4.65234375 C-42.68249205 1.71341871 -39.47982288 -0.5472482 -35.57421875 -2.47265625 C-34.96191406 -2.78976563 -34.34960938 -3.106875 -33.71875 -3.43359375 C-22.96292592 -8.26817035 -9.92736528 -5.67923628 0 0 Z " fill="#D0322F" transform="translate(106.57421875,5.47265625)"/>
<path d="M0 0 C2.97 0 5.94 0 9 0 C9.00364563 0.99700928 9.00729126 1.99401855 9.01104736 3.02124023 C9.04805902 12.43727392 9.10589899 21.85298242 9.18390274 31.26876831 C9.2233381 36.10904252 9.25554589 40.94913587 9.27099609 45.78955078 C9.28618866 50.46468677 9.32068026 55.13932542 9.36830902 59.8142395 C9.38309604 61.59387885 9.39103947 63.37358922 9.39188385 65.15328979 C9.3942634 67.65480993 9.42142055 70.15496656 9.45410156 72.65625 C9.4490712 73.38489761 9.44404083 74.11354523 9.43885803 74.86427307 C9.5475494 80.27464844 11.03300815 84.46165337 14 89 C16.39859044 91.33630748 16.39859044 91.33630748 19 93 C20.32 93.99 21.64 94.98 23 96 C10.79 96 -1.42 96 -14 96 C-11.86295895 94.39721921 -9.71410455 92.80702057 -7.5 91.3125 C-3.33889718 87.46347989 -0.88796637 82.66262815 -0.48101807 76.96289062 C-0.452184 75.52760531 -0.44419102 74.0917907 -0.45410156 72.65625 C-0.44376389 71.86504257 -0.43342621 71.07383514 -0.42277527 70.25865173 C-0.39353793 67.67222203 -0.3918522 65.08658135 -0.390625 62.5 C-0.37563041 60.69537887 -0.35890058 58.89077141 -0.34051514 57.08618164 C-0.29697288 52.35816794 -0.27687174 47.63033933 -0.26177979 42.90216064 C-0.24216122 38.06877762 -0.20019662 33.2355931 -0.16015625 28.40234375 C-0.08499644 18.93495726 -0.03461896 9.46761551 0 0 Z " fill="#FEFDFD" transform="translate(81,199)"/>
</svg>
