<svg width="182" height="32" viewBox="0 0 182 32" fill="none" xmlns="http://www.w3.org/2000/svg">
<g clip-path="url(#clip0_25_301)">
<path d="M16 0C7.16352 0 0 7.16352 0 16C0 23.5034 5.16608 29.7997 12.135 31.529V20.8896H8.83584V16H12.135V13.8931C12.135 8.44736 14.5997 5.9232 19.9462 5.9232C20.96 5.9232 22.7091 6.12224 23.4246 6.32064V10.7526C23.047 10.713 22.391 10.6931 21.5763 10.6931C18.953 10.6931 17.9392 11.687 17.9392 14.2707V16H23.1654L22.2675 20.8896H17.9392V31.8829C25.8618 30.9261 32.0006 24.1805 32.0006 16C32 7.16352 24.8365 0 16 0Z" fill="white"/>
</g>
<g clip-path="url(#clip1_25_301)">
<path d="M66 2.88125C70.275 2.88125 70.7813 2.9 72.4625 2.975C74.025 3.04375 74.8688 3.30625 75.4313 3.525C76.175 3.8125 76.7125 4.1625 77.2688 4.71875C77.8313 5.28125 78.175 5.8125 78.4625 6.55625C78.6813 7.11875 78.9438 7.96875 79.0125 9.525C79.0875 11.2125 79.1063 11.7188 79.1063 15.9875C79.1063 20.2625 79.0875 20.7688 79.0125 22.45C78.9438 24.0125 78.6813 24.8563 78.4625 25.4188C78.175 26.1625 77.825 26.7 77.2688 27.2563C76.7063 27.8188 76.175 28.1625 75.4313 28.45C74.8688 28.6688 74.0188 28.9313 72.4625 29C70.775 29.075 70.2688 29.0938 66 29.0938C61.725 29.0938 61.2188 29.075 59.5375 29C57.975 28.9313 57.1313 28.6688 56.5688 28.45C55.825 28.1625 55.2875 27.8125 54.7313 27.2563C54.1688 26.6938 53.825 26.1625 53.5375 25.4188C53.3188 24.8563 53.0563 24.0063 52.9875 22.45C52.9125 20.7625 52.8938 20.2563 52.8938 15.9875C52.8938 11.7125 52.9125 11.2063 52.9875 9.525C53.0563 7.9625 53.3188 7.11875 53.5375 6.55625C53.825 5.8125 54.175 5.275 54.7313 4.71875C55.2938 4.15625 55.825 3.8125 56.5688 3.525C57.1313 3.30625 57.9813 3.04375 59.5375 2.975C61.2188 2.9 61.725 2.88125 66 2.88125ZM66 0C61.6563 0 61.1125 0.01875 59.4063 0.09375C57.7063 0.16875 56.5375 0.44375 55.525 0.8375C54.4688 1.25 53.575 1.79375 52.6875 2.6875C51.7938 3.575 51.25 4.46875 50.8375 5.51875C50.4437 6.5375 50.1688 7.7 50.0938 9.4C50.0188 11.1125 50 11.6562 50 16C50 20.3438 50.0188 20.8875 50.0938 22.5938C50.1688 24.2938 50.4437 25.4625 50.8375 26.475C51.25 27.5313 51.7938 28.425 52.6875 29.3125C53.575 30.2 54.4688 30.75 55.5188 31.1562C56.5375 31.55 57.7 31.825 59.4 31.9C61.1063 31.975 61.65 31.9937 65.9938 31.9937C70.3375 31.9937 70.8813 31.975 72.5875 31.9C74.2875 31.825 75.4563 31.55 76.4688 31.1562C77.5188 30.75 78.4125 30.2 79.3 29.3125C80.1875 28.425 80.7375 27.5313 81.1438 26.4813C81.5375 25.4625 81.8125 24.3 81.8875 22.6C81.9625 20.8938 81.9813 20.35 81.9813 16.0063C81.9813 11.6625 81.9625 11.1188 81.8875 9.4125C81.8125 7.7125 81.5375 6.54375 81.1438 5.53125C80.75 4.46875 80.2063 3.575 79.3125 2.6875C78.425 1.8 77.5313 1.25 76.4813 0.84375C75.4625 0.45 74.3 0.175 72.6 0.1C70.8875 0.01875 70.3438 0 66 0Z" fill="white"/>
<path d="M66 7.78125C61.4625 7.78125 57.7812 11.4625 57.7812 16C57.7812 20.5375 61.4625 24.2188 66 24.2188C70.5375 24.2188 74.2188 20.5375 74.2188 16C74.2188 11.4625 70.5375 7.78125 66 7.78125ZM66 21.3312C63.0563 21.3312 60.6687 18.9438 60.6687 16C60.6687 13.0563 63.0563 10.6687 66 10.6687C68.9438 10.6687 71.3312 13.0563 71.3312 16C71.3312 18.9438 68.9438 21.3312 66 21.3312Z" fill="white"/>
<path d="M76.4625 7.45611C76.4625 8.51861 75.6 9.37486 74.5438 9.37486C73.4813 9.37486 72.625 8.51236 72.625 7.45611C72.625 6.3936 73.4875 5.53735 74.5438 5.53735C75.6 5.53735 76.4625 6.39985 76.4625 7.45611Z" fill="white"/>
</g>
<g clip-path="url(#clip2_25_301)">
<path d="M129.631 0H102.362C101.056 0 100 1.03125 100 2.30625V29.6875C100 30.9625 101.056 32 102.362 32H129.631C130.938 32 132 30.9625 132 29.6938V2.30625C132 1.03125 130.938 0 129.631 0ZM109.494 27.2687H104.744V11.9937H109.494V27.2687ZM107.119 9.9125C105.594 9.9125 104.363 8.68125 104.363 7.1625C104.363 5.64375 105.594 4.4125 107.119 4.4125C108.638 4.4125 109.869 5.64375 109.869 7.1625C109.869 8.675 108.638 9.9125 107.119 9.9125ZM127.269 27.2687H122.525V19.8438C122.525 18.075 122.494 15.7937 120.056 15.7937C117.587 15.7937 117.212 17.725 117.212 19.7188V27.2687H112.475V11.9937H117.025V14.0813H117.087C117.719 12.8813 119.269 11.6125 121.575 11.6125C126.381 11.6125 127.269 14.775 127.269 18.8875V27.2687Z" fill="white"/>
</g>
<path d="M181.681 9.60015C181.681 9.60015 181.369 7.3939 180.406 6.42515C179.188 5.15015 177.825 5.1439 177.2 5.0689C172.725 4.7439 166.006 4.7439 166.006 4.7439H165.994C165.994 4.7439 159.275 4.7439 154.8 5.0689C154.175 5.1439 152.812 5.15015 151.594 6.42515C150.631 7.3939 150.325 9.60015 150.325 9.60015C150.325 9.60015 150 12.1939 150 14.7814V17.2064C150 19.7939 150.319 22.3876 150.319 22.3876C150.319 22.3876 150.631 24.5939 151.587 25.5626C152.806 26.8376 154.406 26.7939 155.119 26.9314C157.681 27.1751 166 27.2501 166 27.2501C166 27.2501 172.725 27.2376 177.2 26.9189C177.825 26.8439 179.188 26.8376 180.406 25.5626C181.369 24.5939 181.681 22.3876 181.681 22.3876C181.681 22.3876 182 19.8001 182 17.2064V14.7814C182 12.1939 181.681 9.60015 181.681 9.60015ZM162.694 20.1501V11.1564L171.337 15.6689L162.694 20.1501Z" fill="white"/>
<defs>
<clipPath id="clip0_25_301">
<rect width="32" height="32" fill="white"/>
</clipPath>
<clipPath id="clip1_25_301">
<rect width="32" height="32" fill="white" transform="translate(50)"/>
</clipPath>
<clipPath id="clip2_25_301">
<rect width="32" height="32" fill="white" transform="translate(100)"/>
</clipPath>
</defs>
</svg>
