<svg width="265" height="52" viewBox="0 0 265 52" fill="none" xmlns="http://www.w3.org/2000/svg">
<rect width="265" height="52" rx="20" fill="white"/>
<g clip-path="url(#clip0_25_120)">
<rect width="233.507" height="32" transform="translate(16 10)" fill="white"/>
<path fill-rule="evenodd" clip-rule="evenodd" d="M133.879 18.0544C133.182 13.6146 129.35 10.2239 123.675 10.1088C118.097 10.2687 113.695 13.896 113.523 18.9116C113.683 20.0376 113.472 21.7585 115.826 24.5414C116.126 24.8996 116.6 25.3475 117.208 25.8784C118.385 26.9084 120.048 28.2391 121.884 29.7233C126.458 33.4274 132.101 38.1551 133.86 42C136.694 35.7945 149.54 27.1579 151.907 24.3431C154.274 21.5282 154.057 19.8137 154.223 18.6877C154.057 13.6785 149.668 10.096 144.09 10C138.415 10.1791 134.577 13.6082 133.879 18.0544Z" fill="#EC1C24"/>
<path fill-rule="evenodd" clip-rule="evenodd" d="M152.285 16.1672C152.285 16.1672 152.368 16.1672 152.425 16.1864C152.451 17.0437 151.236 17.37 150.756 17.9585C150.596 18.1057 150.365 18.1504 150.206 18.2336C150.174 18.2592 150.148 18.304 150.148 18.368L150.73 18.6175C150.647 18.6494 150.423 18.5599 150.212 18.5151C149.655 18.3232 149.073 18.5151 148.536 18.5919C148.395 18.6942 148.267 18.6814 148.12 18.7198V18.803L149.713 18.9437L150.212 19.1804C150.762 19.0269 151.549 18.9885 152.048 19.2572C152.048 19.2828 152.157 19.3724 152.099 19.4299L150.711 19.4619C150.628 19.4811 150.57 19.5003 150.628 19.5899L151.626 19.9097C151.907 20.1209 152.125 20.4471 152.042 20.8118C151.626 20.9013 151.236 20.5623 150.864 20.3C150.621 19.833 150.404 19.5515 149.867 19.3276C149.758 19.6602 150.09 20.2424 149.726 20.5495C149.675 20.5879 149.617 20.6327 149.617 20.6327C149.566 20.6327 149.451 20.6326 149.368 20.6135C148.888 20.1209 149.758 19.641 149.617 19.1548C149.227 18.7518 148.421 18.8989 147.781 18.8414C147.148 18.9437 146.732 19.27 146.194 19.3276C146.111 19.4299 146.361 19.4107 146.393 19.4939C146.393 19.5323 146.444 19.6155 146.476 19.6794C147.058 19.8266 147.263 20.3 147.423 20.767C147.455 20.8822 147.455 20.9653 147.455 21.0293C147.116 21.0677 146.738 20.8246 146.476 20.5879C146.342 20.4215 146.393 20.268 146.367 20.1336C146.348 20.0633 146.316 20.0313 146.201 20.0697C146.169 20.14 146.092 20.1592 146.06 20.268L145.12 20.8374C144.902 20.6838 145.12 20.364 145.28 20.2104C145.51 20.0377 145.619 19.9865 145.779 19.8841C145.83 19.8841 145.945 19.8586 146.034 19.8394C146.118 19.801 146.194 19.7562 146.246 19.6219C146.246 19.4491 145.926 19.4299 145.695 19.4171C145.164 19.4363 144.64 19.3084 144.218 19.27C143.379 19.206 142.522 19.2124 141.966 19.5835C139.886 20.8438 141.153 23.4539 138.997 24.6822C140.014 25.5203 141.684 26.0641 141.908 27.4395C142.983 31.7962 135.447 32.9093 136.502 37.2852C136.553 37.3939 136.553 37.4579 136.553 37.5219L136.445 38.2576L136.24 38.4879L135.696 38.2064C135.581 37.8226 135.479 37.8482 135.287 37.5347C134.334 36.5943 133.278 35.8266 132.453 34.9053C132.389 34.8414 132.357 34.7838 132.357 34.7838L132.114 34.5855L130.553 31.9625C130.431 31.7578 125.192 32.4359 123.739 31.2716L122.031 29.9089L120.285 28.4439L119.946 28.2008C119.837 28.1113 119.728 28.0153 119.619 27.9257L119.197 27.5867L119.005 27.4395L118.41 26.9469L118.046 26.6462L117.898 26.5247L117.771 26.3967L117.361 26.0705L117.15 25.7122C117.067 25.5715 117.214 25.5139 117.323 25.4755C119.21 26.3072 121.91 26.1344 124.002 25.354C124.609 25.0917 125.16 24.663 125.531 24.1896C124.501 24.0873 123.298 24.1768 122.249 23.8186C120.963 23.2684 119.159 23.1468 117.739 22.8782C116.99 22.8206 116.35 23.0381 115.653 23.0637C115.602 23.0381 115.602 23.0125 115.602 22.9485C115.653 22.8845 115.743 22.7758 115.902 22.7566C117.438 22.6606 118.519 22.1041 119.543 21.2532C121.04 19.8778 122.665 18.5791 125.083 18.2016C126.119 18.176 127.034 18.1888 128.006 18.4639C128.902 18.6942 129.452 19.0333 130.169 19.3532C131.365 20.1592 133.15 20.7094 134.845 20.2488C136.451 20.1145 137.481 19.3276 138.21 18.4511C137.66 18.4703 136.956 18.3744 136.342 18.2656C136.01 18.3552 135.76 18.5279 135.594 18.5919C135.319 18.9181 135.818 19.4235 135.319 19.7498C135.255 19.801 135.172 19.8394 135.172 19.8394C134.922 19.7754 135.063 19.4939 135.012 19.302C134.807 19.0909 134.615 19.5835 134.295 19.4171L134.308 19.1101C134.372 19.0397 134.506 19.0397 134.538 18.9181C134.199 18.7518 133.758 18.7774 133.425 18.5407C133.016 18.5215 132.625 18.7006 132.267 18.5663L132.178 18.4895C132.318 18.208 132.926 18.3104 133.233 18.3104C133.681 18.3999 133.79 18.6111 134.097 18.7198C134.18 18.7582 134.199 18.643 134.199 18.6047C133.988 18.4383 134.039 18.1121 133.79 17.9009C133.79 17.6386 133.681 17.3827 133.879 17.2164C133.962 17.2164 134.039 17.2356 134.097 17.2804C134.679 17.6323 133.892 18.1376 134.372 18.6047C134.615 18.7262 135.031 18.7262 135.319 18.6047C135.619 18.4127 135.901 18.2784 136.17 18.1313C136.336 18.1057 136.01 18.0673 136.208 18.0161L135.479 17.3764C135.395 17.2996 135.395 17.2036 135.338 17.1205C135.479 16.9733 135.837 17.1588 136.003 17.2036C136.163 17.306 136.202 17.3316 136.253 17.4403C136.253 17.6259 136.253 17.8881 136.419 18.0801C136.969 18.2912 137.775 18.4383 138.415 18.2592C138.978 17.6131 140.091 17.3316 141.172 17.306C142.209 17.306 142.477 18.1313 143.348 18.272C143.789 18.4703 143.738 19.1165 144.346 19.174C145.299 19.3788 146.233 19.2508 147.02 18.9629C147.301 18.2784 147.41 17.5683 148.216 17.2036C148.408 17.5619 148.101 18.0609 147.768 18.3424C147.551 18.4767 147.327 18.4895 147.269 18.7326C147.909 18.7326 148.971 18.3616 149.745 18.2912C150.103 18.2016 150.327 18.0289 150.609 17.9329L150.82 17.6834C150.577 17.4019 150.353 16.8901 150.711 16.4807C150.89 16.4999 150.967 16.5831 151.018 16.711V17.2868C151.05 17.3572 151.076 17.3955 151.184 17.3508C151.319 16.8774 151.491 16.3144 152.266 16.18L152.285 16.1672Z" fill="white"/>
<path d="M243.551 32.0008V19.948C243.551 19.3722 243.531 18.9116 243.487 18.5533C243.448 18.2207 243.391 17.9904 243.314 17.8624C243.205 17.6833 243.02 17.5426 242.757 17.453C242.469 17.3506 242.098 17.2995 241.638 17.2995H241.433V16.4038H249.5V17.2995H249.296C248.406 17.2995 247.856 17.4786 247.645 17.8368C247.562 17.9712 247.504 18.2079 247.459 18.547C247.415 18.9052 247.389 19.3658 247.389 19.948V32.0008C247.389 32.5957 247.408 33.0755 247.453 33.4402C247.491 33.7921 247.549 34.0352 247.626 34.1695C247.728 34.3358 247.907 34.4638 248.163 34.5533C248.451 34.6493 248.829 34.7005 249.296 34.7005H249.5V35.5961H241.433V34.7005H241.638C242.098 34.7005 242.469 34.6493 242.751 34.5533C243.007 34.4638 243.186 34.3358 243.288 34.1695C243.372 34.0288 243.435 33.7793 243.48 33.4274C243.525 33.0563 243.551 32.5829 243.551 32.0008Z" fill="#EC1C24"/>
<path d="M174.586 35.6025H170.255L170.204 35.4746L168.598 31.3226H161.184L159.635 35.4682L159.584 35.6025H155.036L155.144 35.3338L162.597 16.5318L162.649 16.4038H167.031L167.082 16.5318L174.772 35.3338L174.887 35.6089H174.586V35.6025ZM167.184 27.7465L164.811 21.5601L162.508 27.7465H167.184Z" fill="#EC1C24"/>
<path d="M178.802 35.4682L171.931 16.6662L171.835 16.3975H172.129H176.326H176.473L176.518 16.5382L181.201 29.8897L185.686 16.5382L185.737 16.3975H185.884H190.01H190.298L190.202 16.6662L183.376 35.4682L183.325 35.6026H183.184H178.994H178.853L178.802 35.4682Z" fill="#EC1C24"/>
<path d="M191.13 35.3979V16.6022V16.3975H191.335H205.543H205.748V16.6022V19.7753V19.98H205.543H195.423V23.7545H204.82H205.025V23.9528V27.126V27.3307H204.82H195.423V32.02H205.921H206.125V32.2247V35.3979V35.6026H205.921H191.335H191.13V35.3979Z" fill="#EC1C24"/>
<path d="M208.339 35.3979V16.3975H216.707C217.737 16.3975 218.632 16.4422 219.387 16.5254C220.149 16.615 220.776 16.7429 221.255 16.9157C221.742 17.0948 222.183 17.3379 222.573 17.6514C222.964 17.9648 223.303 18.3487 223.59 18.7965C223.878 19.2443 224.096 19.7241 224.243 20.2423C224.39 20.7541 224.461 21.2979 224.461 21.8673C224.461 22.5966 224.352 23.2619 224.134 23.8697C223.917 24.4774 223.584 25.0212 223.143 25.501C222.701 25.9808 222.157 26.3711 221.499 26.6718C220.987 26.9085 220.411 27.0876 219.771 27.2155C220.021 27.3755 220.251 27.5354 220.475 27.7017C220.827 27.9704 221.147 28.2519 221.422 28.5462C221.703 28.8405 222.023 29.2435 222.394 29.7617C222.759 30.2735 223.175 30.8941 223.642 31.6298L225.983 35.2955L226.175 35.6026H221.063L221 35.513L218.217 31.4059C217.718 30.6765 217.302 30.0816 216.963 29.6338C216.63 29.1859 216.368 28.8661 216.189 28.6805C216.016 28.5014 215.837 28.3479 215.651 28.2263C215.472 28.1048 215.293 28.0152 215.101 27.9512C214.909 27.8873 214.653 27.8361 214.346 27.8041C214.026 27.7721 213.649 27.7529 213.207 27.7529H212.625V35.6026H208.326V35.4043L208.339 35.3979ZM212.638 24.3559H215.306C216.233 24.3559 216.976 24.3367 217.551 24.2983C218.114 24.2599 218.505 24.2087 218.722 24.132C218.933 24.0616 219.119 23.9656 219.285 23.8441C219.445 23.7225 219.586 23.5818 219.707 23.4091C219.829 23.2363 219.912 23.0444 219.976 22.8333C220.033 22.6158 220.065 22.3727 220.065 22.104C220.065 21.8033 220.027 21.541 219.944 21.3107C219.867 21.0804 219.752 20.8757 219.592 20.7029C219.439 20.5302 219.253 20.3831 219.029 20.2743C218.805 20.1592 218.549 20.0824 218.261 20.0376C218.108 20.0184 217.801 19.9992 217.34 19.9928C216.892 19.98 216.265 19.98 215.459 19.98H212.638V24.3559Z" fill="#EC1C24"/>
<path d="M226.533 28.9941L230.18 28.6422L230.366 28.623L230.398 28.8021C230.506 29.3779 230.666 29.8769 230.877 30.2991C231.088 30.715 231.344 31.0477 231.658 31.3163C231.971 31.5786 232.342 31.777 232.765 31.9049C233.193 32.0393 233.686 32.1032 234.23 32.1032C234.812 32.1032 235.317 32.0457 235.752 31.9241C236.174 31.8089 236.526 31.6362 236.808 31.3995C237.089 31.1692 237.3 30.9197 237.441 30.651C237.575 30.3887 237.646 30.1072 237.646 29.8065C237.646 29.6146 237.62 29.4355 237.563 29.2756C237.505 29.1156 237.422 28.9685 237.313 28.8341C237.204 28.6998 237.044 28.5782 236.84 28.4567C236.629 28.3351 236.366 28.22 236.059 28.1112C235.848 28.0409 235.496 27.9385 235.004 27.8041C234.498 27.6698 233.865 27.5099 233.097 27.3243C232.086 27.0748 231.229 26.7998 230.519 26.4927C229.796 26.1856 229.227 25.8465 228.811 25.4755C228.222 24.9573 227.781 24.3815 227.487 23.7418C227.192 23.1084 227.045 22.4111 227.045 21.6626C227.045 21.1828 227.116 20.7158 227.256 20.2616C227.397 19.8073 227.602 19.3723 227.877 18.9565C228.158 18.5343 228.498 18.1632 228.894 17.8433C229.291 17.5235 229.751 17.2548 230.27 17.0373C230.788 16.8197 231.357 16.6598 231.978 16.551C232.592 16.4423 233.264 16.3911 233.986 16.3911C235.164 16.3911 236.2 16.5191 237.089 16.775C237.991 17.0373 238.74 17.4275 239.348 17.9521C239.955 18.4767 240.422 19.0844 240.742 19.7882C241.062 20.4855 241.235 21.266 241.267 22.136V22.3343L241.068 22.3407L237.32 22.4687H237.14L237.108 22.3023C237.032 21.8545 236.91 21.4707 236.75 21.1508C236.59 20.8437 236.398 20.5942 236.155 20.4087C235.919 20.2232 235.618 20.0824 235.247 19.9865C234.876 19.8905 234.434 19.8393 233.929 19.8393C233.424 19.8393 232.944 19.8905 232.541 19.9993C232.144 20.1016 231.805 20.2552 231.517 20.4599C231.344 20.5814 231.216 20.7222 231.133 20.8821C231.05 21.0421 231.005 21.2212 231.005 21.4259C231.005 21.6114 231.044 21.7842 231.12 21.9377C231.197 22.0976 231.325 22.2448 231.485 22.3791C231.703 22.5582 232.086 22.7502 232.63 22.9421C233.193 23.1404 233.923 23.3451 234.825 23.5562C235.733 23.7674 236.526 23.9785 237.198 24.196C237.883 24.4199 238.452 24.6438 238.9 24.8741C239.354 25.1108 239.751 25.3859 240.109 25.7058C240.461 26.0257 240.768 26.3903 241.024 26.7934C241.28 27.2028 241.472 27.657 241.599 28.156C241.727 28.655 241.791 29.1988 241.791 29.7874C241.791 30.3247 241.715 30.8493 241.561 31.3547C241.408 31.8601 241.177 32.3463 240.877 32.8133C240.569 33.2868 240.198 33.6962 239.77 34.048C239.335 34.3999 238.842 34.6878 238.286 34.9117C237.735 35.142 237.115 35.3083 236.424 35.4235C235.739 35.5387 234.991 35.5898 234.178 35.5898C232.989 35.5898 231.933 35.4555 231.018 35.1868C230.09 34.9117 229.304 34.5023 228.651 33.9585C227.998 33.4147 227.487 32.743 227.096 31.9433C226.713 31.15 226.457 30.2416 226.335 29.2116L226.31 29.0069L226.514 28.9877L226.533 28.9941Z" fill="#EC1C24"/>
<path d="M106.338 21.445L106.274 33.5298L106.05 34.8924L105.961 35.3211L105.846 35.7305C105.814 35.8584 105.769 35.948 105.724 35.9992H100.939C101.278 35.6601 101.476 35.1483 101.527 34.4638L101.591 33.6577V20.2359C101.591 19.7369 101.444 19.3658 101.15 19.1035C100.856 18.8412 100.523 18.7133 100.146 18.7133C99.1412 18.7133 98.6358 19.2187 98.6358 20.2295V33.5873C98.6486 33.8752 98.6934 34.1375 98.7766 34.3934C98.7766 34.5342 98.7958 34.6557 98.8277 34.7773L98.9301 35.2443C98.9813 35.4426 99.0261 35.6089 99.09 35.7177L99.2116 35.8904L99.282 35.9864H94.727L94.6758 35.9224C94.631 35.8712 94.599 35.8009 94.5671 35.7177L94.2984 35.0716L94.2024 34.7261L94.0808 34.3934L93.9209 33.5873C93.8569 33.2547 93.825 33.0628 93.825 32.9988V21.4386C93.825 21.1635 93.8697 20.8436 93.9465 20.4854C94.0361 20.1207 94.1512 19.7817 94.2984 19.4554C95.3731 17.1459 97.3627 15.9944 100.248 15.9944C101.54 15.9944 102.711 16.3462 103.767 17.0564C104.816 17.7665 105.577 18.7197 106.044 19.9224L106.268 20.7029C106.313 20.85 106.332 21.0995 106.332 21.4514L106.338 21.445Z" fill="#EC1C24"/>
<path d="M84.331 16.0007V31.9496C84.331 32.359 84.4781 32.6853 84.7724 32.922C85.0603 33.1587 85.3737 33.2802 85.7 33.2802C86.6532 33.2802 87.133 32.8388 87.133 31.9496V28.0215C87.133 27.5161 87.0883 27.0427 87.0051 26.6013C86.9283 26.3134 86.8324 25.904 86.7044 25.3666L86.6085 24.9699L86.4869 24.6501H91.2658C91.3745 24.9891 91.4961 25.5329 91.6368 26.3006L91.7968 28.1559C91.7968 28.2774 91.8096 28.4502 91.8224 28.6485V29.1667C91.8224 29.7936 91.8096 30.235 91.7904 30.4973L91.7008 31.6873C91.1378 34.5661 89.1738 36.0119 85.8152 36.0119C83.8639 36.0119 82.3989 35.5769 81.4009 34.7132C80.4477 33.8816 79.776 32.4997 79.3857 30.5613V16.0007H84.3566H84.331Z" fill="#EC1C24"/>
<path d="M74.7284 16.0008V18.0096C74.7284 18.9564 74.0567 19.7945 72.7132 20.5046L71.9647 20.9076L71.3122 21.1891C70.9667 21.349 70.4357 21.5666 69.7256 21.8352C69.4825 21.912 68.798 22.1487 67.6784 22.5454C67.0643 22.7565 66.2006 23.0827 65.0811 23.5306C64.307 23.876 63.776 24.2471 63.4945 24.6501C63.9999 24.4198 64.5373 24.2983 65.1067 24.2983C66.4821 24.2983 67.3138 24.8612 67.6145 25.9808C67.9471 25.2963 68.4013 24.8165 68.9771 24.5542C69.5593 24.2919 70.4741 24.1575 71.7408 24.1575C73.3338 24.1575 74.6197 24.503 75.5729 25.2003C76.6477 26 77.1914 27.1643 77.1914 28.6933V34.2015C77.1914 34.4254 77.1403 34.6877 77.0507 34.9884C77.0187 35.0844 76.9483 35.2379 76.846 35.4426C76.7372 35.6473 76.6285 35.8328 76.5133 35.9864H71.9967C72.0415 35.8648 72.1119 35.6537 72.2206 35.353C72.2718 35.1931 72.3166 35.0332 72.3614 34.8796L72.4509 34.2335V28.6933C72.4509 27.7017 72.0415 27.2091 71.2162 27.2091H71.1522C70.7748 27.2091 70.4677 27.3626 70.2502 27.6633C70.0263 27.9576 69.9175 28.3031 69.9175 28.6997V31.489H65.1067V28.6997C65.1067 28.2583 65.0043 27.9064 64.7932 27.6505C64.5437 27.3946 64.2814 27.2731 64.0255 27.2731H63.8528C63.1554 27.2731 62.8036 27.7465 62.8036 28.6933V34.2655C62.9315 34.9628 63.0723 35.5322 63.2258 35.9864H58.4789L58.4149 35.7817L58.2934 35.5897L58.2614 35.4618L58.2294 35.4042C57.9223 34.7901 57.7688 34.1631 57.7688 33.517V27.7593C57.7688 26.1983 58.3062 24.8356 59.3746 23.6777C60.7628 22.1807 62.3941 21.0867 64.275 20.4022L66.0535 19.7881C68.6381 19.1419 69.9239 18.2591 69.9239 17.1331V15.9944H74.7348L74.7284 16.0008Z" fill="#EC1C24"/>
<path d="M56.2078 21.72V30.5805C56.2078 32.231 55.6192 33.5553 54.4293 34.5725C53.3098 35.5257 51.9023 35.9991 50.2262 35.9991H50.1302C48.4605 35.9991 47.0659 35.5193 45.9463 34.5597C44.75 33.5489 44.155 32.2246 44.155 30.5869V27.1834H48.9019V31.6872C48.9019 32.0903 49.0235 32.4549 49.2666 32.7556C49.5097 33.0563 49.836 33.2098 50.239 33.2098H50.303C51.1922 33.2098 51.6336 32.7044 51.6336 31.6744V20.4725C51.6336 19.9543 51.5185 19.5769 51.2946 19.3401C51.0643 19.1098 50.7764 18.9883 50.4245 18.9883H50.335C49.9703 18.9883 49.6888 19.1418 49.4777 19.4553C49.273 19.7624 49.1706 20.1014 49.1706 20.4789V23.0379H44.3278V21.7072C44.3278 20.0439 44.9099 18.6684 46.0743 17.5872C47.2194 16.5317 48.6332 16.0071 50.3094 16.0071C51.8959 16.0071 53.2778 16.5701 54.4549 17.6896C55.632 18.8092 56.2206 20.159 56.2206 21.7328L56.2078 21.72Z" fill="#EC1C24"/>
<path d="M36.734 16.0007C38.327 16.0007 39.6448 16.4166 40.6876 17.2482C41.8328 18.1439 42.4021 19.3722 42.4021 20.9204C42.4021 21.6369 42.255 22.3214 41.9607 22.9611C41.6089 23.6841 41.1355 24.1959 40.5533 24.4965L40.2526 24.5861L39.9391 24.6501C40.4253 24.6501 40.8923 24.8548 41.3402 25.2642C41.7496 25.6353 42.0311 26.0703 42.1846 26.5629L42.3446 27.0875C42.3893 27.2218 42.4085 27.3818 42.4085 27.5609V30.9899C42.4085 32.4997 41.7944 33.728 40.5661 34.6813C39.4337 35.5577 38.0839 35.9927 36.5293 35.9927C34.834 35.9927 33.4073 35.5129 32.2366 34.5533C30.9763 33.5297 30.3494 32.1991 30.3494 30.5485V27.1451H35.1602V31.6745C35.1602 32.6981 35.6017 33.2098 36.4781 33.2098H36.5421C37.4185 33.2098 37.86 32.6981 37.86 31.6745V27.1451C37.86 26.6397 37.8024 26.2942 37.6872 26.0959C37.5273 25.8656 37.2074 25.7504 36.7148 25.7504H35.9343V23.2554H36.7148C37.2458 23.2554 37.5849 22.9931 37.7448 22.4813L37.86 22.2702V20.2358C37.86 19.225 37.4185 18.7196 36.5421 18.7196H36.4461C35.5889 18.7196 35.1602 19.225 35.1602 20.2358V22.5773H30.7716V20.914C30.7716 19.4617 31.4241 18.259 32.7164 17.3122C33.8935 16.4358 35.2306 16.0007 36.7404 16.0007H36.734Z" fill="#EC1C24"/>
<path d="M18.0471 16.0007H23.0499V18.4701C23.0499 19.5321 23.8112 20.5557 25.321 21.5409L25.4938 21.6817L25.6537 21.7776C26.1655 22.0847 26.754 22.5773 27.4322 23.2618C27.9824 23.8248 28.2574 24.5861 28.2574 25.5585V29.8832C28.2574 31.7768 27.7009 33.229 26.5813 34.227C25.4682 35.2186 24.1951 35.8072 22.762 35.9735L22.4934 36.0055H21.9752C20.5805 36.0055 19.2115 35.4681 17.8808 34.4062C16.6269 33.4082 16.0063 31.9687 16.0063 30.1007V27.1579H20.9772V31.4953C20.9772 32.5381 21.3866 33.1011 22.2119 33.1843C22.5445 33.1843 22.8388 33.0435 23.1075 32.762C23.3762 32.4869 23.5105 32.0583 23.5105 31.4953V25.5649C23.5105 24.6693 23.2483 23.94 22.7301 23.3834C22.391 23.0123 21.7449 22.5517 20.7788 22.0079C20.0879 21.6177 19.4738 21.1891 18.9236 20.7412C18.3414 20.255 18.0535 19.5001 18.0535 18.4765V16.0071L18.0471 16.0007Z" fill="#EC1C24"/>
</g>
<defs>
<clipPath id="clip0_25_120">
<rect width="233.507" height="32" fill="white" transform="translate(16 10)"/>
</clipPath>
</defs>
</svg>
