<svg width="40" height="40" viewBox="0 0 40 40" fill="none" xmlns="http://www.w3.org/2000/svg">
<rect x="40" y="40" width="40" height="40" rx="20" transform="rotate(180 40 40)" fill="#1C1B1F" fill-opacity="0.3"/>
<path d="M17.9166 20.0053L24.0416 26.1303C24.2499 26.3387 24.3506 26.5817 24.3437 26.8595C24.3367 27.1373 24.2291 27.3803 24.0208 27.5887C23.8124 27.797 23.5694 27.9012 23.2916 27.9012C23.0138 27.9012 22.7708 27.797 22.5624 27.5887L16.1458 21.1928C15.9791 21.0262 15.8541 20.8387 15.7708 20.6303C15.6874 20.422 15.6458 20.2137 15.6458 20.0053C15.6458 19.797 15.6874 19.5887 15.7708 19.3803C15.8541 19.172 15.9791 18.9845 16.1458 18.8178L22.5624 12.4012C22.7708 12.1928 23.0173 12.0921 23.302 12.0991C23.5867 12.106 23.8333 12.2137 24.0416 12.422C24.2499 12.6303 24.3541 12.8734 24.3541 13.1512C24.3541 13.429 24.2499 13.672 24.0416 13.8803L17.9166 20.0053Z" fill="#1C1B1F"/>
</svg>
