<svg width="40" height="40" viewBox="0 0 40 40" fill="none" xmlns="http://www.w3.org/2000/svg">
<rect width="40" height="40" rx="20" fill="#1C1B1F" fill-opacity="0.3"/>
<path d="M22.0832 19.9947L15.9582 13.8697C15.7498 13.6613 15.6491 13.4183 15.6561 13.1405C15.663 12.8627 15.7707 12.6197 15.979 12.4113C16.1873 12.203 16.4304 12.0988 16.7082 12.0988C16.9859 12.0988 17.229 12.203 17.4373 12.4113L23.854 18.8072C24.0207 18.9738 24.1457 19.1613 24.229 19.3697C24.3123 19.578 24.354 19.7863 24.354 19.9947C24.354 20.203 24.3123 20.4113 24.229 20.6197C24.1457 20.828 24.0207 21.0155 23.854 21.1822L17.4373 27.5988C17.229 27.8072 16.9825 27.9079 16.6978 27.9009C16.413 27.894 16.1665 27.7863 15.9582 27.578C15.7498 27.3697 15.6457 27.1266 15.6457 26.8488C15.6457 26.571 15.7498 26.328 15.9582 26.1197L22.0832 19.9947Z" fill="#1C1B1F"/>
</svg>
