<svg width="12" height="13" viewBox="0 0 12 13" fill="none" xmlns="http://www.w3.org/2000/svg">
<mask id="mask0_25_312" style="mask-type:alpha" maskUnits="userSpaceOnUse" x="0" y="0" width="12" height="13">
<rect y="0.5" width="12" height="12" fill="#D9D9D9"/>
</mask>
<g mask="url(#mask0_25_312)">
<path d="M3 10.5C2.58333 10.5 2.22917 10.3542 1.9375 10.0625C1.64583 9.77083 1.5 9.41667 1.5 9H0.5V3.5C0.5 3.225 0.597917 2.98958 0.79375 2.79375C0.989583 2.59792 1.225 2.5 1.5 2.5H8.5V4.5H10L11.5 6.5V9H10.5C10.5 9.41667 10.3542 9.77083 10.0625 10.0625C9.77083 10.3542 9.41667 10.5 9 10.5C8.58333 10.5 8.22917 10.3542 7.9375 10.0625C7.64583 9.77083 7.5 9.41667 7.5 9H4.5C4.5 9.41667 4.35417 9.77083 4.0625 10.0625C3.77083 10.3542 3.41667 10.5 3 10.5ZM3 9.5C3.14167 9.5 3.26042 9.45208 3.35625 9.35625C3.45208 9.26042 3.5 9.14167 3.5 9C3.5 8.85833 3.45208 8.73958 3.35625 8.64375C3.26042 8.54792 3.14167 8.5 3 8.5C2.85833 8.5 2.73958 8.54792 2.64375 8.64375C2.54792 8.73958 2.5 8.85833 2.5 9C2.5 9.14167 2.54792 9.26042 2.64375 9.35625C2.73958 9.45208 2.85833 9.5 3 9.5ZM1.5 8H1.9C2.04167 7.85 2.20417 7.72917 2.3875 7.6375C2.57083 7.54583 2.775 7.5 3 7.5C3.225 7.5 3.42917 7.54583 3.6125 7.6375C3.79583 7.72917 3.95833 7.85 4.1 8H7.5V3.5H1.5V8ZM9 9.5C9.14167 9.5 9.26042 9.45208 9.35625 9.35625C9.45208 9.26042 9.5 9.14167 9.5 9C9.5 8.85833 9.45208 8.73958 9.35625 8.64375C9.26042 8.54792 9.14167 8.5 9 8.5C8.85833 8.5 8.73958 8.54792 8.64375 8.64375C8.54792 8.73958 8.5 8.85833 8.5 9C8.5 9.14167 8.54792 9.26042 8.64375 9.35625C8.73958 9.45208 8.85833 9.5 9 9.5ZM8.5 7H10.625L9.5 5.5H8.5V7Z" fill="#EC1C24"/>
</g>
</svg>
