<svg width="12" height="13" viewBox="0 0 12 13" fill="none" xmlns="http://www.w3.org/2000/svg">
<mask id="mask0_25_303" style="mask-type:alpha" maskUnits="userSpaceOnUse" x="0" y="0" width="12" height="13">
<rect y="0.5" width="12" height="12" fill="#D9D9D9"/>
</mask>
<g mask="url(#mask0_25_303)">
<path d="M6.00049 10.175C7.01716 9.24164 7.77132 8.39372 8.26299 7.63122C8.75466 6.86872 9.00049 6.19164 9.00049 5.59997C9.00049 4.69164 8.71091 3.94789 8.13174 3.36872C7.55257 2.78955 6.84215 2.49997 6.00049 2.49997C5.15882 2.49997 4.4484 2.78955 3.86924 3.36872C3.29007 3.94789 3.00049 4.69164 3.00049 5.59997C3.00049 6.19164 3.24632 6.86872 3.73799 7.63122C4.22966 8.39372 4.98382 9.24164 6.00049 10.175ZM6.00049 11.1625C5.88382 11.1625 5.76715 11.1416 5.65049 11.1C5.53382 11.0583 5.42966 10.9958 5.33799 10.9125C4.79632 10.4125 4.31715 9.92497 3.90049 9.44997C3.48382 8.97497 3.1359 8.51455 2.85674 8.06872C2.57757 7.62289 2.36507 7.19372 2.21924 6.78122C2.0734 6.36872 2.00049 5.97497 2.00049 5.59997C2.00049 4.34997 2.40257 3.35414 3.20674 2.61247C4.01091 1.8708 4.94215 1.49997 6.00049 1.49997C7.05882 1.49997 7.99007 1.8708 8.79424 2.61247C9.59841 3.35414 10.0005 4.34997 10.0005 5.59997C10.0005 5.97497 9.92757 6.36872 9.78174 6.78122C9.6359 7.19372 9.42341 7.62289 9.14424 8.06872C8.86507 8.51455 8.51715 8.97497 8.10049 9.44997C7.68382 9.92497 7.20465 10.4125 6.66299 10.9125C6.57132 10.9958 6.46715 11.0583 6.35049 11.1C6.23382 11.1416 6.11716 11.1625 6.00049 11.1625ZM6.00049 6.49997C6.27549 6.49997 6.51091 6.40205 6.70674 6.20622C6.90257 6.01039 7.00049 5.77497 7.00049 5.49997C7.00049 5.22497 6.90257 4.98955 6.70674 4.79372C6.51091 4.59789 6.27549 4.49997 6.00049 4.49997C5.72549 4.49997 5.49007 4.59789 5.29424 4.79372C5.0984 4.98955 5.00049 5.22497 5.00049 5.49997C5.00049 5.77497 5.0984 6.01039 5.29424 6.20622C5.49007 6.40205 5.72549 6.49997 6.00049 6.49997Z" fill="#EC1C24"/>
</g>
</svg>
