<svg width="28" height="28" viewBox="0 0 28 28" fill="none" xmlns="http://www.w3.org/2000/svg">
<mask id="mask0_10_63" style="mask-type:alpha" maskUnits="userSpaceOnUse" x="0" y="0" width="28" height="28">
<rect width="28" height="28" fill="#D9D9D9"/>
</mask>
<g mask="url(#mask0_10_63)">
<path d="M6.99984 25.6666C6.35817 25.6666 5.80887 25.4382 5.35192 24.9812C4.89498 24.5243 4.6665 23.975 4.6665 23.3333V9.33331C4.6665 8.69165 4.89498 8.14234 5.35192 7.6854C5.80887 7.22845 6.35817 6.99998 6.99984 6.99998H9.33317C9.33317 5.71665 9.79012 4.61804 10.704 3.70415C11.6179 2.79026 12.7165 2.33331 13.9998 2.33331C15.2832 2.33331 16.3818 2.79026 17.2957 3.70415C18.2096 4.61804 18.6665 5.71665 18.6665 6.99998H20.9998C21.6415 6.99998 22.1908 7.22845 22.6478 7.6854C23.1047 8.14234 23.3332 8.69165 23.3332 9.33331V23.3333C23.3332 23.975 23.1047 24.5243 22.6478 24.9812C22.1908 25.4382 21.6415 25.6666 20.9998 25.6666H6.99984ZM6.99984 23.3333H20.9998V9.33331H18.6665V11.6666C18.6665 11.9972 18.5547 12.2743 18.3311 12.4979C18.1075 12.7215 17.8304 12.8333 17.4998 12.8333C17.1693 12.8333 16.8922 12.7215 16.6686 12.4979C16.445 12.2743 16.3332 11.9972 16.3332 11.6666V9.33331H11.6665V11.6666C11.6665 11.9972 11.5547 12.2743 11.3311 12.4979C11.1075 12.7215 10.8304 12.8333 10.4998 12.8333C10.1693 12.8333 9.8922 12.7215 9.66859 12.4979C9.44498 12.2743 9.33317 11.9972 9.33317 11.6666V9.33331H6.99984V23.3333ZM11.6665 6.99998H16.3332C16.3332 6.35831 16.1047 5.80901 15.6478 5.35206C15.1908 4.89512 14.6415 4.66665 13.9998 4.66665C13.3582 4.66665 12.8089 4.89512 12.3519 5.35206C11.895 5.80901 11.6665 6.35831 11.6665 6.99998Z" fill="#EC1C24"/>
</g>
</svg>
